# This file uses centimeters as units for non-parametric coordinates.

mtllib FlatScreenTV.mtl
g default
v -1.323353 0.000000 0.047837
v 1.323353 0.000000 0.047837
v -1.323353 1.561902 0.047837
v 1.323353 1.561902 0.047837
v -1.323353 1.561902 -0.047837
v 1.323353 1.561902 -0.047837
v -1.323353 0.000000 -0.047837
v 1.323353 0.000000 -0.047837
v -1.164836 0.000000 0.047837
v -1.164836 0.000000 -0.047837
v -1.164836 1.561902 -0.047837
v -1.164836 1.561902 0.047837
v 1.191303 0.000000 0.047837
v 1.191303 1.561902 0.047837
v 1.191303 1.561902 -0.047837
v 1.191303 0.000000 -0.047837
v -1.323353 1.481477 0.047837
v -1.164836 1.481477 0.047837
v 1.191303 1.481477 0.047837
v 1.323353 1.481477 0.047837
v 1.323353 1.481477 -0.047837
v 1.191303 1.481477 -0.047837
v -1.164836 1.481477 -0.047837
v -1.323353 1.481477 -0.047837
v -1.323353 0.064806 0.047837
v -1.164836 0.064806 0.047837
v 1.191303 0.064806 0.047837
v 1.323353 0.064806 0.047837
v 1.323353 0.064806 -0.047837
v 1.191303 0.064806 -0.047837
v -1.164836 0.064806 -0.047837
v -1.323353 0.064806 -0.047837
v -1.136400 1.464379 0.036627
v 1.162867 1.464379 0.036627
v -1.136400 0.081904 0.036627
v 1.162867 0.081904 0.036627
v 0.850103 0.166027 -0.091211
v -0.823636 0.166027 -0.091211
v -0.823636 1.380256 -0.091211
v 0.850103 1.380256 -0.091211
v -1.136400 1.464379 0.036627
v 1.162867 1.464379 0.036627
v -1.136400 0.081904 0.036627
v 1.162867 0.081904 0.036627
vt 0.695804 0.999997
vt 0.986198 0.593234
vt 0.627247 0.999996
vt 0.986197 0.926566
vt 0.000000 0.333332
vt 0.000000 0.000000
vt 0.695803 0.666664
vt 0.333333 0.000001
vt 0.530424 0.963402
vt 0.333332 0.313369
vt 0.000000 0.313368
vt 0.920842 0.628372
vt 0.898726 0.666664
vt 0.527879 0.666665
vt 0.000000 0.016631
vt 0.333333 0.016631
vt 0.000000 0.666665
vt 0.920842 0.611208
vt 0.510715 0.666665
vt 0.986197 0.909402
vt 0.017164 0.000000
vt 0.927485 0.663003
vt 0.312622 0.666664
vt 0.000000 0.333333
vt 0.302338 0.666665
vt 0.544254 0.963402
vt 0.969568 0.607064
vt 0.698812 0.666664
vt 0.319502 0.000000
vt 0.468382 0.666664
vt 0.157108 0.666663
vt 0.681973 0.666664
vt 0.471488 0.670246
vt 0.960063 0.607560
vt 0.583482 0.959821
vt 0.930347 0.610713
vt 0.231843 0.275765
vt 0.000000 0.688264
vt 0.159969 0.709636
vt 0.770377 0.684605
vt 0.639876 0.295040
vt 0.929451 0.295040
vt 0.639876 0.000000
vt 0.929451 0.000000
vt 0.319501 0.333333
vt 0.333332 0.333333
vt 0.698812 0.999997
vt 0.648295 1.000000
vt 0.017164 0.333332
vt 0.336777 0.333332
vt 0.898726 0.333332
vt 0.681765 0.666664
vt 0.623362 0.666664
vt 0.303099 0.666665
vt 0.605114 0.666665
vt 0.964023 0.333332
vt 0.712642 0.999997
vt 0.585150 0.666665
vt 0.665134 0.666664
vt 0.627247 0.666664
vt 0.986198 0.607064
vt 0.606198 0.999996
vt 0.900880 0.308871
vt 0.900878 0.611208
vt 0.665134 0.999996
vt 0.623362 0.999996
vt 0.964024 0.000000
vt 0.900878 0.628372
vt 0.599837 0.333332
vt 0.530423 0.666665
vt 0.712643 0.666664
vt 0.648295 0.666664
vt 0.983988 0.000000
vt 0.601989 0.666664
vt 0.900880 0.295040
vt 0.585150 0.999997
vt 0.583481 0.670246
vt 0.960065 0.312520
vt 0.930346 0.905753
vt 0.471487 0.959821
vt 0.920844 0.308871
vt 0.920844 0.295040
vt 0.969567 0.909402
vt 0.969567 0.926566
vt 0.969568 0.593233
vt 0.544254 0.666665
vt 0.527879 0.963402
vt 0.510715 0.963402
vt 0.159969 0.920430
vt 0.231843 0.016631
vt 0.315728 0.709636
vt 0.770377 0.943739
vt 0.000000 0.947398
vt 0.021049 0.016631
vt 0.017164 0.016631
vt 0.312622 0.963402
vt 0.315728 0.920430
vt 0.021049 0.275765
vt 0.017164 0.313368
vt 0.157108 0.969000
vt 0.319502 0.313369
vt 0.468382 0.963402
vt 0.319502 0.016631
vt 0.927485 0.965341
vt 0.302338 0.333333
vt 0.681973 0.999997
vt 0.639115 0.000000
vt 0.639115 0.333332
vt 0.644411 0.666664
vt 0.644411 0.999996
vt 0.336777 0.000000
vt 0.606198 0.666664
vt 0.664926 1.000000
vt 0.664926 0.666664
vt 0.681765 0.999996
vt 0.599837 0.666665
vt 0.983987 0.333332
vt 0.303099 0.333333
vt 0.605114 0.999997
vt 0.601988 0.333332
vn 0.000000 0.000000 1.000000
vn 0.000000 0.000000 1.000000
vn 0.000000 0.000000 1.000000
vn 0.000000 0.000000 1.000000
vn 0.000000 1.000000 0.000000
vn 0.000000 1.000000 0.000000
vn 0.000000 1.000000 0.000000
vn 0.000000 1.000000 0.000000
vn 0.000000 0.000000 -1.000000
vn 0.000000 0.000000 -1.000000
vn 0.000000 0.000000 -1.000000
vn 0.000000 0.000000 -1.000000
vn 0.000000 -1.000000 0.000000
vn 0.000000 -1.000000 0.000000
vn 0.000000 -1.000000 0.000000
vn 0.000000 -1.000000 0.000000
vn 1.000000 0.000000 0.000000
vn 1.000000 0.000000 0.000000
vn 1.000000 0.000000 0.000000
vn 1.000000 0.000000 0.000000
vn -1.000000 0.000000 0.000000
vn -1.000000 0.000000 0.000000
vn -1.000000 0.000000 0.000000
vn -1.000000 0.000000 0.000000
vn 0.000000 -1.000000 0.000000
vn 0.000000 -1.000000 0.000000
vn 0.000000 0.000000 -1.000000
vn 0.000000 0.000000 -1.000000
vn 0.000000 1.000000 0.000000
vn 0.000000 1.000000 0.000000
vn 0.000000 0.000000 1.000000
vn 0.000000 0.000000 1.000000
vn 0.000000 0.000000 1.000000
vn 0.000000 0.000000 1.000000
vn 0.000000 1.000000 0.000000
vn 0.000000 1.000000 0.000000
vn 0.000000 0.000000 -1.000000
vn 0.000000 0.000000 -1.000000
vn 0.000000 -1.000000 0.000000
vn 0.000000 -1.000000 0.000000
vn 0.000000 0.000000 1.000000
vn 0.000000 0.000000 1.000000
vn 0.000000 0.000000 1.000000
vn 0.000000 0.000000 1.000000
vn 0.000000 0.000000 1.000000
vn 0.000000 0.000000 1.000000
vn 0.000000 0.000000 1.000000
vn 0.000000 0.000000 1.000000
vn 1.000000 0.000000 0.000000
vn 1.000000 0.000000 0.000000
vn 0.000000 0.000000 -1.000000
vn 0.000000 0.000000 -1.000000
vn 0.000000 0.000000 -1.000000
vn 0.000000 0.000000 -1.000000
vn 0.000000 0.000000 -1.000000
vn 0.000000 0.000000 -1.000000
vn 0.000000 0.000000 -1.000000
vn 0.000000 0.000000 -1.000000
vn -1.000000 0.000000 0.000000
vn -1.000000 0.000000 0.000000
vn 0.000000 0.000000 1.000000
vn 0.000000 0.000000 1.000000
vn 0.000000 0.000000 1.000000
vn 0.000000 0.000000 1.000000
vn 1.000000 0.000000 0.000000
vn 1.000000 0.000000 0.000000
vn 0.000000 0.000000 -1.000000
vn 0.000000 0.000000 -1.000000
vn 0.000000 0.000000 -1.000000
vn 0.000000 0.000000 -1.000000
vn -1.000000 0.000000 0.000000
vn -1.000000 0.000000 0.000000
vn 0.000000 -0.548318 0.836270
vn 0.000000 -0.548318 0.836270
vn 0.000000 -0.548318 0.836270
vn 0.000000 -0.548318 0.836270
vn 0.366761 -0.000000 0.930315
vn 0.366761 -0.000000 0.930315
vn 0.366761 -0.000000 0.930315
vn 0.366761 -0.000000 0.930315
vn 0.000000 0.548320 0.836269
vn 0.000000 0.548320 0.836269
vn 0.000000 0.548320 0.836269
vn 0.000000 0.548320 0.836269
vn -0.366761 0.000000 0.930315
vn -0.366761 0.000000 0.930315
vn -0.366761 0.000000 0.930315
vn -0.366761 0.000000 0.930315
vn 0.000000 -0.393871 -0.919166
vn 0.000000 -0.393871 -0.919166
vn 0.000000 -0.393871 -0.919166
vn 0.000000 -0.393871 -0.919166
vn -0.126107 -0.000000 -0.992017
vn -0.126107 -0.000000 -0.992017
vn -0.126107 -0.000000 -0.992017
vn -0.126107 -0.000000 -0.992017
vn 0.000000 0.393871 -0.919166
vn 0.000000 0.393871 -0.919166
vn 0.000000 0.393871 -0.919166
vn 0.000000 0.393871 -0.919166
vn 0.126107 0.000000 -0.992017
vn 0.126107 0.000000 -0.992017
vn 0.126107 0.000000 -0.992017
vn 0.126107 0.000000 -0.992017
s 1
g pCube1
usemtl initialShadingGroup
f 12/87/1 18/88/2 19/19/3 14/14/4
s 2
f 11/54/5 12/118/6 14/69/7 15/116/8
s 3
f 22/95/9 23/99/10 11/11/11 15/15/12
s 4
f 9/74/13 10/120/14 16/51/15 13/13/16
s 5
f 20/62/17 21/112/18 6/53/19 4/66/20
s 6
f 24/109/21 17/110/22 3/3/23 5/60/24
s 4
f 7/58/25 10/55/14 9/119/13 1/76/26
s 3
f 5/5/27 11/11/11 23/99/10 24/49/28
s 2
f 3/67/29 12/73/6 11/117/5 5/56/30
s 1
f 17/64/31 18/18/2 12/12/1 3/68/32
f 14/84/4 19/83/3 20/20/33 4/4/34
s 2
f 15/52/8 14/115/7 4/65/35 6/59/36
s 3
f 21/21/37 22/95/9 15/15/12 6/6/38
s 4
f 13/114/16 16/113/15 8/48/39 2/72/40
s 1
f 25/63/41 26/81/42 18/18/2 17/64/31
s off
f 42/42/43 41/41/44 43/43/45 44/44/46
s 1
f 20/20/33 19/83/3 27/27/47 28/61/48
s 5
f 28/107/49 29/108/50 21/50/18 20/111/17
s 3
f 29/29/51 30/103/52 22/95/9 21/21/37
s off
f 37/37/53 38/98/54 39/94/55 40/90/56
s 3
f 24/49/28 23/99/10 31/101/57 32/45/58
s 6
f 32/105/59 25/25/60 17/17/22 24/24/21
s 1
f 1/75/61 9/82/62 26/81/42 25/63/41
f 27/86/47 26/26/42 9/9/62 13/70/63
f 28/61/48 27/27/47 13/85/63 2/2/64
s 5
f 2/71/65 8/57/66 29/47/50 28/28/49
s 3
f 16/16/67 30/103/52 29/29/51 8/8/68
f 10/10/69 31/101/57 30/103/52 16/16/67
f 32/45/58 31/101/57 10/10/69 7/46/70
s 6
f 7/7/71 1/1/72 25/106/60 32/32/59
s off
f 19/19/73 18/88/74 33/80/75 34/33/76
f 18/18/77 26/81/78 35/78/79 33/34/80
f 26/26/81 27/86/82 36/77/83 35/35/84
f 27/27/85 19/83/86 34/79/87 36/36/88
f 30/30/89 31/102/90 38/97/91 37/91/92
f 31/31/93 23/100/94 39/93/95 38/38/96
f 23/23/97 22/96/98 40/89/99 39/39/100
f 22/22/101 30/104/102 37/92/103 40/40/104
