# This file uses centimeters as units for non-parametric coordinates.

mtllib LandScapePictureFrame.mtl
g default
v -2.176315 -0.986961 0.051477
v 2.176315 -0.986961 0.051477
v -2.176315 0.986961 0.051477
v 2.176315 0.986961 0.051477
vt 0.000000 0.000000
vt 1.000000 0.000000
vt 0.000000 1.000000
vt 1.000000 1.000000
vn 0.000000 0.000000 1.000000
vn 0.000000 0.000000 1.000000
vn 0.000000 0.000000 1.000000
vn 0.000000 0.000000 1.000000
s off
g Glass LandScapePictureFrame
usemtl blinn1SG
f 1/1/1 2/2/2 4/4/3 3/3/4
g default
v -2.389473 -1.195859 0.090234
v 2.389473 -1.195859 0.090234
v -2.389473 1.195859 0.090234
v 2.389473 1.195859 0.090234
v -2.389473 1.195859 -0.090234
v 2.389473 1.195859 -0.090234
v -2.389473 -1.195859 -0.090234
v 2.389473 -1.195859 -0.090234
v 2.048820 -0.871129 -0.002480
v 2.048820 0.871129 -0.002480
v -2.048820 0.871129 -0.002480
v -2.048820 -0.871129 -0.002480
v -2.212486 -1.018647 0.090234
v -2.103316 -0.916973 0.047199
v -2.216328 1.022490 0.090234
v -2.103316 0.916973 0.047199
v 2.212486 1.018647 0.090234
v 2.103316 0.916973 0.047199
v 2.216328 -1.022490 0.090234
v 2.103316 -0.916973 0.047199
v 2.048820 0.871129 -0.002480
vt 0.723778 0.931141
vt 0.367073 0.364893
vt 0.731936 0.364884
vt 0.367082 0.729756
vt 0.731945 0.729747
vt 0.731936 0.000000
vt 0.731966 0.364863
vt 0.000000 0.000061
vt 0.000061 0.364924
vt 0.013225 0.919291
vt 0.364924 0.364863
vt 0.385948 0.917669
vt 0.364863 0.364864
vt 0.364863 0.000000
vt 0.983236 0.957006
vt 0.760799 0.326069
vt 0.342914 0.830408
vt 0.770888 0.167410
vt 0.734146 0.312843
vt 0.896077 0.661649
vt 0.025786 0.730110
vt 0.849560 0.655792
vt 0.795325 0.934345
vt 0.681296 0.830478
vt 0.674376 0.729949
vt 0.734153 0.312847
vt 0.364923 0.729727
vt 0.000060 0.729787
vt 1.000000 0.000048
vt 0.734210 0.000000
vt 0.338632 0.729732
vt 0.367103 0.364893
vt 0.364863 0.945814
vt 0.000000 0.364924
vt 0.996744 0.619178
vt 0.367073 0.000030
vt 0.734146 0.677697
vt 0.949975 0.338700
vt 0.999940 0.312894
vt 0.770853 0.433598
vt 0.408590 0.729755
vt 0.770856 0.433594
vt 0.849291 0.334624
vt 0.895843 0.941423
vt 0.950238 0.651546
vt 0.021747 0.830796
vt 0.795547 0.668559
vt 0.401523 0.830274
vt 0.761188 0.664201
vt 0.996749 0.984040
vt 0.697329 0.917925
vt 0.734359 0.312835
vt 0.351356 0.918777
vt 0.358916 0.931184
vt 0.983525 0.645626
vt 0.000000 0.945736
vn 0.000000 0.000000 1.000000
vn 0.000000 0.000000 0.000000
vn 0.000000 0.000000 0.000000
vn 0.000000 0.000000 1.000000
vn 0.000000 0.000000 1.000000
vn 0.000000 1.000000 0.000000
vn 0.000000 1.000000 0.000000
vn 0.000000 1.000000 0.000000
vn 0.000000 1.000000 0.000000
vn 0.000000 -1.000000 0.000000
vn 0.000000 -1.000000 0.000000
vn 0.000000 -1.000000 0.000000
vn 0.000000 -1.000000 0.000000
vn 1.000000 0.000000 0.000000
vn 1.000000 0.000000 0.000000
vn 1.000000 0.000000 0.000000
vn 1.000000 0.000000 0.000000
vn -1.000000 0.000000 0.000000
vn -1.000000 0.000000 0.000000
vn -1.000000 0.000000 0.000000
vn -1.000000 0.000000 0.000000
vn 0.429081 0.000289 0.903266
vn 0.021133 -0.043638 0.998824
vn 0.021345 0.043850 0.998810
vn 0.429163 0.000289 0.903227
vn 0.000142 0.453168 0.891425
vn -0.021133 0.043638 0.998824
vn 0.000142 0.453132 0.891444
vn -0.000142 -0.453132 0.891444
vn -0.000142 -0.453167 0.891425
vn -0.021345 -0.043850 0.998810
vn -0.429163 -0.000289 0.903227
vn -0.429081 -0.000289 0.903266
vn 0.000000 0.000000 1.000000
vn 0.000000 0.000000 1.000000
vn 0.000000 0.000000 1.000000
vn 0.000000 0.000000 1.000000
vn -0.673683 0.000000 0.739020
vn -0.673683 0.000000 0.739020
vn 0.000000 -0.734901 0.678174
vn 0.000000 -0.734901 0.678174
vn 0.673683 0.000000 0.739020
vn 0.673683 0.000000 0.739020
vn 0.000000 0.734899 0.678176
vn 0.000000 0.734899 0.678176
vn 0.000000 0.000000 0.000000
vn 0.000000 0.000000 0.000000
vn 0.000000 0.000000 0.000000
s off
g LandScapePictureFrame Frame
usemtl lambert2SG
f 13/43/5 25/30/6 14/23/7 15/34/8 16/33/9
f 10/31/10 9/32/11 7/38/12 8/17/13
f 5/8/14 11/6/15 12/7/16 6/9/17
f 12/10/18 10/11/19 8/36/20 6/40/21
f 7/15/22 9/13/23 11/12/24 5/18/25
s 1
f 20/24/26 19/59/27 17/19/28 18/48/29
f 18/26/30 17/53/28 23/20/31 24/47/32
f 19/14/27 20/50/33 22/21/34 21/57/35
f 21/16/35 22/52/36 24/28/37 23/55/31
f 17/19/28 19/59/27 7/39/38 5/54/39
f 19/14/27 21/57/35 8/37/40 7/60/38
f 21/16/35 23/55/31 6/5/41 8/58/40
f 23/20/31 17/53/28 5/41/39 6/56/41
f 24/28/37 22/52/36 14/45/42 13/29/43
f 14/35/44 22/21/34 20/50/33 15/25/45
f 16/27/46 15/51/47 20/24/26 18/48/29
f 16/49/48 18/26/30 24/47/32 13/42/49
s off
f 13/22/50 14/46/51 25/44/52
