# This file uses centimeters as units for non-parametric coordinates.

mtllib LightSwitch.mtl
g default
v -0.022189 0.106424 0.007974
v 0.000000 0.128612 0.007974
v -0.031380 0.128612 0.007974
v 0.000000 0.097233 0.007974
v -0.022189 0.150801 0.007974
v 0.022189 0.106424 0.007974
v 0.000000 0.159992 0.007974
v 0.031380 0.128612 0.007974
v 0.022189 0.150801 0.007974
v -0.031380 0.128612 0.024136
v -0.022189 0.106424 0.024136
v 0.000000 0.097233 0.024136
v -0.242642 0.000000 -0.056634
v -0.215272 0.028606 0.024136
v -0.215272 0.718758 0.024136
v -0.242642 0.747364 -0.056634
v -0.022189 0.150801 0.024136
v 0.022189 0.106424 0.024136
v 0.000000 0.159992 0.024136
v 0.031380 0.128612 0.024136
v 0.022189 0.150801 0.024136
v 0.242642 0.747364 -0.056634
v 0.242642 0.000000 -0.056634
v -0.022189 0.611876 0.007974
v 0.000000 0.634065 0.007974
v -0.031380 0.634065 0.007974
v 0.000000 0.602685 0.007974
v -0.022189 0.656254 0.007974
v 0.022189 0.611876 0.007974
v 0.000000 0.665445 0.007974
v 0.031380 0.634065 0.007974
v 0.022189 0.656254 0.007974
v 0.215272 0.028606 0.024136
v 0.215272 0.718758 0.024136
v -0.031380 0.634065 0.024136
v -0.022189 0.611876 0.024136
v 0.000000 0.602685 0.024136
v -0.022189 0.656254 0.024136
v 0.022189 0.611876 0.024136
v 0.000000 0.665445 0.024136
v 0.031380 0.634065 0.024136
v 0.022189 0.656254 0.024136
v -0.077578 0.257012 0.086022
v 0.077578 0.257012 0.086022
v -0.077578 0.490741 0.024136
v 0.077578 0.490741 0.024136
v -0.077578 0.257012 0.024136
v 0.077578 0.257012 0.024136
v -0.077578 0.370057 0.043883
v 0.077578 0.370057 0.043883
vt 0.072880 0.683243
vt 0.072880 0.714157
vt 0.051025 0.692293
vt 0.094737 0.692306
vt 0.041966 0.714139
vt 0.103788 0.714172
vt 0.051004 0.735995
vt 0.094723 0.736030
vt 0.072853 0.745066
vt 0.627795 0.203973
vt 0.650350 0.213288
vt 0.659712 0.235823
vt 0.018847 0.005836
vt 0.830650 0.041449
vt 0.027976 0.017758
vt 0.060257 0.973624
vt 0.026514 0.714950
vt 0.650397 0.258378
vt 0.040642 0.747487
vt 0.627862 0.267741
vt 0.073644 0.760517
vt 0.553336 0.973943
vt 0.030755 0.463403
vt 0.069263 0.788368
vt 0.069263 0.819281
vt 0.047407 0.797417
vt 0.091119 0.797430
vt 0.038348 0.819264
vt 0.100170 0.819297
vt 0.047386 0.841120
vt 0.091105 0.841155
vt 0.069235 0.850190
vt 0.729671 0.454480
vt 0.525582 0.886862
vt 0.114225 0.204513
vt 0.136780 0.213828
vt 0.146142 0.236363
vt 0.022896 0.820074
vt 0.136827 0.258918
vt 0.037024 0.852611
vt 0.114292 0.268280
vt 0.070026 0.865641
vt 0.018847 0.005836
vt 0.026752 0.650451
vt 0.018847 0.005836
vt 0.018847 0.005836
vt 0.790122 0.463403
vt 0.916303 0.506980
vt 0.786119 0.650451
vt 0.917797 0.013903
vt 0.055818 0.563799
vt 0.729211 0.017021
vt 0.059821 0.550054
vt 0.829325 0.478906
vt 0.757054 0.563799
vt 0.088123 0.886580
vt 0.761056 0.550055
vt 0.028436 0.455217
vt 0.102594 0.851517
vt 0.091737 0.258966
vt 0.082375 0.236430
vt 0.115618 0.818480
vt 0.091690 0.213875
vt 0.101462 0.785925
vt 0.035902 0.787071
vt 0.068440 0.772918
vt 0.106213 0.746393
vt 0.605307 0.258426
vt 0.595945 0.235891
vt 0.119236 0.713355
vt 0.605259 0.213336
vt 0.105080 0.680801
vt 0.039519 0.681947
vt 0.072058 0.667793
vt 0.749438 0.891049
vt 0.920032 0.887440
vt 0.913282 0.977651
vt 0.757618 0.977915
vt 0.466854 0.666881
vt 0.660345 0.666881
vt 0.660345 0.860373
vt 0.466854 0.860373
vt 0.753678 0.682676
vt 0.912824 0.682397
vt 0.912161 0.784626
vt 0.755134 0.784626
vt 0.987467 0.835808
vt 0.680994 0.840960
vn -0.000000 0.000000 1.000000
vn 0.000000 0.000000 1.000000
vn 0.000000 0.000000 1.000000
vn 0.000000 0.000000 1.000000
vn -0.000000 0.000000 1.000000
vn 0.000000 0.000000 1.000000
vn 0.000000 0.000000 1.000000
vn 0.000000 0.000000 1.000000
vn 0.000000 0.000000 1.000000
vn 0.923880 0.382683 0.000000
vn 0.923880 0.382683 0.000000
vn 0.923880 0.382683 0.000000
vn 0.923880 0.382683 0.000000
vn 0.382683 0.923880 0.000000
vn 0.382683 0.923880 0.000000
vn 0.382683 0.923880 0.000000
vn 0.382683 0.923880 0.000000
vn -0.947100 0.000000 0.320938
vn -0.947100 0.000000 0.320938
vn -0.947100 0.000000 0.320938
vn -0.947100 0.000000 0.320937
vn 0.923880 -0.382683 0.000000
vn 0.923880 -0.382683 0.000000
vn 0.923880 -0.382683 0.000000
vn 0.923880 -0.382683 0.000000
vn -0.382683 0.923880 0.000000
vn -0.382683 0.923880 0.000000
vn -0.382683 0.923880 0.000000
vn -0.382683 0.923880 0.000000
vn 0.382683 -0.923880 0.000000
vn 0.382683 -0.923880 0.000000
vn 0.382683 -0.923880 0.000000
vn 0.382683 -0.923880 0.000000
vn -0.923880 0.382683 0.000000
vn -0.923880 0.382683 0.000000
vn -0.923880 0.382683 0.000000
vn -0.923880 0.382683 0.000000
vn -0.382683 -0.923880 0.000000
vn -0.382683 -0.923880 0.000000
vn -0.382683 -0.923880 0.000000
vn -0.382683 -0.923880 0.000000
vn -0.923880 -0.382684 0.000000
vn -0.923880 -0.382684 0.000000
vn -0.923880 -0.382684 0.000000
vn -0.923880 -0.382684 0.000000
vn 0.000000 0.000000 -1.000000
vn 0.000000 0.000000 -1.000000
vn 0.000000 0.000000 -1.000000
vn 0.000000 0.000000 -1.000000
vn -0.000000 0.000000 1.000000
vn 0.000000 0.000000 1.000000
vn 0.000000 0.000000 1.000000
vn 0.000000 0.000000 1.000000
vn -0.000000 0.000000 1.000000
vn 0.000000 0.000000 1.000000
vn 0.000000 0.000000 1.000000
vn 0.000000 0.000000 1.000000
vn 0.000000 0.000000 1.000000
vn 0.947100 0.000000 0.320938
vn 0.947100 0.000000 0.320938
vn 0.947100 0.000000 0.320938
vn 0.947100 0.000000 0.320938
vn 0.923880 0.382683 0.000000
vn 0.923880 0.382683 0.000000
vn 0.923880 0.382683 0.000000
vn 0.923880 0.382683 0.000000
vn 0.382682 0.923880 0.000000
vn 0.382682 0.923880 0.000000
vn 0.382682 0.923880 0.000000
vn 0.382682 0.923880 0.000000
vn 0.923880 -0.382683 0.000000
vn 0.923880 -0.382683 0.000000
vn 0.923880 -0.382683 0.000000
vn 0.923880 -0.382683 0.000000
vn -0.382682 0.923880 0.000000
vn -0.382682 0.923880 0.000000
vn -0.382682 0.923880 0.000000
vn -0.382682 0.923880 0.000000
vn 0.382682 -0.923880 0.000000
vn 0.382682 -0.923880 0.000000
vn 0.382682 -0.923880 0.000000
vn 0.382682 -0.923880 0.000000
vn -0.923880 0.382683 0.000000
vn -0.923880 0.382683 0.000000
vn -0.923880 0.382683 0.000000
vn -0.923880 0.382683 0.000000
vn -0.382682 -0.923880 0.000000
vn -0.382682 -0.923880 0.000000
vn -0.382682 -0.923880 0.000000
vn -0.382682 -0.923880 0.000000
vn -0.923880 -0.382683 0.000000
vn -0.923880 -0.382683 0.000000
vn -0.923880 -0.382683 0.000000
vn -0.923880 -0.382683 0.000000
vn 0.000000 0.942628 0.333846
vn 0.000000 0.942628 0.333846
vn 0.000000 0.942628 0.333846
vn 0.000000 0.942628 0.333846
vn -0.000000 0.000000 1.000000
vn -0.000000 0.000000 1.000000
vn -0.000000 0.000000 1.000000
vn -0.000000 0.000000 1.000000
vn -0.000000 0.000000 1.000000
vn -0.000000 0.000000 1.000000
vn -0.000000 0.000000 1.000000
vn 0.000000 0.000000 1.000000
vn -0.000000 0.000000 1.000000
vn -0.000000 0.000000 1.000000
vn 0.000000 0.000000 1.000000
vn 0.000000 0.000000 1.000000
vn 0.000000 0.000000 1.000000
vn 0.000000 0.000000 1.000000
vn 0.000000 0.000000 1.000000
vn 0.000000 0.000000 1.000000
vn 0.000000 0.000000 1.000000
vn 0.000000 0.000000 1.000000
vn 0.000000 0.000000 1.000000
vn 0.000000 0.000000 1.000000
vn 0.000000 -0.942628 0.333846
vn 0.000000 -0.942628 0.333846
vn 0.000000 -0.942628 0.333846
vn 0.000000 -0.942628 0.333846
vn 0.000000 0.255954 0.966689
vn 0.000000 0.255954 0.966689
vn 0.000000 0.161474 0.986877
vn 0.000000 0.161474 0.986877
vn 0.000000 0.000000 -1.000000
vn 0.000000 0.000000 -1.000000
vn 0.000000 0.000000 -1.000000
vn 0.000000 0.000000 -1.000000
vn 0.000000 -1.000000 0.000000
vn 0.000000 -1.000000 0.000000
vn 0.000000 -1.000000 0.000000
vn 0.000000 -1.000000 0.000000
vn 1.000000 0.000000 0.000000
vn 1.000000 0.000000 0.000000
vn 1.000000 0.000000 0.000000
vn -1.000000 -0.000000 0.000000
vn -1.000000 -0.000000 0.000000
vn -1.000000 -0.000000 0.000000
vn 0.000000 0.349284 0.937017
vn 0.000000 0.349284 0.937017
vn 1.000000 0.000000 0.000000
vn -1.000000 0.000000 0.000000
s 1
g LightSwitch
usemtl initialShadingGroup
f 1/1/1 2/2/2 3/3/3
f 4/4/4 2/2/2 1/1/1
f 3/3/3 2/2/2 5/5/5
f 6/6/6 2/2/2 4/4/4
f 5/5/5 2/2/2 7/7/7
f 8/8/8 2/2/2 6/6/6
f 7/7/7 2/2/2 9/9/9
f 9/9/9 2/2/2 8/8/8
s off
f 10/73/10 11/74/11 1/1/12 3/3/13
f 11/74/14 12/72/15 4/4/16 1/1/17
f 13/44/18 14/51/19 15/55/20 16/49/21
f 17/17/22 10/73/23 3/3/24 5/5/25
f 12/72/26 18/70/27 6/6/28 4/4/29
f 19/19/30 17/17/31 5/5/32 7/7/33
f 18/70/34 20/67/35 8/8/36 6/6/37
f 21/21/38 19/19/39 7/7/40 9/9/41
f 20/67/42 21/21/43 9/9/44 8/8/45
f 16/46/46 22/45/47 23/43/48 13/13/49
s 2
f 24/24/50 25/25/51 26/26/52
f 27/27/53 25/25/51 24/24/50
f 26/26/52 25/25/51 28/28/54
f 29/29/55 25/25/51 27/27/53
f 28/28/54 25/25/51 30/30/56
f 31/31/57 25/25/51 29/29/55
f 30/30/56 25/25/51 32/32/58
f 32/32/58 25/25/51 31/31/57
s off
f 33/53/59 23/23/60 22/47/61 34/57/62
f 35/65/63 36/66/64 24/24/65 26/26/66
f 36/66/67 37/64/68 27/27/69 24/24/70
f 38/38/71 35/65/72 26/26/73 28/28/74
f 37/64/75 39/62/76 29/29/77 27/27/78
f 40/40/79 38/38/80 28/28/81 30/30/82
f 39/62/83 41/59/84 31/31/85 29/29/86
f 42/42/87 40/40/88 30/30/89 32/32/90
f 41/59/91 42/42/92 32/32/93 31/31/94
f 15/56/95 34/34/96 22/22/97 16/16/98
s 3
f 20/20/99 18/18/100 12/12/101 11/11/102 10/10/103 14/52/104 33/33/105 41/41/106 39/39/107 37/37/108
f 14/52/104 10/10/103 17/71/109 19/69/110 21/68/111 20/20/99 37/37/108 36/36/112 35/35/113 15/15/114
f 33/33/105 34/58/115 15/15/114 35/35/113 38/63/116 40/61/117 42/60/118 41/41/106
s off
f 13/50/119 23/48/120 33/54/121 14/14/122
s 4
f 49/75/123 50/76/124 46/77/125 45/78/126
s off
f 45/79/127 46/80/128 48/81/129 47/82/130
f 47/83/131 48/84/132 44/85/133 43/86/134
s 5
f 50/76/135 48/87/136 46/77/137
s 6
f 47/88/138 43/86/139 49/75/140
s 4
f 43/86/141 44/85/142 50/76/124 49/75/123
s 5
f 44/85/143 48/87/136 50/76/135
s 6
f 47/88/138 49/75/140 45/78/144
