# This file uses centimeters as units for non-parametric coordinates.

mtllib MirrorFix.mtl
g default
v -0.706737 0.000000 0.040382
v -0.667161 0.000000 0.040382
v -0.302046 2.173295 0.040382
v -0.284992 2.046606 0.040382
v -0.302046 2.173295 -0.040382
v -0.284992 2.046606 -0.040382
v -0.706737 0.000000 -0.040382
v -0.667161 0.000000 -0.040382
v -0.031058 -0.004209 0.455968
v -0.376856 2.547392 0.455968
v -0.376856 2.547392 -0.455968
v -0.031058 -0.004209 -0.455968
v -0.376856 2.547392 0.364774
v -0.031058 -0.004209 0.364774
v -0.031058 -0.004209 -0.373893
v -0.376856 2.547392 -0.373893
v -0.300719 2.452356 0.364774
v -0.362835 2.443938 0.455968
v -0.362835 2.443938 0.364774
v -0.362835 2.443938 -0.373893
v -0.362835 2.443938 -0.455968
v -0.300719 2.452356 -0.373893
v -0.045078 0.099245 0.364774
v -0.045078 0.099245 0.455968
v 0.017038 0.107663 0.364774
v 0.017038 0.107663 -0.373893
v -0.045078 0.099245 -0.455968
v -0.045078 0.099245 -0.373893
v 0.060110 0.113500 0.455968
v -0.257647 2.458193 0.455968
v 0.060110 0.113500 -0.455968
v -0.257647 2.458193 -0.455968
v -0.271668 2.561647 0.455968
v -0.271668 2.561647 0.364774
v -0.271668 2.561647 -0.373893
v -0.271668 2.561647 -0.455968
v 0.074130 0.010046 0.455968
v 0.074130 0.010046 0.364774
v 0.074130 0.010046 -0.373893
v 0.074130 0.010046 -0.455968
v -0.021530 0.102436 -0.373893
v -0.021530 0.102436 0.364774
v -0.339287 2.447129 0.364774
v -0.339287 2.447129 -0.373893
vt 0.380766 0.968495
vt 0.010984 0.021393
vt 0.939588 0.968507
vt 0.908893 0.958406
vt 0.939587 0.988923
vt 0.908892 0.999023
vt 0.000977 0.000978
vt 0.382588 0.938244
vt 0.047383 0.001162
vt 0.658406 0.000977
vt 0.001414 0.045207
vt 0.000977 0.244595
vt 0.658070 0.285396
vt 0.048128 0.285322
vt 0.703725 0.244293
vt 0.705858 0.044764
vt 0.648971 0.046390
vt 0.649001 0.233114
vt 0.050878 0.233210
vt 0.050848 0.046486
vt 0.711770 0.004315
vt 0.900890 0.004632
vt 0.900603 0.607445
vt 0.711487 0.607119
vt 0.014603 0.018160
vt 0.001094 0.913422
vt 0.654005 0.027596
vt 0.026508 0.314744
vt 0.026591 0.912947
vt 0.690099 0.015604
vt 0.905457 0.610789
vt 0.905535 0.001001
vt 0.690860 0.268561
vt 0.213233 0.912768
vt 0.213233 0.314891
vt 0.236672 0.314428
vt 0.052479 0.258696
vt 0.016311 0.270860
vt 0.706911 0.000977
vt 0.706847 0.610755
vt 0.026094 0.941527
vt 0.002654 0.940328
vt 0.234984 0.940093
vt 0.026568 0.238079
vt 0.002546 0.287433
vt 0.679930 0.050511
vt 0.677600 0.238236
vt 0.234959 0.287493
vt 0.259575 0.312757
vt 0.446300 0.312729
vt 0.446392 0.910852
vt 0.259667 0.910881
vt 0.238828 0.312761
vt 0.238824 0.286370
vt 0.469353 0.312725
vt 0.469444 0.910848
vt 0.238920 0.910884
vt 0.469448 0.937239
vt 0.238924 0.937275
vt 0.469348 0.286334
vt 0.259671 0.937271
vt 0.259571 0.286367
vt 0.446296 0.286338
vt 0.446396 0.937243
vt 0.652984 0.258962
vt 0.673970 0.255478
vt 0.213851 0.286321
vt 0.025992 0.286279
vt 0.676699 0.032448
vt 0.000977 0.314275
vt 0.027784 0.050635
vt 0.213874 0.941222
vt 0.029677 0.254008
vt 0.236703 0.913229
vt 0.052534 0.027578
vt 0.031614 0.031238
vt 0.010981 0.000977
vt 0.382597 0.958660
vt 0.380765 0.988911
vt 0.000980 0.021394
vt 0.908883 0.937990
vt 0.382597 0.998747
vn -0.000000 0.000000 1.000000
vn -0.000000 0.000000 1.000000
vn -0.000000 0.000000 1.000000
vn -0.000000 0.000000 1.000000
vn -0.000000 0.000000 -1.000000
vn -0.000000 0.000000 -1.000000
vn -0.000000 0.000000 -1.000000
vn -0.000000 0.000000 -1.000000
vn 0.000003 -1.000000 0.000000
vn 0.000003 -1.000000 0.000000
vn 0.000003 -1.000000 0.000000
vn 0.000003 -1.000000 0.000000
vn 0.983009 -0.183560 0.000000
vn 0.983009 -0.183560 0.000000
vn 0.983009 -0.183560 0.000000
vn 0.983009 -0.183560 0.000000
vn -0.983101 0.183064 0.000000
vn -0.983101 0.183064 0.000000
vn -0.983101 0.183064 0.000000
vn -0.983101 0.183064 0.000000
vn -0.000000 0.000000 1.000000
vn -0.000000 0.000000 1.000000
vn -0.000000 0.000000 1.000000
vn -0.000000 0.000000 1.000000
vn -0.134294 0.990941 0.000000
vn -0.134294 0.990941 0.000000
vn -0.134294 0.990941 0.000000
vn -0.134294 0.990941 0.000000
vn -0.000000 0.000000 -1.000000
vn -0.000000 0.000000 -1.000000
vn -0.000000 0.000000 -1.000000
vn -0.000000 0.000000 -1.000000
vn 0.134295 -0.990941 0.000000
vn 0.134295 -0.990941 0.000000
vn 0.134295 -0.990941 0.000000
vn 0.134295 -0.990941 0.000000
vn 0.990942 0.134294 0.000000
vn 0.990942 0.134294 0.000000
vn 0.990942 0.134294 0.000000
vn 0.990942 0.134294 0.000000
vn -0.990942 -0.134294 0.000000
vn -0.990942 -0.134294 0.000000
vn -0.990942 -0.134294 0.000000
vn -0.990942 -0.134294 0.000000
vn -0.134295 0.990942 0.000000
vn -0.134295 0.990942 0.000000
vn -0.134295 0.990942 0.000000
vn -0.134295 0.990942 0.000000
vn 0.894528 0.121228 -0.430260
vn 0.916332 0.229197 -0.328336
vn 0.944282 0.022957 -0.328336
vn 0.894528 0.121228 -0.430260
vn 0.134295 -0.990942 0.000000
vn 0.134295 -0.990942 0.000000
vn 0.134295 -0.990942 0.000000
vn 0.134295 -0.990942 0.000000
vn -0.990942 -0.134294 0.000000
vn -0.990942 -0.134294 0.000000
vn -0.990942 -0.134294 0.000000
vn -0.990942 -0.134294 0.000000
vn 0.134294 -0.990942 0.000000
vn 0.134294 -0.990942 0.000000
vn 0.134294 -0.990942 0.000000
vn 0.134294 -0.990942 0.000000
vn 0.906349 0.234660 0.351376
vn 0.875717 0.118679 0.468013
vn 0.875717 0.118679 0.468013
vn 0.936113 0.015034 0.351377
vn -0.134295 0.990942 0.000000
vn -0.134295 0.990942 0.000000
vn -0.134295 0.990942 0.000000
vn -0.134295 0.990942 0.000000
vn -0.990941 -0.134294 0.000000
vn -0.990941 -0.134294 0.000000
vn -0.990942 -0.134294 0.000000
vn -0.990941 -0.134294 0.000000
vn 0.966438 -0.256899 0.000000
vn 0.974041 -0.083278 -0.210499
vn -0.000000 0.000000 1.000000
vn -0.000000 0.000000 1.000000
vn -0.000000 0.000000 1.000000
vn -0.000000 0.000000 1.000000
vn -0.990941 -0.134295 0.000000
vn -0.990941 -0.134295 0.000000
vn -0.990941 -0.134295 0.000000
vn -0.990942 -0.134295 0.000000
vn -0.000000 0.000000 -1.000000
vn -0.000000 0.000000 -1.000000
vn -0.000000 0.000000 -1.000000
vn -0.000000 0.000000 -1.000000
vn 0.971216 -0.093715 0.218988
vn 0.966438 -0.256899 0.000000
vn -0.990942 -0.134294 0.000000
vn -0.990942 -0.134294 0.000000
vn -0.000000 0.000000 1.000000
vn -0.000000 0.000000 1.000000
vn -0.000000 0.000000 1.000000
vn -0.000000 0.000000 1.000000
vn 0.916742 0.339520 -0.210499
vn 0.863204 0.504856 0.000000
vn 0.863204 0.504856 0.000000
vn 0.911242 0.348830 0.218989
vn 0.000000 0.000000 -1.000000
vn 0.000000 0.000000 -1.000000
vn 0.000000 0.000000 -1.000000
vn 0.000000 0.000000 -1.000000
vn -0.990942 -0.134294 0.000000
vn -0.990942 -0.134294 0.000000
vn -0.134298 0.990941 0.000000
vn -0.134298 0.990941 0.000000
vn -0.134298 0.990941 0.000000
vn -0.134298 0.990941 0.000000
vn 0.000000 0.000000 -1.000000
vn 0.000000 0.000000 -1.000000
vn 0.000000 0.000000 -1.000000
vn 0.000000 0.000000 -1.000000
vn 0.134303 -0.990940 0.000000
vn 0.134303 -0.990940 0.000000
vn 0.134303 -0.990940 0.000000
vn 0.134303 -0.990940 0.000000
vn -0.000001 0.000000 1.000000
vn -0.000001 0.000000 1.000000
vn -0.000001 0.000000 1.000000
vn -0.000001 0.000000 1.000000
s off
g Mirror
usemtl initialShadingGroup
f 1/1/1 2/78/2 4/4/3 3/3/4
f 5/5/5 6/6/6 8/82/7 7/79/8
f 7/7/9 8/77/10 2/2/11 1/80/12
f 2/78/13 8/8/14 6/81/15 4/4/16
f 7/79/17 1/1/18 3/3/19 5/5/20
f 24/10/21 29/27/22 30/75/23 18/9/24
f 35/44/25 16/12/26 13/11/27 34/71/28
f 31/65/29 27/13/30 21/14/31 32/37/32
f 15/15/33 39/47/34 38/46/35 14/16/36
f 17/20/37 25/17/38 26/18/39 22/19/40
f 41/21/41 42/22/42 43/23/43 44/24/44
f 13/11/45 10/25/46 33/76/47 34/71/48
s 1
f 29/70/49 25/28/50 17/29/51 30/26/52
s off
f 9/30/53 14/16/54 38/46/55 37/69/56
s 2
f 23/50/57 24/55/58 18/56/59 19/51/60
s off
f 15/15/61 12/33/62 40/66/63 39/47/64
s 1
f 26/35/65 31/36/66 32/74/67 22/34/68
s off
f 11/38/69 16/12/70 35/44/71 36/73/72
s 2
f 27/53/73 28/49/74 20/52/75 21/57/76
s 1
f 34/41/77 33/42/78 17/29/51
s off
f 10/25/79 18/9/80 30/75/81 33/76/82
s 2
f 10/58/83 13/64/84 19/51/60 18/56/59
f 13/64/84 16/61/85 20/52/75 19/51/60
f 16/61/85 11/59/86 21/57/76 20/52/75
s off
f 21/14/87 11/38/88 36/73/89 32/37/90
s 1
f 36/43/91 22/34/68 32/74/67
f 22/34/68 35/72/92 34/41/77 17/29/51
s 2
f 24/55/58 23/50/57 14/63/93 9/60/94
s off
f 24/10/95 9/30/96 37/69/97 29/27/98
s 1
f 25/28/50 29/70/49 37/45/99
f 39/67/100 26/35/65 25/28/50 38/68/101
f 40/48/102 26/35/65 39/67/100
s off
f 12/33/103 27/13/104 31/65/105 40/66/106
s 2
f 28/49/74 27/53/73 12/54/107 15/62/108
f 28/49/74 15/62/108 14/63/93 23/50/57
s 1
f 25/28/50 37/45/99 38/68/101
f 31/36/66 26/35/65 40/48/102
f 17/29/51 33/42/78 30/26/52
f 36/43/91 35/72/92 22/34/68
s off
f 41/21/109 28/39/110 23/32/111 42/22/112
f 42/22/113 23/32/114 19/31/115 43/23/116
f 20/40/117 44/24/118 43/23/119 19/31/120
f 28/39/121 41/21/122 44/24/123 20/40/124
