# This file uses centimeters as units for non-parametric coordinates.

mtllib Pot.mtl
g default
v 0.302556 0.296610 -0.125322
v 0.231566 0.296610 -0.231566
v 0.125323 0.296610 -0.302556
v 0.000000 0.296610 -0.327484
v -0.125323 0.296610 -0.302556
v -0.231566 0.296610 -0.231566
v -0.302556 0.296610 -0.125323
v -0.327484 0.296610 -0.000000
v -0.302556 0.296610 0.125323
v -0.231566 0.296610 0.231566
v -0.125323 0.296610 0.302556
v -0.000000 0.296610 0.327484
v 0.125323 0.296610 0.302556
v 0.231566 0.296610 0.231566
v 0.302556 0.296610 0.125323
v 0.327484 0.296610 0.000000
v 0.000000 0.000000 0.000000
v 0.285587 0.296610 -0.118294
v 0.218579 0.296610 -0.218579
v 0.118294 0.296610 -0.285587
v 0.000000 0.296610 -0.309117
v -0.118294 0.296610 -0.285587
v -0.218579 0.296610 -0.218579
v -0.285587 0.296610 -0.118294
v -0.309117 0.296610 -0.000000
v -0.285587 0.296610 0.118294
v -0.218579 0.296610 0.218579
v -0.118294 0.296610 0.285587
v -0.000000 0.296610 0.309117
v 0.118294 0.296610 0.285587
v 0.218579 0.296610 0.218579
v 0.285587 0.296610 0.118294
v 0.309117 0.296610 0.000000
v 0.276392 0.283284 -0.114485
v 0.211541 0.283284 -0.211541
v 0.114485 0.283284 -0.276391
v 0.000000 0.283284 -0.299164
v -0.114485 0.283284 -0.276392
v -0.211541 0.283284 -0.211541
v -0.276391 0.283284 -0.114485
v -0.299164 0.283284 -0.000000
v -0.276392 0.283284 0.114485
v -0.211541 0.283284 0.211541
v -0.114485 0.283284 0.276391
v -0.000000 0.283284 0.299164
v 0.114485 0.283284 0.276392
v 0.211541 0.283284 0.211541
v 0.276391 0.283284 0.114485
v 0.299164 0.283284 0.000000
v 0.276392 0.041168 -0.114485
v 0.211541 0.041168 -0.211541
v 0.000000 0.041168 0.000000
v 0.114485 0.041168 -0.276391
v 0.000000 0.041168 -0.299164
v -0.114485 0.041168 -0.276392
v -0.211541 0.041168 -0.211541
v -0.276391 0.041168 -0.114485
v -0.299164 0.041168 -0.000000
v -0.276392 0.041168 0.114485
v -0.211541 0.041168 0.211541
v -0.114485 0.041168 0.276391
v -0.000000 0.041168 0.299164
v 0.114485 0.041168 0.276392
v 0.211541 0.041168 0.211541
v 0.276391 0.041168 0.114485
v 0.299164 0.041168 0.000000
v 0.302556 0.014829 -0.125322
v 0.288587 0.000000 -0.119536
v 0.231566 0.014829 -0.231566
v 0.220875 0.000000 -0.220875
v 0.125323 0.014829 -0.302556
v 0.119537 0.000000 -0.288587
v 0.000000 0.014829 -0.327484
v 0.000000 0.000000 -0.312364
v -0.125323 0.014829 -0.302556
v -0.119537 0.000000 -0.288587
v -0.231566 0.014829 -0.231566
v -0.220875 0.000000 -0.220875
v -0.302556 0.014829 -0.125323
v -0.288587 0.000000 -0.119537
v -0.327484 0.014829 -0.000000
v -0.312364 0.000000 -0.000000
v -0.302556 0.014829 0.125323
v -0.288587 0.000000 0.119537
v -0.231566 0.014829 0.231566
v -0.220875 0.000000 0.220875
v -0.125323 0.014829 0.302556
v -0.119537 0.000000 0.288587
v -0.000000 0.014829 0.327484
v -0.000000 0.000000 0.312364
v 0.125323 0.014829 0.302556
v 0.119537 0.000000 0.288587
v 0.231566 0.014829 0.231566
v 0.220875 0.000000 0.220875
v 0.302556 0.014829 0.125323
v 0.288587 0.000000 0.119537
v 0.327484 0.014829 0.000000
v 0.312364 0.000000 -0.000000
vt 0.262206 0.894629
vt 0.308790 0.848037
vt 0.333959 0.787216
vt 0.333955 0.721377
vt 0.308717 0.660519
vt 0.262102 0.613984
vt 0.201324 0.588878
vt 0.135545 0.588836
vt 0.074682 0.614021
vt 0.028099 0.660613
vt 0.002930 0.721434
vt 0.002933 0.787273
vt 0.028171 0.848131
vt 0.074787 0.894666
vt 0.135565 0.919772
vt 0.201343 0.919814
vt 0.788640 0.731534
vt 0.137315 0.910996
vt 0.079742 0.887216
vt 0.035609 0.843154
vt 0.011712 0.785536
vt 0.011706 0.723184
vt 0.035541 0.665581
vt 0.079645 0.621468
vt 0.137266 0.597618
vt 0.199574 0.597654
vt 0.257146 0.621434
vt 0.301280 0.665496
vt 0.325176 0.723114
vt 0.325182 0.785466
vt 0.301348 0.843069
vt 0.257244 0.887181
vt 0.199622 0.911032
vt 0.002937 0.325944
vt 0.059696 0.325946
vt 0.116455 0.325947
vt 0.173214 0.325949
vt 0.229973 0.325950
vt 0.286732 0.325952
vt 0.343491 0.325953
vt 0.400250 0.325955
vt 0.457010 0.325957
vt 0.513769 0.325958
vt 0.570528 0.325960
vt 0.627287 0.325961
vt 0.684046 0.325963
vt 0.740805 0.325965
vt 0.797564 0.325966
vt 0.854323 0.325968
vt 0.645972 0.759941
vt 0.059689 0.585912
vt 0.116448 0.585913
vt 0.173207 0.585915
vt 0.229966 0.585916
vt 0.286725 0.585918
vt 0.343484 0.585920
vt 0.400243 0.585921
vt 0.457002 0.585923
vt 0.513761 0.585924
vt 0.570521 0.585926
vt 0.627280 0.585927
vt 0.684039 0.585929
vt 0.740798 0.585931
vt 0.797557 0.585932
vt 0.854316 0.585934
vt 0.002957 0.020409
vt 0.004393 0.002930
vt 0.063656 0.002935
vt 0.995638 0.003019
vt 0.936374 0.003013
vt 0.066525 0.002935
vt 0.125788 0.002941
vt 0.128657 0.002941
vt 0.187920 0.002946
vt 0.190789 0.002946
vt 0.250053 0.002952
vt 0.252921 0.002952
vt 0.312185 0.002957
vt 0.315053 0.002958
vt 0.374317 0.002963
vt 0.377185 0.002963
vt 0.436449 0.002968
vt 0.439317 0.002969
vt 0.498581 0.002974
vt 0.501449 0.002974
vt 0.560713 0.002980
vt 0.563582 0.002980
vt 0.622845 0.002985
vt 0.625714 0.002985
vt 0.684977 0.002991
vt 0.687846 0.002991
vt 0.747109 0.002996
vt 0.749978 0.002997
vt 0.809241 0.003002
vt 0.812110 0.003002
vt 0.871373 0.003008
vt 0.874242 0.003008
vt 0.933506 0.003013
vt 0.065089 0.020414
vt 0.002930 0.322965
vt 0.127221 0.020420
vt 0.065062 0.322970
vt 0.189353 0.020425
vt 0.127194 0.322976
vt 0.251485 0.020431
vt 0.189326 0.322982
vt 0.313617 0.020436
vt 0.251458 0.322987
vt 0.375749 0.020442
vt 0.313590 0.322993
vt 0.437881 0.020448
vt 0.375722 0.322998
vt 0.500014 0.020453
vt 0.437854 0.323004
vt 0.562146 0.020459
vt 0.499986 0.323009
vt 0.624278 0.020464
vt 0.562119 0.323015
vt 0.686410 0.020470
vt 0.624251 0.323021
vt 0.748542 0.020475
vt 0.686383 0.323026
vt 0.810674 0.020481
vt 0.748515 0.323032
vt 0.872806 0.020487
vt 0.810647 0.323037
vt 0.934938 0.020492
vt 0.872779 0.323043
vt 0.997070 0.020498
vt 0.997043 0.323054
vt 0.934911 0.323048
vt 0.639214 0.788479
vt 0.639209 0.707955
vt 0.615967 0.652506
vt 0.572623 0.610554
vt 0.516489 0.588847
vt 0.456729 0.590442
vt 0.402619 0.614466
vt 0.362000 0.656654
vt 0.340270 0.710395
vt 0.339940 0.767887
vt 0.360626 0.821211
vt 0.399309 0.863221
vt 0.450764 0.888272
vt 0.508128 0.892831
vt 0.563632 0.875958
vt 0.491641 0.739023
vt 0.609536 0.839590
vt 0.645972 0.759941
vt 0.667702 0.812375
vt 0.002930 0.585910
vt 0.911075 0.585935
vt 0.707845 0.852502
vt 0.760287 0.874213
vt 0.817046 0.874202
vt 0.869481 0.852472
vt 0.909608 0.812329
vt 0.931319 0.759887
vt 0.931308 0.703128
vt 0.909577 0.650693
vt 0.869435 0.610566
vt 0.816992 0.588855
vt 0.760233 0.588866
vt 0.707799 0.610597
vt 0.667672 0.650739
vt 0.645961 0.703182
vt 0.638354 0.767545
vt 0.196650 0.896262
vt 0.140188 0.896219
vt 0.911082 0.325969
vt 0.248828 0.874686
vt 0.288777 0.834768
vt 0.310403 0.782595
vt 0.310412 0.726113
vt 0.288801 0.673936
vt 0.248870 0.634017
vt 0.196701 0.612431
vt 0.140239 0.612387
vt 0.088060 0.633964
vt 0.048111 0.673882
vt 0.026486 0.726055
vt 0.026476 0.782537
vt 0.048087 0.834714
vt 0.088019 0.874632
vn -0.812728 0.475548 0.336643
vn -0.622035 0.475548 0.622034
vn 0.000000 1.000000 0.000000
vn -0.336643 0.475548 0.812727
vn -0.000000 0.475548 0.879690
vn 0.336642 0.475548 0.812728
vn 0.622034 0.475548 0.622035
vn 0.812727 0.475548 0.336643
vn 0.879690 0.475548 0.000000
vn 0.812728 0.475548 -0.336642
vn 0.622035 0.475548 -0.622035
vn 0.336643 0.475548 -0.812728
vn 0.000000 0.475548 -0.879690
vn -0.336643 0.475548 -0.812728
vn -0.622035 0.475548 -0.622035
vn -0.812728 0.475548 -0.336643
vn -0.879690 0.475548 -0.000000
vn 0.922463 0.055349 -0.382097
vn 0.706023 0.055349 -0.706022
vn -0.262604 0.928482 0.262604
vn -0.343109 0.928482 0.142120
vn 0.382097 0.055349 -0.922463
vn -0.142121 0.928482 0.343109
vn 0.000000 0.055349 -0.998467
vn -0.000000 0.928482 0.371378
vn -0.382096 0.055349 -0.922463
vn 0.142120 0.928482 0.343109
vn -0.706023 0.055349 -0.706023
vn 0.262604 0.928482 0.262604
vn -0.922463 0.055349 -0.382097
vn 0.343109 0.928482 0.142120
vn -0.998467 0.055349 -0.000000
vn 0.371378 0.928482 0.000000
vn -0.922463 0.055349 0.382097
vn 0.343109 0.928482 -0.142120
vn -0.706023 0.055349 0.706023
vn 0.262604 0.928482 -0.262604
vn -0.382097 0.055349 0.922463
vn 0.142120 0.928482 -0.343109
vn 0.000000 0.055349 0.998467
vn 0.000000 0.928482 -0.371378
vn 0.382097 0.055349 0.922463
vn -0.142120 0.928482 -0.343109
vn 0.706023 0.055349 0.706023
vn -0.262604 0.928482 -0.262604
vn 0.922463 0.055349 0.382097
vn -0.343109 0.928482 -0.142120
vn 0.998467 0.055349 0.000000
vn -0.371378 0.928482 -0.000000
vn -0.706474 0.042321 0.706473
vn -0.923052 0.042321 0.382340
vn -0.382341 0.042321 0.923052
vn -0.000000 0.042321 0.999104
vn 0.382340 0.042321 0.923052
vn 0.706473 0.042321 0.706474
vn 0.923052 0.042321 0.382341
vn 0.999104 0.042321 0.000000
vn 0.923052 0.042321 -0.382340
vn 0.706473 0.042321 -0.706473
vn 0.382341 0.042321 -0.923052
vn 0.000000 0.042321 -0.999104
vn -0.382340 0.042321 -0.923052
vn -0.706473 0.042321 -0.706473
vn -0.923052 0.042321 -0.382341
vn -0.999104 0.042321 -0.000001
vn 0.922920 -0.045571 -0.382286
vn 0.098957 -0.994247 -0.040989
vn 0.075739 -0.994247 -0.075739
vn 0.706373 -0.045571 -0.706372
vn 0.998961 -0.045571 0.000000
vn 0.107111 -0.994247 0.000000
vn 0.040990 -0.994247 -0.098957
vn 0.382286 -0.045571 -0.922920
vn 0.000000 -0.994247 -0.107111
vn 0.000000 -0.045571 -0.998961
vn -0.040989 -0.994247 -0.098957
vn -0.382285 -0.045571 -0.922920
vn -0.075739 -0.994247 -0.075739
vn -0.706372 -0.045571 -0.706372
vn -0.098957 -0.994247 -0.040989
vn -0.922920 -0.045571 -0.382286
vn -0.107111 -0.994247 -0.000000
vn -0.998961 -0.045571 -0.000000
vn -0.098957 -0.994247 0.040989
vn -0.922920 -0.045571 0.382286
vn -0.075739 -0.994247 0.075739
vn -0.706372 -0.045571 0.706372
vn -0.040989 -0.994247 0.098957
vn -0.382286 -0.045571 0.922920
vn 0.000000 -0.994247 0.107111
vn 0.000000 -0.045571 0.998961
vn 0.040989 -0.994247 0.098957
vn 0.382286 -0.045571 0.922920
vn 0.075739 -0.994247 0.075739
vn 0.706372 -0.045571 0.706372
vn 0.098957 -0.994247 0.040989
vn 0.922920 -0.045571 0.382286
vn 0.000000 -1.000000 0.000000
s 1
g Pot
usemtl initialShadingGroup
f 50/149/1 51/166/2 52/17/3
f 51/166/2 53/165/4 52/17/3
f 53/165/4 54/164/5 52/17/3
f 54/164/5 55/163/6 52/17/3
f 55/163/6 56/162/7 52/17/3
f 56/162/7 57/161/8 52/17/3
f 57/161/8 58/160/9 52/17/3
f 58/160/9 59/159/10 52/17/3
f 59/159/10 60/158/11 52/17/3
f 60/158/11 61/157/12 52/17/3
f 61/157/12 62/156/13 52/17/3
f 62/156/13 63/155/14 52/17/3
f 63/155/14 64/154/15 52/17/3
f 64/154/15 65/153/16 52/17/3
f 65/153/16 66/150/17 52/17/3
f 66/150/17 50/50/1 52/17/3
f 1/15/18 2/14/19 19/19/20 18/18/21
f 2/14/19 3/13/22 20/20/23 19/19/20
f 3/13/22 4/12/24 21/21/25 20/20/23
f 4/12/24 5/11/26 22/22/27 21/21/25
f 5/11/26 6/10/28 23/23/29 22/22/27
f 6/10/28 7/9/30 24/24/31 23/23/29
f 7/9/30 8/8/32 25/25/33 24/24/31
f 8/8/32 9/7/34 26/26/35 25/25/33
f 9/7/34 10/6/36 27/27/37 26/26/35
f 10/6/36 11/5/38 28/28/39 27/27/37
f 11/5/38 12/4/40 29/29/41 28/28/39
f 12/4/40 13/3/42 30/30/43 29/29/41
f 13/3/42 14/2/44 31/31/45 30/30/43
f 14/2/44 15/1/46 32/32/47 31/31/45
f 15/1/46 16/16/48 33/33/49 32/32/47
f 16/16/48 1/15/18 18/18/21 33/33/49
f 18/18/21 19/19/20 35/184/50 34/169/51
f 19/19/20 20/20/23 36/183/52 35/184/50
f 20/20/23 21/21/25 37/182/53 36/183/52
f 21/21/25 22/22/27 38/181/54 37/182/53
f 22/22/27 23/23/29 39/180/55 38/181/54
f 23/23/29 24/24/31 40/179/56 39/180/55
f 24/24/31 25/25/33 41/178/57 40/179/56
f 25/25/33 26/26/35 42/177/58 41/178/57
f 26/26/35 27/27/37 43/176/59 42/177/58
f 27/27/37 28/28/39 44/175/60 43/176/59
f 28/28/39 29/29/41 45/174/61 44/175/60
f 29/29/41 30/30/43 46/173/62 45/174/61
f 30/30/43 31/31/45 47/172/63 46/173/62
f 31/31/45 32/32/47 48/171/64 47/172/63
f 32/32/47 33/33/49 49/168/65 48/171/64
f 33/33/49 18/18/21 34/169/51 49/168/65
f 34/34/51 35/35/50 51/51/2 50/151/1
f 35/35/50 36/36/52 53/52/4 51/51/2
f 36/36/52 37/37/53 54/53/5 53/52/4
f 37/37/53 38/38/54 55/54/6 54/53/5
f 38/38/54 39/39/55 56/55/7 55/54/6
f 39/39/55 40/40/56 57/56/8 56/55/7
f 40/40/56 41/41/57 58/57/9 57/56/8
f 41/41/57 42/42/58 59/58/10 58/57/9
f 42/42/58 43/43/59 60/59/11 59/58/10
f 43/43/59 44/44/60 61/60/12 60/59/11
f 44/44/60 45/45/61 62/61/13 61/60/12
f 45/45/61 46/46/62 63/62/14 62/61/13
f 46/46/62 47/47/63 64/63/15 63/62/14
f 47/47/63 48/48/64 65/64/16 64/63/15
f 48/48/64 49/49/65 66/65/17 65/64/16
f 49/49/65 34/170/51 50/152/1 66/65/17
f 67/66/66 68/67/67 70/68/68 69/99/69
f 68/69/67 67/129/66 97/127/70 98/70/71
f 69/99/69 70/71/68 72/72/72 71/101/73
f 71/101/73 72/73/72 74/74/74 73/103/75
f 73/103/75 74/75/74 76/76/76 75/105/77
f 75/105/77 76/77/76 78/78/78 77/107/79
f 77/107/79 78/79/78 80/80/80 79/109/81
f 79/109/81 80/81/80 82/82/82 81/111/83
f 81/111/83 82/83/82 84/84/84 83/113/85
f 83/113/85 84/85/84 86/86/86 85/115/87
f 85/115/87 86/87/86 88/88/88 87/117/89
f 87/117/89 88/89/88 90/90/90 89/119/91
f 89/119/91 90/91/90 92/92/92 91/121/93
f 91/121/93 92/93/92 94/94/94 93/123/95
f 93/123/95 94/95/94 96/96/96 95/125/97
f 95/125/97 96/97/96 98/98/71 97/127/70
f 67/66/66 69/99/69 2/102/19 1/100/18
f 69/99/69 71/101/73 3/104/22 2/102/19
f 71/101/73 73/103/75 4/106/24 3/104/22
f 73/103/75 75/105/77 5/108/26 4/106/24
f 75/105/77 77/107/79 6/110/28 5/108/26
f 77/107/79 79/109/81 7/112/30 6/110/28
f 79/109/81 81/111/83 8/114/32 7/112/30
f 81/111/83 83/113/85 9/116/34 8/114/32
f 83/113/85 85/115/87 10/118/36 9/116/34
f 85/115/87 87/117/89 11/120/38 10/118/36
f 87/117/89 89/119/91 12/122/40 11/120/38
f 89/119/91 91/121/93 13/124/42 12/122/40
f 91/121/93 93/123/95 14/126/44 13/124/42
f 93/123/95 95/125/97 15/128/46 14/126/44
f 95/125/97 97/127/70 16/131/48 15/128/46
f 97/127/70 67/129/66 1/130/18 16/131/48
f 70/133/68 68/167/67 17/147/98
f 72/134/72 70/133/68 17/147/98
f 74/135/74 72/134/72 17/147/98
f 76/136/76 74/135/74 17/147/98
f 78/137/78 76/136/76 17/147/98
f 80/138/80 78/137/78 17/147/98
f 82/139/82 80/138/80 17/147/98
f 84/140/84 82/139/82 17/147/98
f 86/141/86 84/140/84 17/147/98
f 88/142/88 86/141/86 17/147/98
f 90/143/90 88/142/88 17/147/98
f 92/144/92 90/143/90 17/147/98
f 94/145/94 92/144/92 17/147/98
f 96/146/96 94/145/94 17/147/98
f 98/148/71 96/146/96 17/147/98
f 68/132/67 98/148/71 17/147/98
