# This file uses centimeters as units for non-parametric coordinates.

mtllib RubbishBin.mtl
g default
v 0.423451 0.000000 -0.244480
v 0.244480 0.000000 -0.423451
v -0.244480 0.000000 -0.423451
v -0.423451 0.000000 -0.244480
v -0.488959 0.000000 0.000000
v -0.423451 0.000000 0.244480
v -0.244480 0.000000 0.423451
v 0.000000 0.000000 0.488959
v 0.244480 0.000000 0.423451
v 0.423451 0.000000 0.244480
v 0.488959 0.000000 0.000000
v 0.000000 0.000000 0.000000
v 0.319220 1.732801 -0.184302
v 0.184302 1.732801 -0.319220
v 0.000000 1.732801 -0.368604
v -0.184302 1.732801 -0.319220
v -0.319220 1.732801 -0.184302
v -0.368604 1.732801 0.000000
v 0.368604 1.732801 0.000000
v 0.162135 1.838130 -0.093608
v 0.093608 1.838130 -0.162135
v 0.000000 1.838130 -0.187217
v -0.093608 1.838130 -0.162135
v -0.162135 1.838130 -0.093608
v -0.187217 1.838130 -0.000000
v 0.187217 1.838130 -0.000000
v 0.000000 1.872479 0.000000
v -0.244480 1.477119 0.423451
v 0.000000 1.477119 0.488959
v 0.244480 1.477119 0.423451
v 0.319220 1.732801 0.184302
v 0.162135 1.838130 0.093608
v 0.093608 1.838130 0.162135
v 0.000000 1.838130 0.187217
v -0.093608 1.838130 0.162135
v -0.162135 1.838130 0.093608
v -0.319220 1.732801 0.184302
v 0.407824 0.034551 -0.235457
v 0.235457 0.034551 -0.407824
v 0.000000 0.034551 -0.470915
v -0.235457 0.034551 -0.407824
v -0.407824 0.034551 -0.235457
v -0.470915 0.034551 0.000000
v -0.407824 0.034551 0.235457
v -0.235457 0.034551 0.407824
v 0.000000 0.034551 0.470915
v 0.235457 0.034551 0.407824
v 0.407824 0.034551 0.235457
v 0.470915 0.034551 0.000000
v 0.407824 1.457158 -0.235457
v 0.235457 1.457158 -0.407824
v 0.000000 1.457158 -0.470915
v -0.235457 1.457158 -0.407824
v -0.407824 1.457158 -0.235457
v -0.470915 1.457158 0.000000
v 0.470915 1.457158 0.000000
v 0.000000 0.034551 0.000000
v 0.307440 1.703404 -0.177500
v 0.177500 1.703404 -0.307440
v 0.000000 1.703404 -0.355001
v -0.177500 1.703404 -0.307440
v -0.307440 1.703404 -0.177500
v -0.355001 1.703404 0.000000
v 0.355001 1.703404 0.000000
v 0.156151 1.804846 -0.090154
v 0.090154 1.804846 -0.156151
v 0.000000 1.804846 -0.180308
v -0.090154 1.804846 -0.156151
v -0.156151 1.804846 -0.090154
v -0.180308 1.804846 -0.000000
v 0.180308 1.804846 -0.000000
v 0.000000 1.837928 0.000000
v -0.407824 1.457158 0.235457
v -0.235457 1.457158 0.407824
v 0.000000 1.457158 0.470915
v 0.235457 1.457158 0.407824
v 0.407824 1.457158 0.235457
v 0.307440 1.703404 0.177500
v 0.156151 1.804846 0.090154
v 0.090154 1.804846 0.156151
v 0.000000 1.804846 0.180308
v -0.090154 1.804846 0.156151
v -0.156151 1.804846 0.090154
v -0.307440 1.703404 0.177500
v -0.348418 1.494634 0.252773
v -0.201160 1.494634 0.400032
v 0.000000 1.494634 0.453932
v 0.201158 1.494634 0.400032
v 0.348418 1.494634 0.252773
v -0.294392 1.718792 0.203259
v 0.294392 1.718792 0.203259
v -0.161288 1.804871 0.128636
v -0.093608 1.804871 0.185019
v 0.000001 1.804871 0.205657
v 0.093608 1.804871 0.185019
v 0.161290 1.804871 0.128636
v 0.423451 1.462136 -0.244480
v 0.408903 1.476779 -0.239861
v 0.417891 1.490758 -0.241269
v 0.244480 1.462136 -0.423451
v 0.236080 1.476779 -0.412684
v 0.241270 1.490758 -0.417891
v 0.000000 1.476779 -0.475942
v 0.000000 1.490758 -0.482539
v -0.244480 1.462136 -0.423451
v -0.236080 1.476779 -0.412685
v -0.241270 1.490758 -0.417891
v -0.423451 1.462136 -0.244480
v -0.408903 1.476779 -0.239861
v -0.417891 1.490758 -0.241270
v -0.488959 1.462136 0.000000
v -0.472161 1.476779 -0.003781
v -0.482539 1.490758 0.000000
v -0.385938 1.485875 0.248626
v -0.417891 1.490758 0.241270
v -0.408903 1.476779 0.232300
v -0.423451 1.462136 0.244480
v -0.396055 1.477119 0.271876
v 0.488959 1.462136 0.000000
v 0.472161 1.476779 -0.003781
v 0.482539 1.490758 0.000000
v 0.385938 1.485875 0.248626
v 0.396055 1.477119 0.271876
v 0.423451 1.462136 0.244480
v 0.408903 1.476779 0.232300
v 0.417891 1.490758 0.241270
v -0.410266 1.477119 0.233087
v 0.410266 1.477119 0.233087
v 0.000000 0.007855 -0.478408
v 0.009795 0.000000 -0.486335
v 0.000000 0.000000 -0.479164
v -0.009795 0.000000 -0.486335
v 0.000000 1.454281 -0.478408
v -0.009795 1.462136 -0.486335
v 0.000000 1.469457 -0.482451
v 0.009796 1.462136 -0.486335
vt 0.842005 0.075693
vt 0.814302 0.027707
vt 0.662923 0.027703
vt 0.635217 0.075688
vt 0.635216 0.131096
vt 0.662919 0.179082
vt 0.710904 0.206788
vt 0.338985 0.678029
vt 0.766312 0.206789
vt 0.285257 0.676685
vt 0.814298 0.179086
vt 0.842004 0.131101
vt 0.738610 0.103395
vt 0.526912 0.137167
vt 0.512542 0.122559
vt 0.532612 0.156121
vt 0.528644 0.175509
vt 0.515719 0.191304
vt 0.496278 0.200026
vt 0.474156 0.199507
vt 0.492002 0.115559
vt 0.469078 0.118562
vt 0.493514 0.158026
vt 0.462328 0.182131
vt 0.457493 0.159411
vt 0.459563 0.136492
vt 0.972251 0.309468
vt 0.302134 0.212125
vt 0.295535 0.259679
vt 0.926035 0.336147
vt 0.296754 0.306812
vt 0.872671 0.336143
vt 0.306100 0.352883
vt 0.826458 0.309458
vt 0.323121 0.397334
vt 0.799780 0.263242
vt 0.346561 0.440273
vt 0.799783 0.209878
vt 0.460304 0.319198
vt 0.826468 0.163665
vt 0.586039 0.000000
vt 0.872685 0.136986
vt 0.533186 0.007370
vt 0.926048 0.136990
vt 0.332419 0.052855
vt 0.972261 0.163675
vt 0.339795 0.105706
vt 0.998940 0.209891
vt 0.315196 0.164306
vt 0.998936 0.263255
vt 0.899360 0.236567
vt 0.355767 0.231473
vt 0.346949 0.265934
vt 0.346708 0.301139
vt 0.354791 0.335198
vt 0.370843 0.366214
vt 0.394510 0.392079
vt 0.460826 0.254148
vt 0.450859 0.064342
vt 0.373415 0.199673
vt 0.392850 0.256968
vt 0.385378 0.275652
vt 0.384421 0.296187
vt 0.389650 0.315924
vt 0.400563 0.332289
vt 0.416330 0.342233
vt 0.456896 0.204279
vt 0.451588 0.114404
vt 0.406979 0.243447
vt 0.420690 0.292026
vt 0.450827 0.185503
vt 0.444322 0.159798
vt 0.447723 0.133726
vt 0.580530 0.009810
vt 0.625685 0.016099
vt 0.348511 0.002187
vt 0.342227 0.047343
vt 0.467298 0.251701
vt 0.457539 0.066606
vt 0.464258 0.204926
vt 0.454765 0.182028
vt 0.449650 0.159644
vt 0.452063 0.137024
vt 0.458819 0.113520
vt 0.373892 0.483560
vt 0.425751 0.410136
vt 0.435341 0.341547
vt 0.451740 0.317741
vt 0.456443 0.289367
vt 0.447584 0.261736
vt 0.427503 0.239860
vt 0.400880 0.172365
vt 0.331300 0.114949
vt 0.331683 0.060717
vt 0.398528 0.589334
vt 0.332569 0.006480
vt 0.385854 0.536560
vt 0.003545 0.336619
vt 0.007931 0.000000
vt 0.079699 0.668899
vt 0.002249 0.162739
vt 0.000001 0.219249
vt 0.004705 0.108487
vt 0.006570 0.054241
vt 0.066352 0.616339
vt 0.052293 0.564004
vt 0.036902 0.509839
vt 0.022616 0.453609
vt 0.011164 0.395634
vt 0.000000 0.277497
vt 0.338592 1.000000
vt 0.395865 0.999831
vt 0.339774 0.000000
vt 0.339265 0.669875
vt 0.576945 0.153329
vt 0.445602 0.000055
vt 0.638893 0.007361
vt 0.471717 0.307925
vt 0.292478 0.667938
vt 0.348529 0.092496
vt 0.535376 0.016107
vt 0.474346 0.250789
vt 0.480282 0.312073
vt 0.386177 0.669646
vt 0.433849 0.665724
vt 0.452981 0.998896
vt 0.392517 0.678790
vt 0.239196 0.670977
vt 0.238469 0.665048
vt 0.246250 0.660362
vt 0.457747 0.011025
vt 0.281513 0.999310
vt 0.488202 0.312694
vt 0.446315 0.680262
vt 0.056531 0.993004
vt 0.121480 0.675625
vt 0.623041 0.991047
vt 0.566714 0.994313
vt 0.509974 0.996986
vt 0.554222 0.675324
vt 0.500181 0.678070
vt 0.225473 0.997874
vt 0.169499 0.996635
vt 0.112978 0.995119
vt 0.175849 0.676812
vt 0.616732 0.089823
vt 0.540586 0.088117
vt 0.633974 0.147659
vt 0.566256 0.116779
vt 0.625416 0.207795
vt 0.593058 0.258776
vt 0.570387 0.190961
vt 0.544544 0.293057
vt 0.547881 0.222621
vt 0.513808 0.243367
vt 0.527280 0.017740
vt 0.464638 0.067297
vt 0.578151 0.044775
vt 0.504864 0.071577
vt 0.230738 0.674158
vt 0.472611 0.008017
vt 0.449049 0.671797
vt 0.440912 0.671874
vt 0.438038 0.677009
vt 0.475911 0.000000
vt 0.465317 0.000028
vt 0.465769 0.006829
vt 0.120944 0.671123
vt 0.581079 0.042656
vt 0.067252 0.668269
vt 0.619923 0.088666
vt 0.637242 0.147364
vt 0.628769 0.208383
vt 0.554597 0.670816
vt 0.596306 0.260396
vt 0.547474 0.295691
vt 0.500712 0.673278
vt 0.446968 0.675284
vt 0.491575 0.315738
vt 0.529562 0.014607
vt 0.174775 0.672061
vt 0.473839 0.004444
vt 0.228425 0.669266
vt 0.446733 0.675530
vt 0.473736 0.004151
vt 0.107336 0.001878
vt 0.710909 0.000000
vt 0.608379 0.667168
vt 0.661366 0.660398
vt 0.067137 0.672546
vt 0.676872 0.987735
vt 0.608576 0.671442
vt 0.002693 0.990501
vt 0.003766 0.003210
vt 0.764097 0.000001
vt 0.104683 0.001728
vt 0.014878 0.666733
vt 0.001021 0.002617
vt 0.104683 0.000000
vt 0.000000 0.988626
vt 0.003251 0.000000
vt 0.102029 0.001878
vt 0.765762 0.002073
vt 0.765762 0.002073
vt 0.768240 0.001111
vt 0.679542 0.985822
vt 0.660696 0.664761
vt 0.663538 0.666319
vt 0.012054 0.668338
vt 0.000000 0.000000
vt 0.013403 0.664430
vt 0.662130 0.662434
vt 0.014132 0.662381
vn -0.857190 -0.137368 0.496342
vn -0.495218 -0.136685 0.857949
vn -0.500537 0.022369 0.865426
vn -0.707067 0.019691 0.706872
vn -0.851517 0.004495 0.524308
vn 0.000000 -0.136632 0.990622
vn -0.000000 0.018227 0.999834
vn 0.495218 -0.136685 0.857949
vn 0.500537 0.022369 0.865426
vn 0.857190 -0.137368 0.496342
vn 0.851517 0.004495 0.524308
vn 0.707067 0.019692 0.706872
vn 0.499715 -0.140715 -0.854684
vn 0.857739 -0.138006 -0.495216
vn 0.000000 -1.000000 0.000000
vn -0.499714 -0.140714 -0.854684
vn -0.226973 -0.229571 -0.946457
vn 0.000000 -1.000000 -0.000476
vn -0.857739 -0.138006 -0.495216
vn -0.990431 -0.138006 0.000000
vn 0.990431 -0.138006 -0.000000
vn 0.708634 0.574849 -0.409130
vn 0.409130 0.574849 -0.708634
vn 0.223674 0.894360 -0.387414
vn 0.387415 0.894360 -0.223674
vn -0.000000 0.574849 -0.818260
vn 0.000000 0.894360 -0.447348
vn -0.409129 0.574849 -0.708634
vn -0.223674 0.894360 -0.387415
vn -0.708634 0.574849 -0.409130
vn -0.387415 0.894360 -0.223674
vn -0.818260 0.574849 0.000000
vn -0.447348 0.894360 0.000000
vn -0.775606 0.571500 0.267999
vn -0.401955 0.900262 0.167213
vn 0.775606 0.571500 0.267999
vn 0.818260 0.574849 -0.000000
vn 0.447348 0.894360 0.000000
vn 0.401956 0.900262 0.167213
vn -0.000000 1.000000 -0.000000
vn -0.221548 0.897582 0.381134
vn -0.000002 0.894463 0.447142
vn 0.221548 0.897583 0.381133
vn -0.857904 0.136632 0.495311
vn -0.864562 -0.058114 0.499155
vn -0.499155 -0.058114 0.864562
vn -0.495311 0.136632 0.857904
vn -0.000000 -0.058114 0.998310
vn 0.000000 0.136632 0.990622
vn 0.499155 -0.058114 0.864562
vn 0.495311 0.136632 0.857904
vn 0.864562 -0.058114 0.499155
vn 0.857904 0.136632 0.495311
vn 0.998310 -0.058114 -0.000000
vn 0.990622 0.136632 0.000000
vn 0.872564 -0.037344 -0.487069
vn 0.857904 0.136633 -0.495311
vn 0.501746 -0.015327 -0.864879
vn 0.495311 0.136632 -0.857904
vn 0.000000 -0.010084 -0.999949
vn 0.000000 0.136632 -0.990622
vn -0.501746 -0.015327 -0.864879
vn -0.495311 0.136632 -0.857904
vn -0.872565 -0.037344 -0.487069
vn -0.857904 0.136633 -0.495311
vn -0.998310 -0.058114 0.000000
vn -0.990622 0.136632 0.000000
vn 0.000000 1.000000 0.000000
vn -0.712481 -0.568473 0.411351
vn -0.411351 -0.568473 0.712481
vn -0.000000 -0.568473 0.822702
vn 0.411351 -0.568473 0.712481
vn 0.712481 -0.568473 0.411351
vn 0.822702 -0.568473 0.000000
vn 0.790209 -0.555979 -0.257794
vn -0.790209 -0.555979 -0.257794
vn -0.822702 -0.568473 -0.000000
vn -0.387415 -0.894360 0.223674
vn -0.223674 -0.894360 0.387415
vn 0.000000 -0.894360 0.447348
vn 0.223674 -0.894360 0.387415
vn 0.387415 -0.894360 0.223674
vn 0.447348 -0.894360 0.000000
vn 0.405016 -0.908845 -0.099814
vn -0.405016 -0.908845 -0.099814
vn -0.447348 -0.894360 -0.000000
vn 0.000000 -1.000000 -0.000000
vn 0.063382 -0.991932 -0.109790
vn -0.000000 -0.991951 -0.126622
vn -0.063382 -0.991932 -0.109790
vn 0.000000 0.761858 -0.647744
vn 0.290261 0.737796 -0.609431
vn -0.290258 0.737794 -0.609434
vn 0.239044 0.675199 0.697828
vn -0.912803 0.285827 -0.291708
vn 0.912806 0.285821 -0.291705
vn 0.807925 -0.511643 0.292366
vn -0.807929 -0.511633 0.292374
vn 0.211478 -0.479640 0.851600
vn -0.424252 -0.125014 0.896873
vn 0.000006 -0.127777 0.991803
vn 0.424255 -0.125015 0.896872
vn -0.211489 -0.479639 0.851598
vn -0.858695 0.374298 0.350063
vn -0.239044 0.675196 0.697831
vn 0.858695 0.374298 0.350063
vn -0.928990 0.370099 0.002171
vn -0.972108 0.232876 -0.027832
vn -0.939594 0.222007 0.260531
vn -0.999951 0.009867 0.000276
vn 0.504824 0.008145 -0.863184
vn 0.866119 0.008817 -0.499760
vn 0.226973 -0.229571 -0.946457
vn 0.233464 0.012238 -0.972288
vn -0.233464 0.012238 -0.972289
vn -0.504824 0.008144 -0.863184
vn -0.866119 0.008817 -0.499760
vn 0.999951 0.009867 0.000275
vn 0.803505 0.375905 -0.461601
vn 0.463465 0.380349 -0.800334
vn 0.000000 0.382025 -0.924152
vn -0.463464 0.380350 -0.800335
vn -0.803504 0.375906 -0.461602
vn 0.928990 0.370099 0.002171
vn 0.828945 0.233003 -0.508488
vn 0.972108 0.232874 -0.027832
vn 0.473305 0.230961 -0.850082
vn -0.000002 0.229178 -0.973385
vn 0.000001 0.659488 -0.751715
vn -0.473301 0.230961 -0.850084
vn -0.828947 0.233003 -0.508484
vn 0.939594 0.222007 0.260531
vn -0.680859 0.608461 0.407685
vn 0.680859 0.608462 0.407684
vn 0.000000 0.000116 -1.000000
vn -0.000000 -0.000564 -1.000000
s 1
g RubbishBin
usemtl initialShadingGroup
f 6/126/1 7/112/2 28/127/3 118/164/4 117/134/5
f 7/112/2 8/111/6 29/8/7 28/127/3
f 8/111/6 9/132/8 30/10/9 29/8/7
f 9/132/8 10/142/10 124/160/11 123/128/12 30/10/9
f 2/2/13 1/1/14 12/13/15
f 3/187/16 132/195/17 131/203/18 12/13/15
f 4/3/19 3/187/16 12/13/15
f 5/4/20 4/3/19 12/13/15
f 6/5/1 5/4/20 12/13/15
f 7/6/2 6/5/1 12/13/15
f 8/7/6 7/6/2 12/13/15
f 9/9/8 8/7/6 12/13/15
f 10/11/10 9/9/8 12/13/15
f 11/12/21 10/11/10 12/13/15
f 1/1/14 11/12/21 12/13/15
f 13/147/22 14/149/23 21/14/24 20/15/25
f 14/149/23 15/115/26 22/16/27 21/14/24
f 15/115/26 16/152/28 23/17/29 22/16/27
f 16/152/28 17/154/30 24/18/31 23/17/29
f 17/154/30 18/155/32 25/19/33 24/18/31
f 18/155/32 37/122/34 36/20/35 25/19/33
f 31/157/36 19/159/37 26/21/38 32/22/39
f 19/159/37 13/147/22 20/15/25 26/21/38
f 20/15/25 21/14/24 27/23/40
f 21/14/24 22/16/27 27/23/40
f 22/16/27 23/17/29 27/23/40
f 23/17/29 24/18/31 27/23/40
f 24/18/31 25/19/33 27/23/40
f 25/19/33 36/20/35 27/23/40
f 36/20/35 35/24/41 27/23/40
f 35/24/41 34/25/42 27/23/40
f 34/25/42 33/26/43 27/23/40
f 33/26/43 32/22/39 27/23/40
f 32/22/39 26/21/38 27/23/40
f 26/21/38 20/15/25 27/23/40
f 38/102/44 50/28/45 51/29/46 39/110/47
f 39/110/47 51/29/46 52/31/48 40/98/49
f 40/98/49 52/31/48 53/33/50 41/109/51
f 41/109/51 53/33/50 54/35/52 42/108/53
f 42/108/53 54/35/52 55/37/54 43/107/55
f 43/107/55 55/37/54 73/85/56 44/106/57
f 44/106/57 73/85/56 74/97/58 45/105/59
f 45/105/59 74/97/58 75/95/60 46/100/61
f 46/99/61 75/96/60 76/94/62 47/104/63
f 47/104/63 76/94/62 77/93/64 48/103/65
f 48/103/65 77/93/64 56/49/66 49/101/67
f 49/101/67 56/49/66 50/28/45 38/102/44
f 39/30/47 57/51/68 38/27/44
f 40/32/49 57/51/68 39/30/47
f 41/34/51 57/51/68 40/32/49
f 42/36/53 57/51/68 41/34/51
f 43/38/55 57/51/68 42/36/53
f 44/40/57 57/51/68 43/38/55
f 45/42/59 57/51/68 44/40/57
f 46/44/61 57/51/68 45/42/59
f 47/46/63 57/51/68 46/44/61
f 48/48/65 57/51/68 47/46/63
f 49/50/67 57/51/68 48/48/65
f 38/27/44 57/51/68 49/50/67
f 50/28/45 58/52/69 59/53/70 51/29/46
f 51/29/46 59/53/70 60/54/71 52/31/48
f 52/31/48 60/54/71 61/55/72 53/33/50
f 53/33/50 61/55/72 62/56/73 54/35/52
f 54/35/52 62/56/73 63/57/74 55/37/54
f 55/37/54 63/57/74 84/86/75 73/85/56
f 77/93/64 78/92/76 64/60/77 56/49/66
f 56/49/66 64/60/77 58/52/69 50/28/45
f 58/52/69 65/61/78 66/62/79 59/53/70
f 59/53/70 66/62/79 67/63/80 60/54/71
f 60/54/71 67/63/80 68/64/81 61/55/72
f 61/55/72 68/64/81 69/65/82 62/56/73
f 62/56/73 69/65/82 70/66/83 63/57/74
f 63/57/74 70/66/83 83/87/84 84/86/75
f 78/92/76 79/91/85 71/69/86 64/60/77
f 64/60/77 71/69/86 65/61/78 58/52/69
f 65/61/78 72/70/87 66/62/79
f 66/62/79 72/70/87 67/63/80
f 67/63/80 72/70/87 68/64/81
f 68/64/81 72/70/87 69/65/82
f 69/65/82 72/70/87 70/66/83
f 70/66/83 72/70/87 83/87/84
f 83/87/84 72/70/87 82/88/88
f 82/88/88 72/70/87 81/89/89
f 81/89/89 72/70/87 80/90/90
f 80/90/90 72/70/87 79/91/85
f 79/91/85 72/70/87 71/69/86
f 71/69/86 72/70/87 65/61/78
f 28/127/3 29/8/7 87/114/91 86/124/92
f 29/8/7 30/10/9 88/119/93 87/114/91
f 30/10/9 123/128/12 122/129/94 89/130/95 88/119/93
f 37/122/34 85/118/96 90/78/97
f 89/131/95 31/157/36 91/79/98
f 36/20/35 37/122/34 90/78/97
f 35/24/41 36/20/35 92/80/99 93/81/100
f 34/25/42 35/24/41 93/81/100 94/82/101
f 33/26/43 34/25/42 94/82/101 95/83/102
f 91/79/98 32/22/39 96/84/103
f 32/22/39 33/26/43 95/83/102 96/84/103
f 37/122/34 115/133/104 114/123/105 85/118/96
f 36/20/35 90/78/97 92/80/99
f 31/157/36 32/22/39 91/79/98
f 74/41/58 73/117/56 85/75/96 86/74/92
f 75/43/60 74/41/58 86/74/92 87/121/91
f 76/45/62 75/113/60 87/76/91 88/77/93
f 77/47/64 76/45/62 88/77/93 89/120/95
f 78/59/76 77/116/64 89/131/95 91/79/98
f 79/68/85 78/59/76 91/79/98 96/84/103
f 80/73/90 79/68/85 96/84/103 95/83/102
f 81/72/89 80/73/90 95/83/102 94/82/101
f 82/71/88 81/72/89 94/82/101 93/81/100
f 83/67/84 82/71/88 93/81/100 92/80/99
f 84/58/75 83/67/84 92/80/99 90/78/97
f 73/39/56 84/58/75 90/78/97 85/118/96
f 114/163/105 118/164/4 28/127/3 86/124/92 85/125/96
f 122/167/94 126/161/106 31/157/36 89/131/95
f 113/153/107 112/176/108 116/179/109 115/133/104
f 112/177/108 111/141/110 117/134/5 116/178/109
f 1/144/14 2/135/13 100/190/111 97/136/112
f 2/135/13 130/193/113 136/197/114 100/190/111
f 134/207/115 132/191/17 3/137/16 105/192/116
f 3/137/16 4/138/19 108/140/117 105/192/116
f 4/138/19 5/139/20 111/141/110 108/140/117
f 5/139/20 6/126/1 117/134/5 111/141/110
f 10/142/10 11/143/21 119/145/118 124/160/11
f 11/143/21 1/144/14 97/136/112 119/145/118
f 99/158/119 102/146/120 14/149/23 13/147/22
f 102/146/120 104/148/121 15/115/26 14/149/23
f 104/148/121 107/150/122 16/152/28 15/115/26
f 107/150/122 110/151/123 17/154/30 16/152/28
f 110/151/123 113/153/107 18/155/32 17/154/30
f 113/153/107 115/133/104 37/122/34 18/155/32
f 126/161/106 121/156/124 19/159/37 31/157/36
f 121/156/124 99/158/119 13/147/22 19/159/37
f 97/136/112 98/168/125 120/181/126 119/145/118
f 98/169/125 99/158/119 121/156/124 120/180/126
f 99/158/119 98/169/125 101/171/127 102/146/120
f 98/168/125 97/136/112 100/190/111 101/170/127
f 102/146/120 101/171/127 103/172/128 104/148/121
f 101/170/127 100/190/111 136/197/114 135/211/129 103/213/128
f 104/148/121 103/172/128 106/173/130 107/150/122
f 103/189/128 135/212/129 134/207/115 105/192/116 106/188/130
f 107/150/122 106/173/130 109/175/131 110/151/123
f 106/188/130 105/192/116 108/140/117 109/174/131
f 110/151/123 109/175/131 112/176/108 113/153/107
f 109/174/131 108/140/117 111/141/110 112/177/108
f 119/145/118 120/181/126 125/183/132 124/160/11
f 120/180/126 121/156/124 126/161/106 125/182/132
f 115/162/104 116/178/109 127/184/133 114/163/105
f 114/163/105 127/184/133 118/164/4
f 118/164/4 127/184/133 116/178/109 117/134/5
f 124/165/11 125/182/132 128/185/134 123/166/12
f 123/166/12 128/185/134 122/167/94
f 122/167/94 128/185/134 125/182/132 126/161/106
f 131/204/18 130/205/113 2/2/13 12/13/15
f 130/193/113 129/200/135 133/209/136 136/197/114
f 129/206/135 132/191/17 134/207/115 133/208/136
f 131/196/18 132/202/17 129/199/135
f 131/196/18 129/199/135 130/186/113
f 135/198/129 136/210/114 133/201/136
f 135/198/129 133/201/136 134/194/115
