# This file uses centimeters as units for non-parametric coordinates.

mtllib Shelf2.mtl
g default
v -1.184523 0.882852 0.297199
v 1.184523 0.882852 0.297199
v -1.184523 0.954975 0.297199
v 1.184523 0.954975 0.297199
v -1.184523 0.954975 -0.297199
v 1.184523 0.954975 -0.297199
v -1.184523 0.882852 -0.297199
v 1.184523 0.882852 -0.297199
v -1.184523 1.692083 0.297199
v 1.184523 1.692083 0.297199
v -1.184523 1.764206 0.297199
v 1.184523 1.764206 0.297199
v -1.184523 1.764206 -0.297199
v 1.184523 1.764206 -0.297199
v -1.184523 1.692083 -0.297199
v 1.184523 1.692083 -0.297199
v -1.184523 2.471763 0.297199
v 1.184523 2.471763 0.297199
v -1.184523 2.543887 0.297199
v 1.184523 2.543887 0.297199
v -1.184523 2.543887 -0.297199
v 1.184523 2.543887 -0.297199
v -1.184523 2.471763 -0.297199
v 1.184523 2.471763 -0.297199
v -1.184523 0.104945 0.297199
v 1.184523 0.104945 0.297199
v -1.184523 0.177069 0.297199
v 1.184523 0.177069 0.297199
v -1.184523 0.177069 -0.297199
v 1.184523 0.177069 -0.297199
v -1.184523 0.104945 -0.297199
v 1.184523 0.104945 -0.297199
v 0.799851 -0.000000 0.366318
v 0.799851 2.636778 0.366318
v 0.722900 -0.000000 0.366318
v 0.722900 2.636778 0.366318
v 0.722900 -0.000000 0.297199
v 0.722900 2.636778 0.297199
v 0.799851 -0.000000 0.297199
v 0.799851 2.636778 0.297199
v 0.799851 0.104945 0.366318
v 0.799851 0.104945 0.297199
v 0.722900 0.104945 0.297199
v 0.722900 0.104945 0.366318
v 0.799851 2.543887 0.366318
v 0.722900 2.543887 0.366318
v 0.722900 2.543887 0.297199
v 0.799851 2.543887 0.297199
v 0.722900 -0.000000 -0.381915
v 0.722900 0.104945 -0.381915
v 0.799851 0.104945 -0.381915
v 0.799851 -0.000000 -0.381915
v 0.722900 2.543887 -0.381915
v 0.799851 2.543887 -0.381915
v 0.722900 2.636778 -0.381915
v 0.799851 2.636778 -0.381915
v 0.722900 2.543887 -0.297199
v 0.722900 2.636778 -0.297199
v 0.799851 2.636778 -0.297199
v 0.799851 2.543887 -0.297199
v 0.722900 -0.000000 -0.297199
v 0.722900 0.104945 -0.297199
v 0.799851 0.104945 -0.297199
v 0.799851 -0.000000 -0.297199
v -0.700807 -0.000000 0.366318
v -0.700807 2.636778 0.366318
v -0.777757 -0.000000 0.366318
v -0.777757 2.636778 0.366318
v -0.777757 -0.000000 0.297199
v -0.777757 2.636778 0.297199
v -0.700807 -0.000000 0.297199
v -0.700807 2.636778 0.297199
v -0.700807 0.104945 0.366318
v -0.700807 0.104945 0.297199
v -0.777757 0.104945 0.297199
v -0.777757 0.104945 0.366318
v -0.700807 2.543887 0.366318
v -0.777757 2.543887 0.366318
v -0.777757 2.543887 0.297199
v -0.700807 2.543887 0.297199
v -0.777757 -0.000000 -0.381915
v -0.777757 0.104945 -0.381915
v -0.700807 0.104945 -0.381915
v -0.700807 -0.000000 -0.381915
v -0.777757 2.543887 -0.381915
v -0.700807 2.543887 -0.381915
v -0.777757 2.636778 -0.381915
v -0.700807 2.636778 -0.381915
v -0.777757 2.543887 -0.297199
v -0.777757 2.636778 -0.297199
v -0.700807 2.636778 -0.297199
v -0.700807 2.543887 -0.297199
v -0.777757 -0.000000 -0.297199
v -0.777757 0.104945 -0.297199
v -0.700807 0.104945 -0.297199
v -0.700807 -0.000000 -0.297199
vt 0.107563 0.107864
vt 0.524591 0.107563
vt 0.107572 0.120560
vt 0.524600 0.120259
vt 0.107648 0.225193
vt 0.629233 0.120183
vt 0.107487 0.003231
vt 0.629224 0.107487
vt 0.107563 0.582499
vt 0.524591 0.582198
vt 0.524600 0.594894
vt 0.107572 0.595195
vt 0.629233 0.594819
vt 0.107648 0.699829
vt 0.629224 0.582123
vt 0.107487 0.477866
vt 0.188473 0.819759
vt 0.605501 0.819457
vt 0.605510 0.832153
vt 0.188482 0.832455
vt 0.710143 0.832078
vt 0.188558 0.937088
vt 0.710134 0.819382
vt 0.188397 0.715125
vt 0.107563 0.345182
vt 0.524591 0.344881
vt 0.524600 0.357577
vt 0.107572 0.357878
vt 0.629233 0.357501
vt 0.107648 0.462511
vt 0.629224 0.344805
vt 0.107487 0.240549
vt 0.530605 0.430203
vt 0.924090 0.002930
vt 0.432263 0.982177
vt 0.762784 0.027010
vt 0.727814 0.426193
vt 0.762784 0.039177
vt 0.971236 0.122475
vt 0.717883 0.871555
vt 0.546957 0.462603
vt 0.758044 0.145805
vt 0.559125 0.476148
vt 0.779136 0.027011
vt 0.561264 0.443707
vt 0.549097 0.443724
vt 0.678357 0.024132
vt 0.678356 0.036299
vt 0.680791 0.429996
vt 0.002930 0.967346
vt 0.892942 0.002931
vt 0.952745 0.002932
vt 0.949383 0.952138
vt 0.906541 0.432262
vt 0.779134 0.158724
vt 0.678670 0.462594
vt 0.665879 0.430017
vt 0.836480 0.425231
vt 0.520053 0.967114
vt 0.665897 0.443562
vt 0.432262 0.952443
vt 0.663758 0.476141
vt 0.758029 0.041172
vt 0.848736 0.871386
vt 0.737631 0.025509
vt 0.888898 0.002930
vt 0.839700 0.381198
vt 0.702979 0.025013
vt 0.851492 0.011311
vt 0.703075 0.037179
vt 0.928122 0.015100
vt 0.839853 0.397622
vt 0.678672 0.459924
vt 0.650150 0.478811
vt 0.666502 0.446381
vt 0.719330 0.024883
vt 0.724091 0.056152
vt 0.724089 0.043985
vt 0.662318 0.408886
vt 0.650151 0.408886
vt 0.737658 0.175696
vt 0.636140 0.004706
vt 0.439141 0.983309
vt 0.946614 0.134643
vt 0.677351 0.370948
vt 0.868474 0.969788
vt 0.720372 0.156592
vt 0.546959 0.459947
vt 0.737655 0.160783
vt 0.659501 0.002930
vt 0.670840 0.020336
vt 0.724109 0.160785
vt 0.659471 0.405839
vt 0.561869 0.446399
vt 0.545517 0.478949
vt 0.674279 0.390784
vt 0.837969 0.862905
vt 0.696828 0.140933
vt 0.741677 0.041175
vt 0.847917 0.417574
vt 0.432261 0.970010
vt 0.729305 0.863872
vt 0.717050 0.417709
vt 0.002930 0.997061
vt 0.695021 0.462593
vt 0.971218 0.002930
vt 0.762782 0.158723
vt 0.699265 0.429971
vt 0.952747 0.017845
vt 0.680810 0.443542
vt 0.678354 0.140933
vt 0.678354 0.155845
vt 0.663757 0.462595
vt 0.758027 0.026260
vt 0.779134 0.143811
vt 0.678670 0.476140
vt 0.559124 0.462602
vt 0.779136 0.039178
vt 0.952762 0.122478
vt 0.561246 0.430161
vt 0.530606 0.476150
vt 0.546958 0.476149
vt 0.924076 0.432262
vt 0.758046 0.157973
vt 0.696830 0.024133
vt 0.002931 0.982240
vt 0.952764 0.134645
vt 0.549078 0.430178
vt 0.949385 0.967051
vt 0.741675 0.026262
vt 0.892995 0.432263
vt 0.762782 0.143811
vt 0.695022 0.476139
vt 0.432262 0.967356
vt 0.741692 0.145808
vt 0.530605 0.462604
vt 0.741694 0.157975
vt 0.910531 0.432262
vt 0.432262 0.984903
vt 0.432261 0.997070
vt 0.971221 0.017842
vt 0.699284 0.443516
vt 0.520051 0.952201
vt 0.002930 0.952434
vt 0.696827 0.155846
vt 0.906487 0.002930
vt 0.002930 0.984894
vt 0.910544 0.002930
vt 0.971238 0.134643
vt 0.530623 0.443749
vt 0.696830 0.036300
vt 0.002930 0.970073
vt 0.530607 0.459950
vt 0.724115 0.194172
vt 0.928140 0.134645
vt 0.671219 0.043054
vt 0.704020 0.156721
vt 0.530605 0.427357
vt 0.737661 0.194169
vt 0.439142 0.969763
vt 0.946611 0.119730
vt 0.724112 0.175698
vt 0.928138 0.119733
vt 0.545517 0.427357
vt 0.545518 0.408884
vt 0.530605 0.408883
vt 0.561872 0.459944
vt 0.530605 0.478969
vt 0.720254 0.141680
vt 0.546957 0.446401
vt 0.666505 0.459926
vt 0.719426 0.037050
vt 0.946595 0.015097
vt 0.836661 0.026234
vt 0.650150 0.427360
vt 0.737637 0.056150
vt 0.695021 0.446376
vt 0.678670 0.446379
vt 0.888958 0.432261
vt 0.662317 0.478795
vt 0.662318 0.427360
vt 0.870299 0.013935
vt 0.875352 0.002932
vt 0.834147 0.042266
vt 0.928120 0.002933
vt 0.724086 0.025511
vt 0.946594 0.002930
vt 0.737635 0.043983
vt 0.545539 0.495301
vt 0.530626 0.495321
vt 0.868473 0.983334
vt 0.703902 0.141809
vt 0.530605 0.446404
vt 0.636415 0.402790
vt 0.650172 0.495163
vt 0.851211 0.414920
vt 0.695024 0.459922
vt 0.662339 0.495147
vt 0.875412 0.432263
vt 0.870256 0.413348
vt 0.605595 0.949483
vt 0.605425 0.714824
vt 0.188567 0.949784
vt 0.083840 0.819834
vt 0.605586 0.936787
vt 0.083849 0.832530
vt 0.524685 0.712223
vt 0.524515 0.477565
vt 0.107657 0.712525
vt 0.002930 0.582575
vt 0.524675 0.699527
vt 0.002939 0.595271
vt 0.524685 0.237588
vt 0.524515 0.002930
vt 0.107657 0.237889
vt 0.002930 0.107940
vt 0.524675 0.224892
vt 0.002939 0.120636
vt 0.524685 0.474906
vt 0.524515 0.240247
vt 0.107657 0.475207
vt 0.002930 0.345257
vt 0.524675 0.462210
vt 0.002939 0.357953
vn 0.000000 0.000000 1.000000
vn 0.000000 0.000000 1.000000
vn 0.000000 0.000000 1.000000
vn 0.000000 0.000000 1.000000
vn 0.000000 1.000000 0.000000
vn 0.000000 1.000000 0.000000
vn 0.000000 1.000000 0.000000
vn 0.000000 1.000000 0.000000
vn 0.000000 0.000000 -1.000000
vn 0.000000 0.000000 -1.000000
vn 0.000000 0.000000 -1.000000
vn 0.000000 0.000000 -1.000000
vn 0.000000 -1.000000 0.000000
vn 0.000000 -1.000000 0.000000
vn 0.000000 -1.000000 0.000000
vn 0.000000 -1.000000 0.000000
vn 1.000000 0.000000 0.000000
vn 1.000000 0.000000 0.000000
vn 1.000000 0.000000 0.000000
vn 1.000000 0.000000 0.000000
vn -1.000000 0.000000 0.000000
vn -1.000000 0.000000 0.000000
vn -1.000000 0.000000 0.000000
vn -1.000000 0.000000 0.000000
vn 0.000000 0.000000 1.000000
vn 0.000000 0.000000 1.000000
vn 0.000000 0.000000 1.000000
vn 0.000000 0.000000 1.000000
vn 0.000000 1.000000 0.000000
vn 0.000000 1.000000 0.000000
vn 0.000000 1.000000 0.000000
vn 0.000000 1.000000 0.000000
vn 0.000000 0.000000 -1.000000
vn 0.000000 0.000000 -1.000000
vn 0.000000 0.000000 -1.000000
vn 0.000000 0.000000 -1.000000
vn 0.000000 -1.000000 0.000000
vn 0.000000 -1.000000 0.000000
vn 0.000000 -1.000000 0.000000
vn 0.000000 -1.000000 0.000000
vn 1.000000 0.000000 0.000000
vn 1.000000 0.000000 0.000000
vn 1.000000 0.000000 0.000000
vn 1.000000 0.000000 0.000000
vn -1.000000 0.000000 0.000000
vn -1.000000 0.000000 0.000000
vn -1.000000 0.000000 0.000000
vn -1.000000 0.000000 0.000000
vn 0.000000 0.000000 1.000000
vn 0.000000 0.000000 1.000000
vn 0.000000 0.000000 1.000000
vn 0.000000 0.000000 1.000000
vn 0.000000 1.000000 0.000000
vn 0.000000 1.000000 0.000000
vn 0.000000 1.000000 0.000000
vn 0.000000 1.000000 0.000000
vn 0.000000 0.000000 -1.000000
vn 0.000000 0.000000 -1.000000
vn 0.000000 0.000000 -1.000000
vn 0.000000 0.000000 -1.000000
vn 0.000000 -1.000000 0.000000
vn 0.000000 -1.000000 0.000000
vn 0.000000 -1.000000 0.000000
vn 0.000000 -1.000000 0.000000
vn 1.000000 0.000000 0.000000
vn 1.000000 0.000000 0.000000
vn 1.000000 0.000000 0.000000
vn 1.000000 0.000000 0.000000
vn -1.000000 0.000000 0.000000
vn -1.000000 0.000000 0.000000
vn -1.000000 0.000000 0.000000
vn -1.000000 0.000000 0.000000
vn 0.000000 0.000000 1.000000
vn 0.000000 0.000000 1.000000
vn 0.000000 0.000000 1.000000
vn 0.000000 0.000000 1.000000
vn 0.000000 1.000000 0.000000
vn 0.000000 1.000000 0.000000
vn 0.000000 1.000000 0.000000
vn 0.000000 1.000000 0.000000
vn 0.000000 0.000000 -1.000000
vn 0.000000 0.000000 -1.000000
vn 0.000000 0.000000 -1.000000
vn 0.000000 0.000000 -1.000000
vn 0.000000 -1.000000 0.000000
vn 0.000000 -1.000000 0.000000
vn 0.000000 -1.000000 0.000000
vn 0.000000 -1.000000 0.000000
vn 1.000000 0.000000 0.000000
vn 1.000000 0.000000 0.000000
vn 1.000000 0.000000 0.000000
vn 1.000000 0.000000 0.000000
vn -1.000000 0.000000 0.000000
vn -1.000000 0.000000 0.000000
vn -1.000000 0.000000 0.000000
vn -1.000000 0.000000 0.000000
vn 0.000000 0.000000 1.000000
vn 0.000000 0.000000 1.000000
vn 0.000000 0.000000 1.000000
vn 0.000000 0.000000 1.000000
vn -1.000000 0.000000 0.000000
vn -1.000000 0.000000 0.000000
vn -1.000000 0.000000 0.000000
vn -1.000000 0.000000 0.000000
vn 0.000000 0.000000 -1.000000
vn 0.000000 0.000000 -1.000000
vn 0.000000 0.000000 -1.000000
vn 0.000000 0.000000 -1.000000
vn 1.000000 0.000000 0.000000
vn 1.000000 0.000000 0.000000
vn 1.000000 0.000000 0.000000
vn 1.000000 0.000000 0.000000
vn 0.000000 1.000000 0.000000
vn 0.000000 1.000000 0.000000
vn 0.000000 1.000000 0.000000
vn 0.000000 1.000000 0.000000
vn 0.000000 -1.000000 0.000000
vn 0.000000 -1.000000 0.000000
vn 0.000000 -1.000000 0.000000
vn 0.000000 -1.000000 0.000000
vn 1.000000 0.000000 0.000000
vn 1.000000 0.000000 0.000000
vn 0.000000 0.000000 -1.000000
vn 0.000000 0.000000 -1.000000
vn 0.000000 0.000000 -1.000000
vn 0.000000 0.000000 -1.000000
vn -1.000000 0.000000 0.000000
vn -1.000000 0.000000 0.000000
vn 0.000000 0.000000 1.000000
vn 0.000000 0.000000 1.000000
vn 0.000000 0.000000 1.000000
vn 0.000000 0.000000 1.000000
vn -1.000000 0.000000 0.000000
vn -1.000000 0.000000 0.000000
vn 0.000000 0.000000 -1.000000
vn 0.000000 0.000000 -1.000000
vn 0.000000 0.000000 -1.000000
vn 0.000000 0.000000 -1.000000
vn 1.000000 0.000000 0.000000
vn 1.000000 0.000000 0.000000
vn -1.000000 0.000000 0.000000
vn -1.000000 0.000000 0.000000
vn -1.000000 0.000000 0.000000
vn -1.000000 0.000000 0.000000
vn 1.000000 0.000000 0.000000
vn 1.000000 0.000000 0.000000
vn 1.000000 0.000000 0.000000
vn 1.000000 0.000000 0.000000
vn 0.000000 -1.000000 0.000000
vn 0.000000 -1.000000 0.000000
vn 0.000000 -1.000000 0.000000
vn 0.000000 -1.000000 0.000000
vn -1.000000 0.000000 0.000000
vn -1.000000 0.000000 0.000000
vn -1.000000 0.000000 0.000000
vn -1.000000 0.000000 0.000000
vn 0.000000 1.000000 0.000000
vn 0.000000 1.000000 0.000000
vn 0.000000 1.000000 0.000000
vn 0.000000 1.000000 0.000000
vn 1.000000 0.000000 0.000000
vn 1.000000 0.000000 0.000000
vn 1.000000 0.000000 0.000000
vn 1.000000 0.000000 0.000000
vn -1.000000 0.000000 0.000000
vn -1.000000 0.000000 0.000000
vn 0.000000 1.000000 0.000000
vn 0.000000 1.000000 0.000000
vn 1.000000 0.000000 0.000000
vn 1.000000 0.000000 0.000000
vn 0.000000 -1.000000 0.000000
vn 0.000000 -1.000000 0.000000
vn 0.000000 -1.000000 0.000000
vn 0.000000 -1.000000 0.000000
vn -1.000000 0.000000 0.000000
vn -1.000000 0.000000 0.000000
vn 0.000000 1.000000 0.000000
vn 0.000000 1.000000 0.000000
vn 0.000000 1.000000 0.000000
vn 0.000000 1.000000 0.000000
vn 1.000000 0.000000 0.000000
vn 1.000000 0.000000 0.000000
vn 0.000000 -1.000000 0.000000
vn 0.000000 -1.000000 0.000000
vn 0.000000 0.000000 1.000000
vn 0.000000 0.000000 1.000000
vn 0.000000 0.000000 1.000000
vn 0.000000 0.000000 1.000000
vn -1.000000 0.000000 0.000000
vn -1.000000 0.000000 0.000000
vn -1.000000 0.000000 0.000000
vn -1.000000 0.000000 0.000000
vn 0.000000 0.000000 -1.000000
vn 0.000000 0.000000 -1.000000
vn 0.000000 0.000000 -1.000000
vn 0.000000 0.000000 -1.000000
vn 1.000000 0.000000 0.000000
vn 1.000000 0.000000 0.000000
vn 1.000000 0.000000 0.000000
vn 1.000000 0.000000 0.000000
vn 0.000000 0.000000 1.000000
vn 0.000000 0.000000 1.000000
vn 0.000000 0.000000 1.000000
vn 0.000000 0.000000 1.000000
vn -1.000000 0.000000 0.000000
vn -1.000000 0.000000 0.000000
vn -1.000000 0.000000 0.000000
vn -1.000000 0.000000 0.000000
vn 0.000000 0.000000 -1.000000
vn 0.000000 0.000000 -1.000000
vn 0.000000 0.000000 -1.000000
vn 0.000000 0.000000 -1.000000
vn 1.000000 0.000000 0.000000
vn 1.000000 0.000000 0.000000
vn 1.000000 0.000000 0.000000
vn 1.000000 0.000000 0.000000
vn 0.000000 1.000000 0.000000
vn 0.000000 1.000000 0.000000
vn 0.000000 1.000000 0.000000
vn 0.000000 1.000000 0.000000
vn 0.000000 -1.000000 0.000000
vn 0.000000 -1.000000 0.000000
vn 0.000000 -1.000000 0.000000
vn 0.000000 -1.000000 0.000000
vn 1.000000 0.000000 0.000000
vn 1.000000 0.000000 0.000000
vn 0.000000 0.000000 -1.000000
vn 0.000000 0.000000 -1.000000
vn 0.000000 0.000000 -1.000000
vn 0.000000 0.000000 -1.000000
vn -1.000000 0.000000 0.000000
vn -1.000000 0.000000 0.000000
vn 0.000000 0.000000 1.000000
vn 0.000000 0.000000 1.000000
vn 0.000000 0.000000 1.000000
vn 0.000000 0.000000 1.000000
vn -1.000000 0.000000 0.000000
vn -1.000000 0.000000 0.000000
vn 0.000000 0.000000 -1.000000
vn 0.000000 0.000000 -1.000000
vn 0.000000 0.000000 -1.000000
vn 0.000000 0.000000 -1.000000
vn 1.000000 0.000000 0.000000
vn 1.000000 0.000000 0.000000
vn -1.000000 0.000000 0.000000
vn -1.000000 0.000000 0.000000
vn -1.000000 0.000000 0.000000
vn -1.000000 0.000000 0.000000
vn 1.000000 0.000000 0.000000
vn 1.000000 0.000000 0.000000
vn 1.000000 0.000000 0.000000
vn 1.000000 0.000000 0.000000
vn 0.000000 -1.000000 0.000000
vn 0.000000 -1.000000 0.000000
vn 0.000000 -1.000000 0.000000
vn 0.000000 -1.000000 0.000000
vn -1.000000 0.000000 0.000000
vn -1.000000 0.000000 0.000000
vn -1.000000 0.000000 0.000000
vn -1.000000 0.000000 0.000000
vn 0.000000 1.000000 0.000000
vn 0.000000 1.000000 0.000000
vn 0.000000 1.000000 0.000000
vn 0.000000 1.000000 0.000000
vn 1.000000 0.000000 0.000000
vn 1.000000 0.000000 0.000000
vn 1.000000 0.000000 0.000000
vn 1.000000 0.000000 0.000000
vn -1.000000 0.000000 0.000000
vn -1.000000 0.000000 0.000000
vn 0.000000 1.000000 0.000000
vn 0.000000 1.000000 0.000000
vn 1.000000 0.000000 0.000000
vn 1.000000 0.000000 0.000000
vn 0.000000 -1.000000 0.000000
vn 0.000000 -1.000000 0.000000
vn 0.000000 -1.000000 0.000000
vn 0.000000 -1.000000 0.000000
vn -1.000000 0.000000 0.000000
vn -1.000000 0.000000 0.000000
vn 0.000000 1.000000 0.000000
vn 0.000000 1.000000 0.000000
vn 0.000000 1.000000 0.000000
vn 0.000000 1.000000 0.000000
vn 1.000000 0.000000 0.000000
vn 1.000000 0.000000 0.000000
vn 0.000000 -1.000000 0.000000
vn 0.000000 -1.000000 0.000000
vn 0.000000 0.000000 1.000000
vn 0.000000 0.000000 1.000000
vn 0.000000 0.000000 1.000000
vn 0.000000 0.000000 1.000000
vn -1.000000 0.000000 0.000000
vn -1.000000 0.000000 0.000000
vn -1.000000 0.000000 0.000000
vn -1.000000 0.000000 0.000000
vn 0.000000 0.000000 -1.000000
vn 0.000000 0.000000 -1.000000
vn 0.000000 0.000000 -1.000000
vn 0.000000 0.000000 -1.000000
vn 1.000000 0.000000 0.000000
vn 1.000000 0.000000 0.000000
vn 1.000000 0.000000 0.000000
vn 1.000000 0.000000 0.000000
s off
g Shelf2
usemtl initialShadingGroup
f 1/1/1 2/2/2 4/4/3 3/3/4
f 3/3/5 4/4/6 6/217/7 5/5/8
f 5/5/9 6/217/10 8/213/11 7/215/12
f 7/7/13 8/214/14 2/2/15 1/1/16
f 2/2/17 8/8/18 6/6/19 4/4/20
f 7/216/21 1/1/22 3/3/23 5/218/24
f 9/9/25 10/10/26 12/11/27 11/12/28
f 11/12/29 12/11/30 14/211/31 13/14/32
f 13/14/33 14/211/34 16/207/35 15/209/36
f 15/16/37 16/208/38 10/10/39 9/9/40
f 10/10/41 16/15/42 14/13/43 12/11/44
f 15/210/45 9/9/46 11/12/47 13/212/48
f 17/17/49 18/18/50 20/19/51 19/20/52
f 19/20/53 20/19/54 22/205/55 21/22/56
f 21/22/57 22/205/58 24/201/59 23/203/60
f 23/24/61 24/202/62 18/18/63 17/17/64
f 18/18/65 24/23/66 22/21/67 20/19/68
f 23/204/69 17/17/70 19/20/71 21/206/72
f 25/25/73 26/26/74 28/27/75 27/28/76
f 27/28/77 28/27/78 30/223/79 29/30/80
f 29/30/81 30/223/82 32/219/83 31/221/84
f 31/32/85 32/220/86 26/26/87 25/25/88
f 26/26/89 32/31/90 30/29/91 28/27/92
f 31/222/93 25/25/94 27/28/95 29/224/96
s 1
f 44/148/97 41/34/98 45/123/99 46/138/100
s 2
f 43/104/101 44/147/102 46/139/103 47/140/104
s off
f 42/103/105 43/37/106 47/102/107 48/40/108
s 3
f 41/126/109 42/152/110 48/101/111 45/35/112
s off
f 34/41/113 40/117/114 38/43/115 36/122/116
f 39/45/117 33/46/118 35/128/119 37/120/120
s 3
f 39/119/121 42/39/110 41/149/109 33/127/122
s off
f 49/49/123 50/108/124 51/142/125 52/110/126
s 2
f 35/47/127 44/125/102 43/151/101 37/48/128
s 1
f 33/46/129 41/150/98 44/33/97 35/128/130
f 46/121/100 45/136/99 34/41/131 36/122/132
s 2
f 47/38/104 46/36/103 36/44/133 38/118/134
s off
f 54/105/135 53/133/136 55/116/137 56/56/138
s 3
f 45/137/112 48/135/111 40/42/139 34/124/140
s 4
f 61/111/141 62/98/142 50/145/143 49/112/144
s 5
f 63/141/145 64/109/146 52/52/147 51/106/148
s 6
f 64/60/149 61/57/150 49/49/151 52/110/152
s 7
f 57/132/153 58/115/154 55/55/155 53/107/156
s 8
f 58/62/157 59/113/158 56/56/159 55/116/160
s 9
f 59/63/161 60/99/162 54/130/163 56/114/164
s 7
f 47/38/165 38/118/166 58/115/154 57/132/153
s 8
f 38/43/167 40/117/168 59/113/158 58/62/157
s 9
f 40/42/169 48/135/170 60/99/162 59/63/161
s off
f 48/40/171 47/102/172 57/97/173 60/64/174
s 4
f 37/48/175 43/151/176 62/98/142 61/111/141
s off
f 43/37/177 42/103/178 63/100/179 62/58/180
s 5
f 42/39/181 39/119/182 64/109/146 63/141/145
s 6
f 39/45/183 37/120/184 61/57/150 64/60/149
s off
f 60/64/185 57/97/186 62/58/187 63/100/188
f 57/61/189 53/134/190 50/50/191 62/144/192
f 53/54/193 54/131/194 51/51/195 50/146/196
f 54/53/197 60/129/198 63/59/199 51/143/200
s 10
f 76/183/201 73/66/202 77/179/203 78/199/204
s 11
f 75/69/205 76/182/206 78/200/207 79/196/208
s off
f 74/174/209 75/69/210 79/196/211 80/72/212
s 12
f 73/184/213 74/174/214 80/72/215 77/67/216
s off
f 66/73/217 72/171/218 70/75/219 68/178/220
f 71/77/221 65/78/222 67/188/223 69/176/224
s 12
f 71/173/225 74/71/214 73/185/213 65/187/226
s off
f 81/81/227 82/159/228 83/154/229 84/162/230
s 11
f 67/79/231 76/181/206 75/175/205 69/80/232
s 10
f 65/78/233 73/186/202 76/65/201 67/188/234
f 78/177/204 77/197/203 66/73/235 68/178/236
s 11
f 79/70/208 78/68/207 68/76/237 70/172/238
s off
f 86/153/239 85/193/240 87/170/241 88/88/242
s 12
f 77/198/216 80/195/215 72/74/243 66/180/244
s 13
f 93/165/245 94/164/246 82/158/247 81/166/248
s 14
f 95/163/249 96/161/250 84/84/251 83/155/252
s 15
f 96/92/253 93/89/254 81/81/255 84/162/256
s 16
f 89/192/257 90/169/258 87/87/259 85/157/260
s 17
f 90/94/261 91/167/262 88/88/263 87/170/264
s 18
f 91/95/265 92/189/266 86/190/267 88/168/268
s 16
f 79/70/269 70/172/270 90/169/258 89/192/257
s 17
f 70/75/271 72/171/272 91/167/262 90/94/261
s 18
f 72/74/273 80/195/274 92/189/266 91/95/265
s off
f 80/72/275 79/196/276 89/93/277 92/96/278
s 13
f 69/80/279 75/175/280 94/164/246 93/165/245
s off
f 75/69/281 74/174/282 95/91/283 94/90/284
s 14
f 74/71/285 71/173/286 96/161/250 95/163/249
s 15
f 71/77/287 69/176/288 93/89/254 96/92/253
s off
f 92/96/289 89/93/290 94/90/291 95/91/292
f 89/93/293 85/194/294 82/82/295 94/90/296
f 85/86/297 86/191/298 83/83/299 82/160/300
f 86/85/301 92/96/302 95/91/303 83/156/304
