# This file uses centimeters as units for non-parametric coordinates.

mtllib Shelf.mtl
g default
v 1.269870 0.699621 0.000000
v 1.766924 0.699621 0.000000
v 1.269870 0.699621 0.102245
v 1.766924 0.699621 0.102245
v 1.269870 0.000000 0.169045
v 1.269870 0.000000 0.000000
v 1.766924 0.000000 0.000000
v 1.766924 0.000000 0.169045
v 1.269870 0.699621 0.631797
v 1.766924 0.699621 0.631797
v 1.766924 0.484709 0.631797
v 1.269870 0.484709 0.631797
v 1.269870 0.070589 0.102245
v 1.269870 0.592165 0.631797
v 1.766924 0.070589 0.102245
v 1.766924 0.592165 0.631797
v 1.766924 0.592165 0.102245
v 1.269870 0.592165 0.102245
v 1.269870 0.592165 0.000000
v 1.766924 0.592165 0.000000
v 1.766924 0.699621 0.730958
v 1.766924 0.585199 0.730958
v 1.269870 0.585199 0.730958
v 1.269870 0.699621 0.000000
v 1.766924 0.699621 0.730958
v 1.766924 0.699621 0.730958
v 1.269870 0.699621 0.730958
v 1.269870 0.699621 0.730958
v 1.269870 0.699621 0.730958
v -1.766924 0.699621 0.000000
v -1.269870 0.699621 0.000000
v -1.766924 0.699621 0.102245
v -1.269870 0.699621 0.102245
v -1.766924 0.000000 0.169045
v -1.766924 0.000000 0.000000
v -1.269870 0.000000 0.000000
v -1.269870 0.000000 0.169045
v -1.766924 0.699621 0.631797
v -1.269870 0.699621 0.631797
v -1.269870 0.484709 0.631797
v -1.766924 0.484709 0.631797
v -1.766924 0.070589 0.102245
v -1.766924 0.592165 0.631797
v -1.269870 0.070589 0.102245
v -1.269870 0.592165 0.631797
v -1.269870 0.592165 0.102245
v -1.766924 0.592165 0.102245
v -1.766924 0.592165 0.000000
v -1.269870 0.592165 0.000000
v -1.269870 0.699621 0.730958
v -1.269870 0.585199 0.730958
v -1.766924 0.585199 0.730958
v -1.766924 0.699621 0.000000
v -1.269870 0.699621 0.730958
v -1.269870 0.699621 0.730958
v -1.766924 0.699621 0.730958
v -1.766924 0.699621 0.730958
v -1.766924 0.699621 0.730958
v -1.766924 0.699621 0.730958
v 1.766924 0.699620 0.730958
v -1.766924 0.782072 0.730958
v 1.766924 0.782072 0.730958
v -1.766924 0.782072 0.000000
v 1.766924 0.782072 0.000000
v 1.766924 0.699620 0.000000
v -1.766924 0.699621 0.730958
v -1.766924 0.699621 -0.000000
v -1.766924 0.699621 0.000000
v -1.766924 0.699621 0.000000
v -1.766924 0.699621 0.730958
vt 0.570583 0.310138
vt 0.570579 0.426391
vt 0.432081 0.426386
vt 0.432085 0.310133
vt 0.968725 0.028690
vt 0.971170 0.202515
vt 0.953018 0.185132
vt 0.945995 0.028556
vt 0.691542 0.190596
vt 0.691535 0.306849
vt 0.658516 0.306847
vt 0.658523 0.190594
vt 0.768952 0.034374
vt 0.747699 0.055354
vt 0.631122 0.038571
vt 0.643003 0.016393
vt 0.619382 0.013807
vt 0.499927 0.044231
vt 0.496453 0.020243
vt 0.973340 0.000000
vt 0.973281 0.236648
vt 0.953953 0.218139
vt 0.848276 0.190606
vt 0.848269 0.306859
vt 0.845488 0.306858
vt 0.816935 0.334205
vt 0.816799 0.311475
vt 0.642974 0.309042
vt 0.660357 0.327192
vt 0.629674 0.190683
vt 0.619275 0.167616
vt 0.748814 0.161739
vt 0.768951 0.184660
vt 0.494274 0.174592
vt 0.500947 0.150284
vt 0.606564 0.190733
vt 0.631741 0.000000
vt 0.595715 0.310139
vt 0.595711 0.426392
vt 0.617334 0.205737
vt 0.769254 0.000000
vt 0.943095 0.000029
vt 0.943076 0.116282
vt 0.769234 0.116253
vt 0.887813 0.190608
vt 0.887806 0.306861
vt 0.473061 0.023691
vt 0.631754 0.306845
vt 0.631762 0.190592
vt 0.471361 0.168756
vt 0.627351 0.326260
vt 0.608841 0.306933
vt 0.312002 0.321991
vt 0.311985 0.438244
vt 0.173487 0.438224
vt 0.173504 0.321971
vt 0.913078 0.144947
vt 0.915523 0.318772
vt 0.897371 0.301389
vt 0.890348 0.144813
vt 0.233275 0.205721
vt 0.233268 0.321974
vt 0.200248 0.321972
vt 0.200256 0.205719
vt 0.471079 0.034376
vt 0.449825 0.055355
vt 0.333248 0.038571
vt 0.345130 0.016394
vt 0.321508 0.013808
vt 0.202053 0.044232
vt 0.198579 0.020244
vt 0.917693 0.116257
vt 0.917634 0.352904
vt 0.898306 0.334395
vt 0.390009 0.205731
vt 0.390002 0.321984
vt 0.848762 0.329656
vt 0.820208 0.357003
vt 0.820072 0.334274
vt 0.646247 0.331841
vt 0.663631 0.349991
vt 0.331800 0.190683
vt 0.321401 0.167617
vt 0.450941 0.161740
vt 0.471078 0.184661
vt 0.196400 0.174593
vt 0.203073 0.150285
vt 0.308690 0.190734
vt 0.333868 0.000000
vt 0.337135 0.321995
vt 0.337117 0.438248
vt 0.319461 0.205738
vt 0.432100 0.193858
vt 0.605942 0.193887
vt 0.605922 0.310140
vt 0.432081 0.310111
vt 0.429546 0.205733
vt 0.429539 0.321987
vt 0.175187 0.023692
vt 0.173487 0.321970
vt 0.173494 0.205717
vt 0.173487 0.168757
vt 0.630625 0.349059
vt 0.612114 0.329732
vt 0.999998 0.476842
vt 0.173487 0.476833
vt 0.173487 0.457549
vt 0.999998 0.457558
vt 0.826511 0.997611
vt 0.000000 0.997499
vt 0.000023 0.826540
vt 0.826534 0.826651
vt 1.000000 0.457463
vt 0.173489 0.457549
vt 0.173487 0.438265
vt 0.999998 0.438179
vt 0.170960 0.000000
vt 0.171098 0.826511
vt 0.000138 0.826540
vt 0.000000 0.000029
vt 0.995843 0.372168
vt 0.824883 0.372186
vt 0.824881 0.352902
vt 0.995841 0.352884
vt 0.994739 0.000000
vt 0.994760 0.170960
vt 0.975476 0.170962
vt 0.975455 0.000002
vn 0.000000 0.000000 -1.000000
vn 0.000000 0.000000 -1.000000
vn 0.000000 0.000000 -1.000000
vn 0.000000 0.000000 -1.000000
vn 1.000000 -0.000000 0.000000
vn 1.000000 0.000000 0.000000
vn 1.000000 0.000000 0.000000
vn 1.000000 -0.000000 0.000000
vn 0.000000 -0.692610 0.721313
vn 0.000000 -0.692610 0.721313
vn 0.000000 -0.702383 0.711799
vn 0.000000 -0.702383 0.711799
vn -1.000000 0.000000 0.000000
vn -1.000000 0.000000 0.000000
vn -1.000000 0.000000 0.000000
vn -1.000000 0.000000 0.000000
vn -1.000000 0.000000 0.000000
vn -1.000000 0.000000 0.000000
vn -1.000000 0.000000 0.000000
vn 1.000000 -0.000000 0.000000
vn 1.000000 0.000000 0.000000
vn 1.000000 0.000000 0.000000
vn 0.000000 -0.690534 0.723300
vn 0.000000 -0.690534 0.723300
vn -1.000000 0.000000 0.000000
vn -1.000000 0.000000 0.000000
vn -1.000000 0.000000 0.000000
vn 1.000000 0.000000 0.000000
vn 1.000000 0.000000 0.000000
vn 1.000000 0.000000 0.000000
vn 1.000000 0.000000 0.000000
vn 1.000000 0.000000 0.000000
vn -1.000000 0.000000 0.000000
vn 0.000000 0.000000 -1.000000
vn 0.000000 0.000000 -1.000000
vn 1.000000 0.000000 0.000000
vn 0.000000 0.712452 -0.701721
vn 0.000000 0.712452 -0.701721
vn 0.000000 0.712452 -0.701721
vn 0.000000 0.712452 -0.701721
vn 0.000000 0.000000 1.000000
vn 0.000000 0.000000 1.000000
vn 0.000000 0.000000 1.000000
vn 0.000000 0.000000 1.000000
vn 0.000000 -1.000000 0.000000
vn 0.000000 -1.000000 0.000000
vn 0.000000 -1.000000 0.000000
vn 0.000000 -1.000000 0.000000
vn 0.000000 -1.000000 0.000000
vn 0.000000 -1.000000 0.000000
vn 0.000000 -1.000000 0.000000
vn 0.000000 -1.000000 0.000000
vn -1.000000 0.000000 0.000000
vn 0.000000 0.000000 1.000000
vn 0.000000 0.000000 1.000000
vn 0.000000 0.000000 1.000000
vn 0.000000 0.000000 1.000000
vn 1.000000 0.000000 0.000000
vn -1.000000 0.000000 0.000000
vn -1.000000 0.000000 0.000000
vn 0.000000 0.000000 -1.000000
vn 0.000000 0.000000 -1.000000
vn 0.000000 0.000000 -1.000000
vn 0.000000 0.000000 -1.000000
vn 1.000000 0.000000 0.000000
vn 1.000000 0.000000 0.000000
vn 1.000000 0.000000 0.000000
vn 1.000000 0.000000 0.000000
vn 0.000000 -0.692610 0.721313
vn 0.000000 -0.692610 0.721313
vn 0.000000 -0.702383 0.711799
vn 0.000000 -0.702383 0.711799
vn -1.000000 -0.000000 0.000000
vn -1.000000 -0.000000 0.000000
vn -1.000000 0.000000 0.000000
vn -1.000000 0.000000 0.000000
vn -1.000000 0.000000 0.000000
vn -1.000000 0.000000 0.000000
vn -1.000000 0.000000 0.000000
vn 1.000000 0.000000 0.000000
vn 1.000000 0.000000 0.000000
vn 1.000000 0.000000 0.000000
vn 0.000000 -0.690534 0.723300
vn 0.000000 -0.690534 0.723300
vn -1.000000 -0.000000 0.000000
vn -1.000000 0.000000 0.000000
vn -1.000000 0.000000 0.000000
vn 1.000000 0.000000 0.000000
vn 1.000000 0.000000 0.000000
vn 1.000000 0.000000 0.000000
vn 1.000000 0.000000 0.000000
vn 1.000000 0.000000 0.000000
vn -1.000000 0.000000 0.000000
vn 0.000000 0.000000 -1.000000
vn 0.000000 0.000000 -1.000000
vn 1.000000 0.000000 0.000000
vn 0.000000 0.712452 -0.701721
vn 0.000000 0.712452 -0.701721
vn 0.000000 0.712452 -0.701721
vn 0.000000 0.712452 -0.701721
vn 0.000000 0.000000 1.000000
vn 0.000000 0.000000 1.000000
vn 0.000000 0.000000 1.000000
vn 0.000000 0.000000 1.000000
vn 0.000000 -1.000000 0.000000
vn 0.000000 -1.000000 0.000000
vn 0.000000 -1.000000 0.000000
vn 0.000000 -1.000000 0.000000
vn 0.000000 -1.000000 0.000000
vn 0.000000 -1.000000 0.000000
vn 0.000000 -1.000000 0.000000
vn 0.000000 -1.000000 0.000000
vn -1.000000 0.000000 0.000000
vn 0.000000 0.000000 1.000000
vn 0.000000 0.000000 1.000000
vn 0.000000 0.000000 1.000000
vn 0.000000 0.000000 1.000000
vn 1.000000 0.000000 0.000000
vn -1.000000 0.000000 0.000000
vn -1.000000 0.000000 0.000000
vn 0.000000 0.000000 1.000000
vn 0.000000 0.000000 1.000000
vn 0.000000 0.000000 1.000000
vn 0.000000 0.000000 1.000000
vn 0.000000 1.000000 0.000000
vn 0.000000 1.000000 0.000000
vn 0.000000 1.000000 0.000000
vn 0.000000 1.000000 0.000000
vn 0.000000 0.000000 -1.000000
vn 0.000000 0.000000 -1.000000
vn 0.000000 0.000000 -1.000000
vn 0.000000 0.000000 -1.000000
vn -0.000000 -1.000000 0.000000
vn -0.000000 -1.000000 0.000000
vn -0.000000 -1.000000 0.000000
vn -0.000000 -1.000000 0.000000
vn 1.000000 0.000000 0.000000
vn 1.000000 0.000000 0.000000
vn 1.000000 0.000000 0.000000
vn 1.000000 0.000000 0.000000
vn -1.000000 -0.000001 0.000000
vn -1.000000 -0.000001 0.000000
vn -1.000000 -0.000001 0.000000
vn -1.000000 -0.000001 0.000000
s 1
g Shelf
usemtl initialShadingGroup
f 19/1/1 20/2/2 7/3/3 6/4/4
s 2
f 15/5/5 16/6/6 11/7/7 8/8/8
s 3
f 12/9/9 11/10/10 22/11/11 23/12/12
s 4
f 6/13/13 13/14/14 18/15/15 19/16/16
f 3/17/17 18/15/15 14/18/18 9/19/19
s 2
f 7/20/20 15/5/5 8/8/8
f 21/21/21 22/22/22 11/7/7 16/6/6
s 3
f 5/23/23 8/24/24 11/10/10 12/9/9
s 4
f 6/25/13 5/26/25 13/27/14
f 14/28/26 13/27/14 5/26/25 12/29/27
s 2
f 20/30/28 17/31/29 15/32/5 7/33/20
f 10/34/30 16/35/31 17/31/29 4/36/32
s 4
f 19/16/16 18/15/15 3/17/17 1/37/33
s 1
f 24/38/34 2/39/35 20/2/2 19/1/1
s 2
f 4/36/32 17/31/29 20/30/28 2/40/36
s off
f 13/41/37 14/42/38 16/43/39 15/44/40
f 18/15/41 13/14/42 15/32/43 17/31/44
f 17/31/45 16/35/46 14/18/47 18/15/48
f 6/45/49 7/46/50 8/24/51 5/23/52
s 4
f 14/18/18 27/47/53 9/19/19
s off
f 26/48/54 29/49/55 23/12/56 22/11/57
s 2
f 25/50/58 16/35/31 10/34/30
s 4
f 23/51/59 28/52/60 14/28/26 12/29/27
s 6
f 48/53/61 49/54/62 36/55/63 35/56/64
s 7
f 44/57/65 45/58/66 40/59/67 37/60/68
s 8
f 41/61/69 40/62/70 51/63/71 52/64/72
s 9
f 35/65/73 42/66/74 47/67/75 48/68/76
f 32/69/77 47/67/75 43/70/78 38/71/79
s 7
f 36/72/80 44/57/65 37/60/68
f 50/73/81 51/74/82 40/59/67 45/58/66
s 8
f 34/75/83 37/76/84 40/62/70 41/61/69
s 9
f 35/77/73 34/78/85 42/79/74
f 43/80/86 42/79/74 34/78/85 41/81/87
s 7
f 49/82/88 46/83/89 44/84/65 36/85/80
f 39/86/90 45/87/91 46/83/89 33/88/92
s 9
f 48/68/76 47/67/75 32/69/77 30/89/93
s 6
f 53/90/94 31/91/95 49/54/62 48/53/61
s 7
f 33/88/92 46/83/89 49/82/88 31/92/96
s off
f 42/93/97 43/94/98 45/95/99 44/96/100
f 47/67/101 42/66/102 44/84/103 46/83/104
f 46/83/105 45/87/106 43/70/107 47/67/108
f 35/97/109 36/98/110 37/76/111 34/75/112
s 9
f 43/70/78 56/99/113 38/71/79
s off
f 55/100/114 58/101/115 52/64/116 51/63/117
s 7
f 54/102/118 45/87/91 39/86/90
s 9
f 52/103/119 57/104/120 43/80/86 41/81/87
s off
f 59/105/121 60/106/122 62/107/123 61/108/124
f 61/109/125 62/110/126 64/111/127 63/112/128
f 63/113/129 64/114/130 65/115/131 69/116/132
f 68/117/133 65/118/134 60/119/135 66/120/136
f 60/121/137 65/122/138 64/123/139 62/124/140
f 67/125/141 70/126/142 61/127/143 63/128/144
