# This file uses centimeters as units for non-parametric coordinates.

mtllib SkirtingRoof.mtl
g default
v -2.500000 -0.161312 0.045442
v 2.500000 -0.161312 0.045442
v -2.500000 0.000000 0.045442
v 2.500000 0.000000 0.045442
v -2.500000 0.000000 -0.037610
v 2.500000 0.000000 -0.037610
v -2.500000 -0.161312 0.008305
v 2.500000 -0.161312 0.008305
vt 0.891075 0.002930
vt 0.666278 0.817593
vt 0.153784 0.819554
vt 0.671867 0.002930
vt 0.002930 0.004355
vt 0.817559 0.940786
vt 0.002936 0.942745
vt 0.667009 0.151661
vt 0.002930 0.996990
vt 0.666691 0.997070
vt 0.804551 0.057340
vt 0.671716 0.124241
vt 0.836829 0.002933
vt 0.769771 0.135689
vt 0.804619 0.003095
vt 0.533525 0.817611
vt 0.817545 0.819474
vt 0.666185 0.153832
vt 0.533433 0.153850
vt 0.891082 0.135682
vt 0.003249 0.153086
vt 0.666697 0.942825
vt 0.153798 0.940866
vt 0.666689 0.002930
vn 0.000000 0.000000 1.000000
vn 0.000000 0.000000 1.000000
vn 0.000000 0.000000 1.000000
vn 0.000000 0.000000 1.000000
vn 0.000000 1.000000 0.000000
vn 0.000000 1.000000 0.000000
vn 0.000000 1.000000 0.000000
vn 0.000000 1.000000 0.000000
vn 0.000000 -0.273760 -0.961798
vn 0.000000 -0.273760 -0.961798
vn 0.000000 -0.273760 -0.961798
vn 0.000000 -0.273760 -0.961798
vn 0.000000 -1.000000 0.000000
vn 0.000000 -1.000000 0.000000
vn 0.000000 -1.000000 0.000000
vn 0.000000 -1.000000 0.000000
vn 1.000000 0.000000 0.000000
vn 1.000000 0.000000 0.000000
vn 1.000000 0.000000 0.000000
vn 1.000000 0.000000 0.000000
vn -1.000000 0.000000 0.000000
vn -1.000000 0.000000 0.000000
vn -1.000000 0.000000 0.000000
vn -1.000000 0.000000 0.000000
s off
g pCube9
usemtl initialShadingGroup
f 1/18/1 2/2/2 4/16/3 3/19/4
f 3/3/5 4/17/6 6/6/7 5/23/8
f 5/5/9 6/24/10 8/8/11 7/21/12
f 7/7/13 8/22/14 2/10/15 1/9/16
f 2/15/17 8/11/18 6/12/19 4/4/20
f 7/13/21 1/1/22 3/20/23 5/14/24
