# This file uses centimeters as units for non-parametric coordinates.

mtllib WallDoor.mtl
g default
v -0.000000 0.077556 1.000000
v -0.000000 0.077556 0.000000
v -0.000000 0.836293 1.000000
v -0.000000 0.836293 0.000000
v -0.000000 0.077556 0.781031
v -0.000000 0.836293 0.781031
v -0.000000 0.077556 0.222493
v -0.000000 0.836293 0.222493
v 0.036381 0.077556 1.000000
v 0.036380 0.077556 0.781031
v 0.036380 0.077556 0.222493
v 0.036380 0.077556 0.000000
v 0.036381 0.000000 1.000000
v 0.036380 0.000000 0.781031
v 0.036380 0.000000 0.222493
v 0.036380 0.000000 0.000000
v 0.050410 1.000000 1.000000
v 0.050410 1.000000 0.781031
v 0.050410 1.000000 0.222493
v -0.000000 0.912320 1.000000
v 0.006542 0.945724 1.000000
v 0.025203 0.974192 1.000000
v -0.000000 0.912320 0.781031
v 0.006542 0.945724 0.781031
v 0.025202 0.974192 0.781031
v -0.000000 0.912320 0.222493
v 0.006542 0.945724 0.222493
v 0.025202 0.974192 0.222493
v 0.025202 0.974192 0.000000
v 0.006542 0.945724 0.000000
v -0.000000 0.912320 0.000000
v 0.050410 1.000000 0.000000
vt 0.014258 0.118598
vt 0.216322 0.118619
vt 0.216250 0.818776
vt 0.014186 0.818756
vt 0.731665 0.818829
vt 0.731737 0.118672
vt 0.937052 0.118693
vt 0.936980 0.818850
vt 0.014262 0.085027
vt 0.216325 0.085048
vt 0.731740 0.085101
vt 0.937055 0.085122
vt 0.014269 0.013458
vt 0.216332 0.013479
vt 0.731748 0.013532
vt 0.937063 0.013553
vt 0.731651 0.951808
vt 0.731654 0.920397
vt 0.936970 0.920418
vt 0.936966 0.951829
vt 0.731658 0.888986
vt 0.936973 0.889007
vt 0.216242 0.888933
vt 0.014179 0.888913
vt 0.014173 0.951734
vt 0.216236 0.951755
vt 0.216233 0.985045
vt 0.014169 0.985025
vt 0.731648 0.985098
vt 0.936963 0.985119
vt 0.014176 0.920323
vt 0.216239 0.920344
vt 0.731658 0.888986
vt 0.936973 0.889007
vt 0.216242 0.888933
vt 0.014179 0.888913
vt 0.731737 0.118672
vt 0.937052 0.118693
vt 0.014258 0.118598
vt 0.216322 0.118619
vn 1.000000 0.000000 0.000000
vn 1.000000 0.000000 0.000000
vn 1.000000 0.000000 0.000000
vn 1.000000 0.000000 0.000000
vn 1.000000 0.000000 0.000000
vn 1.000000 0.000000 0.000000
vn 1.000000 0.000000 0.000000
vn 1.000000 0.000000 0.000000
vn 0.000000 1.000000 -0.000000
vn 0.000000 1.000000 -0.000000
vn 0.000000 1.000000 -0.000000
vn 0.000000 1.000000 -0.000000
vn 0.000000 1.000000 0.000000
vn 0.000000 1.000000 0.000000
vn 0.000000 1.000000 0.000000
vn 0.000000 1.000000 0.000000
vn 1.000000 0.000000 -0.000001
vn 1.000000 0.000000 -0.000001
vn 1.000000 0.000000 -0.000001
vn 1.000000 0.000000 -0.000001
vn 1.000000 0.000000 0.000000
vn 1.000000 0.000000 0.000000
vn 1.000000 0.000000 0.000000
vn 1.000000 0.000000 0.000000
vn 0.777737 -0.628590 0.000000
vn 0.926118 -0.377235 0.000000
vn 0.926118 -0.377233 0.000000
vn 0.777739 -0.628588 0.000000
vn 0.998218 -0.059677 0.000000
vn 0.998218 -0.059678 0.000000
vn 0.998218 -0.059677 0.000000
vn 0.998218 -0.059677 0.000000
vn 0.777737 -0.628589 -0.000001
vn 0.777737 -0.628590 -0.000000
vn 0.715384 -0.698732 -0.000000
vn 0.715382 -0.698733 -0.000001
vn 0.715384 -0.698731 0.000000
vn 0.715384 -0.698732 0.000000
vn 0.926118 -0.377233 -0.000000
vn 0.926118 -0.377235 -0.000000
s 1
g WallDoor
usemtl blinn11SG
f 1/1/1 5/40/2 6/3/3 3/4/4
f 8/5/5 7/6/6 2/38/7 4/8/8
s off
f 5/2/9 1/39/10 9/9/11 10/10/12
f 2/7/13 7/37/14 11/11/15 12/12/16
f 10/10/17 9/9/18 13/13/19 14/14/20
f 12/12/21 11/11/22 15/15/23 16/16/24
s 1
f 28/17/25 27/18/26 30/19/27 29/20/28
f 27/18/26 26/33/29 31/34/30 30/19/27
f 3/4/4 6/3/3 23/23/31 20/36/32
f 23/23/31 6/3/3 8/5/5 26/21/29
f 26/21/29 8/5/5 4/8/8 31/22/30
f 22/25/33 25/26/34 18/27/35 17/28/36
f 25/26/34 28/17/25 19/29/37 18/27/35
f 28/17/25 29/20/28 32/30/38 19/29/37
f 22/25/33 21/31/39 24/32/40 25/26/34
f 21/31/39 20/24/32 23/35/31 24/32/40
f 25/26/34 24/32/40 27/18/26 28/17/25
f 24/32/40 23/35/31 26/33/29 27/18/26
