# This file uses centimeters as units for non-parametric coordinates.

mtllib WallCorner.mtl
g default
v 0.000000 0.077556 1.000000
v 0.000000 0.077556 0.079938
v 0.036381 0.077556 1.000000
v 0.036381 0.077556 0.079939
v 0.036381 0.000000 1.000000
v 0.036381 0.000000 0.079939
v 0.050410 1.000000 1.000000
v 0.000000 0.912320 1.000000
v 0.006542 0.945724 1.000000
v 0.025203 0.974192 1.000000
v 0.006542 0.945724 0.079938
v 0.000000 0.912320 0.079938
v 0.025203 0.974192 0.079939
v 0.050410 1.000000 0.079939
v 0.058458 0.077556 -0.000000
v 1.000000 0.077556 0.000000
v 0.058458 0.077556 0.036381
v 1.000000 0.077556 0.036380
v 0.058458 0.000000 0.036381
v 1.000000 0.000000 0.036380
v 0.058458 1.000000 0.050410
v 0.058458 0.912320 -0.000000
v 0.058458 0.945724 0.006542
v 0.058458 0.974192 0.025203
v 1.000000 0.945724 0.006542
v 1.000000 0.912320 0.000000
v 1.000000 0.974192 0.025202
v 1.000000 1.000000 0.050410
v 0.036898 -0.000000 0.058172
v 0.036898 0.077556 0.058172
v 0.000756 0.077556 0.055400
v 0.000756 0.912320 0.055400
v 0.007256 0.945724 0.055898
v 0.025793 0.974192 0.057320
v 0.050835 1.000000 0.059241
v 0.039254 -0.000000 0.043259
v 0.039254 0.077556 0.043259
v 0.008491 0.077556 0.026515
v 0.008491 0.912320 0.026515
v 0.014023 0.945724 0.029526
v 0.029802 0.974192 0.038115
v 0.051118 1.000000 0.049716
v 0.042490 -0.000000 0.037795
v 0.042490 0.077556 0.037795
v 0.032277 0.077556 0.004415
v 0.032277 0.912320 0.004415
v 0.034113 0.945724 0.010417
v 0.039352 0.974192 0.027538
v 0.046428 1.000000 0.050667
vt 0.419305 0.488814
vt 0.951722 0.022536
vt 0.838020 0.027313
vt 0.000000 0.989272
vt 0.934577 0.487944
vt 0.934577 0.022536
vt 0.895357 0.487944
vt 0.895357 0.022536
vt 0.034134 0.989272
vt 0.034134 0.523551
vt 0.051879 0.523551
vt 0.051879 0.989272
vt 0.017170 0.989272
vt 0.017170 0.523551
vt 0.418716 0.029604
vt 0.894092 0.000000
vt 0.000000 0.501880
vt 0.419305 0.971962
vt 0.878722 0.487058
vt 0.878722 0.000000
vt 0.838610 0.487058
vt 0.838610 0.000000
vt 0.452942 0.971962
vt 0.452942 0.488814
vt 0.470434 0.488814
vt 0.470434 0.971962
vt 0.436495 0.971962
vt 0.436495 0.488814
vt 0.895357 0.011170
vt 0.934577 0.011170
vt 0.419305 0.014999
vt 0.000000 0.511870
vt 0.017170 0.511870
vt 0.034134 0.511870
vt 0.051879 0.511870
vt 0.895357 0.000000
vt 0.878722 0.498663
vt 0.418716 0.000000
vt 0.419305 1.000000
vt 0.436495 1.000000
vt 0.452942 0.984006
vt 0.471540 0.984006
vt 0.838610 0.496178
vt 0.878722 0.496178
vt 0.418716 0.016286
vt 0.419305 0.982476
vt 0.436495 0.982476
vt 0.452942 0.982476
vt 0.470434 0.982476
vt 0.034134 0.501880
vt 0.051879 0.501880
vt 0.017170 0.501880
vt 0.838020 0.000000
vt 0.951722 0.000000
vt 0.934577 0.000000
vt 0.838610 0.498663
vt 0.000000 0.016286
vt 0.000000 0.029604
vt 0.894092 0.496178
vt 0.894092 0.487058
vt 0.000000 0.000000
vt 0.000000 0.501880
vt 0.894092 0.512381
vt 0.419305 0.000000
vt 0.838020 0.014999
vt 0.951722 0.011170
vt 0.419305 0.027313
vt 0.000000 0.523551
vt 0.419305 0.488814
vt 0.418716 0.501880
vt 0.838020 0.488814
vt 0.951722 0.487944
vn 1.000000 0.000000 0.000000
vn 1.000000 0.000000 0.000000
vn 0.999971 -0.007532 0.000799
vn 0.999972 -0.007535 0.000000
vn 0.000000 1.000000 0.000000
vn 0.000000 1.000000 0.000000
vn 0.000000 1.000000 0.000000
vn 0.000000 1.000000 0.000000
vn 1.000000 0.000000 0.000000
vn 1.000000 0.000000 0.000000
vn 1.000000 0.000000 0.000000
vn 1.000000 0.000000 0.000000
vn 0.777736 -0.628592 0.000000
vn 0.777821 -0.628485 0.000482
vn 0.715404 -0.698711 0.000389
vn 0.715385 -0.698731 0.000000
vn 0.926117 -0.377237 0.000000
vn 0.926174 -0.377096 0.000682
vn -0.000000 0.000000 1.000000
vn -0.000000 0.000000 1.000000
vn -0.000000 -0.007536 0.999972
vn 0.004548 -0.007521 0.999961
vn 0.000000 1.000000 0.000000
vn 0.000000 1.000000 0.000000
vn 0.000000 1.000000 0.000000
vn 0.000000 1.000000 0.000000
vn 0.000000 0.000000 1.000000
vn 0.000000 0.000000 1.000000
vn 0.000000 0.000000 1.000000
vn 0.000000 0.000000 1.000000
vn 0.001848 -0.628097 0.778133
vn 0.000000 -0.628589 0.777738
vn 0.000000 -0.698732 0.715384
vn 0.000978 -0.698558 0.715553
vn 0.003486 -0.376596 0.926371
vn 0.000000 -0.377238 0.926117
vn 0.788311 -0.609297 0.085569
vn 0.720417 -0.691582 0.052085
vn 0.925038 -0.355831 0.133000
vn 0.987614 -0.007094 0.156740
vn 0.999526 0.000000 0.030786
vn 0.987605 0.000000 0.156961
vn 0.000000 1.000000 -0.000000
vn 0.000000 1.000000 -0.000000
vn 0.000000 1.000000 -0.000000
vn 0.000000 1.000000 -0.000000
vn 0.999717 0.000000 0.023773
vn 0.999717 0.000000 0.023773
vn 0.996945 0.000000 0.078106
vn 0.996945 0.000000 0.078106
vn 0.964349 0.000000 0.264634
vn 0.964349 0.000000 0.264634
vn 0.000000 1.000000 -0.000000
vn 0.000000 1.000000 -0.000000
vn 0.850573 0.000000 0.525858
vn 0.850757 -0.006598 0.525518
vn 0.817341 -0.328258 0.473498
vn 0.745366 -0.574275 0.338583
vn 0.724264 -0.673530 0.147648
vn 0.337207 0.000000 0.941431
vn 0.337207 0.000000 0.941431
vn 0.000000 1.000000 0.000000
vn 0.000000 1.000000 0.000000
vn 0.468747 0.000000 0.883332
vn 0.468408 -0.006653 0.883487
vn 0.426748 -0.333119 0.840784
vn 0.335124 -0.590911 0.733837
vn 0.217968 -0.707111 0.672669
vn 0.088201 0.000000 0.996103
vn 0.088201 0.000000 0.996103
vn 0.000000 1.000000 0.000000
vn 0.000000 1.000000 0.000000
vn 0.166284 0.000000 0.986078
s 1
g WallCorner
usemtl blinn7SG
f 1/1/1 2/67/2 12/3/3 8/71/4
s off
f 2/2/5 1/72/6 3/5/7 4/6/8
f 4/6/9 3/5/10 5/7/11 6/8/12
s 1
f 10/9/13 13/10/14 14/11/15 7/12/16
f 10/9/13 9/13/17 11/14/18 13/10/14
f 9/13/17 8/4/4 12/68/3 11/14/18
f 15/15/19 16/70/20 26/17/21 22/58/22
s off
f 16/16/23 15/60/24 17/19/25 18/20/26
f 18/20/27 17/19/28 19/21/29 20/22/30
s 1
f 24/23/31 27/24/32 28/25/33 21/26/34
f 24/23/31 23/27/35 25/28/36 27/24/32
f 23/27/35 22/18/22 26/69/21 25/28/36
f 14/11/15 13/10/14 34/34/37 35/35/38
f 13/10/14 11/14/18 33/33/39 34/34/37
f 11/14/18 12/68/3 32/32/40 33/33/39
f 12/3/3 2/67/41 31/31/42 32/65/40
s 5
f 2/2/43 4/6/44 30/30/45 31/66/46
s 6
f 4/6/47 6/8/48 29/29/49 30/30/50
f 30/30/50 29/29/49 36/36/51 37/55/52
s 5
f 31/66/46 30/30/45 37/55/53 38/54/54
s 1
f 32/65/40 31/31/42 38/64/55 39/53/56
f 33/33/39 32/32/40 39/62/56 40/52/57
f 34/34/37 33/33/39 40/52/57 41/50/58
f 35/35/38 34/34/37 41/50/58 42/51/59
s 6
f 37/37/52 36/56/51 43/43/60 44/44/61
s 5
f 38/63/54 37/37/53 44/44/62 45/59/63
s 1
f 39/61/56 38/38/55 45/45/64 46/57/65
f 40/40/57 39/39/56 46/46/65 47/47/66
f 41/41/58 40/40/57 47/47/66 48/48/67
f 42/42/59 41/41/58 48/48/67 49/49/68
s 6
f 44/44/61 43/43/60 19/21/69 17/19/70
s 5
f 45/59/63 44/44/62 17/19/71 15/60/72
s 1
f 46/57/65 45/45/64 15/15/73 22/58/22
f 47/47/66 46/46/65 22/18/22 23/27/35
f 48/48/67 47/47/66 23/27/35 24/23/31
f 49/49/68 48/48/67 24/23/31 21/26/34
