# This file uses centimeters as units for non-parametric coordinates.

mtllib WallWindow.mtl
g default
v -0.000000 0.077556 1.000000
v 0.000000 0.077556 0.000000
v -0.000000 0.077556 0.846034
v 0.000000 0.077556 0.177681
v -0.000000 0.791421 1.000000
v -0.000000 0.791421 0.846034
v 0.000000 0.791421 0.177681
v 0.000000 0.791421 0.000000
v -0.000000 0.318587 1.000000
v -0.000000 0.318587 0.846034
v 0.000000 0.318587 0.177681
v 0.000000 0.318587 0.000000
v 0.036381 0.077556 1.000000
v 0.036381 0.077556 0.846034
v 0.036381 0.077556 0.177681
v 0.036381 0.077556 0.000000
v 0.036381 0.000000 1.000000
v 0.036381 0.000000 0.846034
v 0.036381 0.000000 0.177681
v 0.036381 0.000000 0.000000
v 0.050410 1.000000 1.000000
v 0.050410 1.000000 0.846034
v 0.050410 1.000000 0.177681
v 0.050410 1.000000 0.000000
v -0.000000 0.912320 1.000000
v 0.006542 0.945724 1.000000
v 0.025203 0.974192 1.000000
v -0.000000 0.912320 0.846034
v 0.006542 0.945724 0.846034
v 0.025203 0.974192 0.846034
v 0.000000 0.912320 0.177681
v 0.006542 0.945724 0.177681
v 0.025203 0.974192 0.177681
v 0.025203 0.974192 0.000000
v 0.006542 0.945724 0.000000
v 0.000000 0.912320 0.000000
vt 0.003824 0.338415
vt 0.148840 0.338428
vt 0.148801 0.783774
vt 0.003785 0.783762
vt 0.945653 0.783845
vt 0.778301 0.783830
vt 0.778340 0.338483
vt 0.945692 0.338498
vt 0.003844 0.111396
vt 0.148860 0.111409
vt 0.778360 0.111464
vt 0.945712 0.111479
vt 0.003847 0.077130
vt 0.148863 0.077143
vt 0.778363 0.077198
vt 0.945715 0.077213
vt 0.003854 0.004082
vt 0.148869 0.004095
vt 0.778370 0.004150
vt 0.945721 0.004165
vt 0.778285 0.961820
vt 0.778288 0.929760
vt 0.945640 0.929775
vt 0.945637 0.961835
vt 0.778291 0.897700
vt 0.945643 0.897715
vt 0.148791 0.897645
vt 0.003775 0.897632
vt 0.003769 0.961752
vt 0.148785 0.961765
vt 0.148782 0.995744
vt 0.003766 0.995731
vt 0.778282 0.995799
vt 0.945634 0.995814
vt 0.003772 0.929692
vt 0.148788 0.929705
vn 1.000000 0.000000 0.000000
vn 1.000000 0.000000 0.000000
vn 1.000000 0.000000 0.000000
vn 1.000000 0.000000 0.000000
vn 1.000000 0.000000 0.000000
vn 1.000000 0.000000 0.000000
vn 1.000000 0.000000 0.000000
vn 1.000000 0.000000 0.000000
vn 1.000000 0.000000 0.000000
vn 1.000000 0.000000 0.000000
vn 1.000000 0.000000 0.000000
vn 1.000000 0.000000 0.000000
vn 0.000000 1.000000 0.000000
vn 0.000000 1.000000 0.000000
vn 0.000000 1.000000 0.000000
vn 0.000000 1.000000 0.000000
vn 0.000000 1.000000 0.000000
vn 0.000000 1.000000 0.000000
vn 0.000000 1.000000 0.000000
vn 0.000000 1.000000 0.000000
vn 1.000000 0.000000 0.000000
vn 1.000000 0.000000 0.000000
vn 1.000000 0.000000 0.000000
vn 1.000000 0.000000 0.000000
vn 1.000000 0.000000 0.000000
vn 1.000000 0.000000 0.000000
vn 1.000000 0.000000 0.000000
vn 1.000000 0.000000 0.000000
vn 0.777736 -0.628591 0.000000
vn 0.926117 -0.377238 0.000000
vn 0.926117 -0.377238 0.000000
vn 0.777736 -0.628591 0.000000
vn 0.999102 -0.042360 0.000000
vn 0.999102 -0.042360 0.000000
vn 0.999102 -0.042360 0.000000
vn 0.999102 -0.042360 0.000000
vn 0.777736 -0.628591 0.000000
vn 0.777736 -0.628591 0.000000
vn 0.715384 -0.698732 0.000000
vn 0.715383 -0.698732 0.000000
vn 0.715384 -0.698731 0.000000
vn 0.715384 -0.698731 0.000000
vn 0.926117 -0.377237 0.000000
vn 0.926117 -0.377238 0.000000
s 1
g WallWindow
usemtl blinn4SG
f 9/1/1 10/2/2 6/3/3 5/4/4
f 8/5/5 7/6/6 11/7/7 12/8/8
f 1/9/9 3/10/10 10/2/2 9/1/1
f 11/7/7 10/2/2 3/10/10 4/11/11
f 12/8/8 11/7/7 4/11/11 2/12/12
s 3
f 3/10/13 1/9/14 13/13/15 14/14/16
f 4/11/17 3/10/13 14/14/16 15/15/18
f 2/12/19 4/11/17 15/15/18 16/16/20
s 4
f 14/14/21 13/13/22 17/17/23 18/18/24
f 15/15/25 14/14/21 18/18/24 19/19/26
f 16/16/27 15/15/25 19/19/26 20/20/28
s 1
f 33/21/29 32/22/30 35/23/31 34/24/32
f 32/22/30 31/25/33 36/26/34 35/23/31
f 5/4/4 6/3/3 28/27/35 25/28/36
f 28/27/35 6/3/3 7/6/6 31/25/33
f 31/25/33 7/6/6 8/5/5 36/26/34
f 27/29/37 30/30/38 22/31/39 21/32/40
f 30/30/38 33/21/29 23/33/41 22/31/39
f 33/21/29 34/24/32 24/34/42 23/33/41
f 27/29/37 26/35/43 29/36/44 30/30/38
f 26/35/43 25/28/36 28/27/35 29/36/44
f 30/30/38 29/36/44 32/22/30 33/21/29
f 29/36/44 28/27/35 31/25/33 32/22/30
