# This file uses centimeters as units for non-parametric coordinates.

mtllib Window.mtl
g default
v 0.022789 0.317141 -0.152837
v 0.022789 0.317141 -0.824312
v 0.022789 0.796747 -0.152837
v 0.022789 0.796747 -0.824312
v -0.022789 0.796747 -0.152837
v -0.022789 0.796747 -0.824312
v -0.022789 0.317141 -0.152837
v -0.022789 0.317141 -0.824312
v 0.020380 0.342493 -0.188331
v 0.020380 0.342493 -0.788818
v 0.020380 0.771395 -0.788818
v 0.020380 0.771395 -0.188331
v -0.020380 0.771395 -0.188331
v -0.020380 0.771395 -0.788818
v -0.020380 0.342493 -0.788818
v -0.020380 0.342493 -0.188331
v 0.022789 0.796747 -0.635456
v 0.020380 0.771395 -0.635456
v -0.022789 0.796747 -0.635456
v 0.022789 0.317141 -0.635456
v -0.022789 0.317141 -0.635456
v -0.020380 0.342493 -0.635456
v 0.020380 0.342493 -0.635456
v 0.022789 0.796747 -0.607314
v 0.020380 0.771395 -0.610863
v -0.020380 0.771395 -0.610863
v -0.022789 0.796747 -0.607314
v 0.022789 0.317141 -0.607314
v -0.022789 0.317141 -0.607314
v -0.020380 0.342493 -0.610863
v 0.020380 0.342493 -0.610863
v 0.022789 0.466096 -0.152837
v 0.020380 0.466096 -0.188331
v -0.020380 0.466096 -0.188331
v -0.022789 0.466096 -0.152837
v -0.020380 0.466096 -0.635456
v 0.020380 0.466096 -0.635456
v 0.020380 0.466096 -0.610863
v -0.020380 0.466096 -0.610863
v -0.022789 0.499161 -0.152837
v -0.020380 0.496626 -0.188331
v 0.020380 0.496626 -0.188331
v 0.022789 0.499161 -0.152837
v -0.020380 0.496626 -0.635456
v 0.020380 0.496626 -0.635455
v 0.020380 0.496626 -0.610862
v -0.020380 0.496626 -0.610863
v -0.059564 0.516692 -0.191087
v -0.059564 0.516692 -0.608376
v 0.009625 0.774909 -0.191087
v 0.009625 0.774909 -0.608376
v 0.000000 0.335800 -0.184132
v 0.000000 0.335800 -0.615330
v 0.000000 0.468143 -0.184132
v 0.000000 0.468143 -0.615330
v 0.000000 0.335800 -0.625751
v 0.000000 0.335800 -0.788349
v 0.000000 0.777354 -0.625751
v 0.000000 0.777354 -0.788349
v -0.020380 0.771395 -0.635456
vt 0.714257 0.281255
vt 0.677897 0.303526
vt 0.677897 0.050907
vt 0.714257 0.000000
vt 0.036361 0.303526
vt 0.000000 0.281255
vt 0.000000 0.000000
vt 0.036361 0.050907
vt 0.221832 1.000000
vt 0.235607 0.949093
vt 0.279836 0.949093
vt 0.271074 1.000000
vt 0.070271 0.303527
vt 0.070271 0.098384
vt 0.643986 0.098384
vt 0.124977 0.389479
vt 0.276445 0.901616
vt 0.235607 0.901616
vt 0.643986 0.137677
vt 0.070271 0.137677
vt 0.070271 0.303527
vt 0.220145 0.848761
vt 0.951762 0.702522
vt 0.677897 0.341171
vt 0.086857 0.389269
vt 0.122704 0.412581
vt 0.714257 0.323167
vt 0.036361 0.341171
vt 0.000000 0.323167
vt 0.085733 0.389279
vt 0.070271 0.336423
vt 0.677897 0.949093
vt 0.922810 0.746970
vt 0.573637 0.176094
vt 0.714257 1.000000
vt 0.000000 1.000000
vt 0.036361 0.949093
vt 0.085733 0.848761
vt 0.070271 0.901616
vt 0.235607 0.303527
vt 0.235607 0.303527
vt 0.220145 0.389279
vt 0.235607 0.336423
vt 0.276445 0.303527
vt 0.276445 0.303527
vt 0.150245 0.693142
vt 0.122704 0.757672
vt 0.287733 0.613852
vt 0.287733 0.152790
vt 0.573037 0.152790
vt 0.573037 0.613852
vt 0.716569 0.947733
vt 0.716569 0.479489
vt 0.860282 0.479489
vt 0.860282 0.947733
vt 0.716569 0.000000
vt 0.893136 0.000000
vt 0.893136 0.479489
vt 0.716569 0.479489
vt 0.000000 0.000000
vt 0.000000 1.000000
vt 0.714257 0.000000
vt 0.714257 1.000000
vt 0.220145 0.389279
vt 0.220145 0.848761
vt 0.085733 0.389279
vt 0.085733 0.848761
vt 0.951762 0.044453
vt 0.573637 0.521185
vt 0.893902 0.702517
vt 0.643986 0.303527
vt 0.643986 0.303527
vt 0.643986 0.303527
vt 0.643986 0.303527
vt 0.643986 0.336423
vt 0.150245 0.389279
vt 0.643986 0.336423
vt 0.922810 0.000000
vt 0.893902 0.044453
vt 0.609485 0.152783
vt 0.643986 0.901616
vt 0.643986 0.901616
vt 0.276445 0.336423
vt 0.276445 0.336423
vt 0.922854 0.000000
vt 0.086857 0.780984
vt 0.609485 0.544496
vt 0.922854 0.746975
vt 0.123047 0.693142
vt 0.235607 0.336423
vt 0.677897 0.949093
vt 0.110533 0.152790
vt 0.206670 0.152790
vt 0.171825 0.294419
vt 0.081448 0.294367
vn 0.000000 1.000000 0.000000
vn 0.000000 1.000000 0.000000
vn 0.000000 1.000000 0.000000
vn 0.000000 1.000000 0.000000
vn 0.000000 -1.000000 0.000000
vn 0.000000 -1.000000 0.000000
vn 0.000000 -1.000000 0.000000
vn 0.000000 -1.000000 0.000000
vn 0.000000 0.000000 -1.000000
vn 0.000000 0.000000 -1.000000
vn 0.000000 0.000000 -1.000000
vn 0.000000 0.000000 -1.000000
vn -0.000000 0.000000 1.000000
vn -0.000000 0.000000 1.000000
vn -0.000000 0.000000 1.000000
vn -0.000000 0.000000 1.000000
vn 0.998257 0.059021 0.000000
vn 0.995516 0.094597 0.000000
vn 0.995516 0.094597 0.000000
vn 0.995516 0.094598 0.000000
vn 0.997705 0.000000 0.067718
vn 0.997705 0.000000 0.067718
vn 0.997705 0.000000 0.067718
vn 0.997705 0.000000 0.067718
vn 0.995516 -0.094598 0.000000
vn 0.995516 -0.094598 0.000000
vn 0.995516 -0.094598 0.000000
vn 0.995516 -0.094598 0.000000
vn 0.997705 0.000000 -0.067713
vn 0.997705 0.000000 -0.067713
vn 0.997705 0.000000 -0.067712
vn 0.997705 0.000000 -0.067712
vn 0.000000 -1.000000 0.000000
vn 0.000000 -1.000000 0.000000
vn 0.000000 -1.000000 0.000000
vn 0.000000 -1.000000 0.000000
vn 0.000000 1.000000 0.000000
vn 0.000000 1.000000 0.000000
vn 0.000000 1.000000 0.000000
vn 0.000000 1.000000 0.000000
vn -0.000000 0.000000 1.000000
vn -0.000000 0.000000 1.000000
vn -0.000000 0.000000 1.000000
vn -0.000000 0.000000 1.000000
vn 0.995516 -0.094597 0.000000
vn 0.995516 -0.094597 0.000000
vn 0.995516 -0.094597 0.000000
vn 0.995516 -0.094597 0.000000
vn 0.000000 -1.000000 0.000000
vn 0.000000 -1.000000 0.000000
vn 0.000000 -1.000000 0.000000
vn 0.000000 -1.000000 0.000000
vn 0.000000 1.000000 0.000000
vn 0.000000 1.000000 0.000000
vn 0.000000 -1.000000 0.000000
vn 0.000000 -1.000000 0.000000
vn 0.997255 0.074045 0.000000
vn 0.995516 0.094597 0.000000
vn 0.995516 -0.094598 0.000000
vn 0.995516 -0.094598 0.000000
vn 0.995516 -0.094598 0.000000
vn 0.995516 -0.094598 0.000000
vn 0.000000 -1.000000 0.000000
vn 0.000000 -1.000000 0.000000
vn 0.000000 -1.000000 0.000000
vn 0.000000 -1.000000 0.000000
vn 0.000000 1.000000 0.000000
vn 0.000000 1.000000 0.000000
vn 0.000000 -1.000000 0.000000
vn 0.000000 -1.000000 0.000000
vn 0.000000 1.000000 0.000000
vn 0.000000 1.000000 0.000000
vn 0.000000 1.000000 0.000000
vn 0.000000 1.000000 0.000000
vn 0.995516 0.094598 0.000000
vn 0.995516 0.094597 0.000000
vn 0.000000 0.000000 -1.000000
vn 0.000000 0.000000 -1.000000
vn 0.000002 0.000004 -1.000000
vn 0.000002 0.000004 -1.000000
vn -0.000000 0.000000 1.000000
vn -0.000000 0.000000 1.000000
vn -0.000000 0.000000 1.000000
vn -0.000000 0.000000 1.000000
vn 1.000000 0.000000 0.000000
vn 1.000000 0.000000 0.000000
vn 0.997705 0.000000 -0.067711
vn 0.997705 0.000000 -0.067711
vn 0.000000 0.000000 -1.000000
vn 0.000000 0.000000 -1.000000
vn 0.000000 0.000000 -1.000000
vn 0.000000 0.000000 -1.000000
vn -0.000000 0.000000 1.000000
vn -0.000000 0.000000 1.000000
vn 0.000012 0.000000 -1.000000
vn 0.000012 0.000000 -1.000000
vn 1.000000 0.000000 0.000000
vn 1.000000 0.000000 0.000000
vn 0.000000 0.000000 -1.000000
vn 0.000000 0.000000 -1.000000
vn 0.000000 0.000000 -1.000000
vn 0.000000 0.000000 -1.000000
vn 0.997705 0.000000 -0.067713
vn 0.997705 0.000000 -0.067713
vn -0.000000 0.000000 1.000000
vn -0.000000 0.000000 1.000000
vn 1.000000 0.000000 0.000000
vn 1.000000 0.000000 0.000000
vn -0.000009 0.000003 1.000000
vn -0.000009 0.000003 1.000000
vn -0.000009 0.000003 1.000000
vn -0.000009 0.000003 1.000000
vn 0.000000 -1.000000 0.000000
vn 0.000000 -1.000000 0.000000
vn 0.000000 -1.000000 0.000000
vn 0.000000 -1.000000 0.000000
vn -0.000001 1.000000 -0.000000
vn -0.000001 1.000000 -0.000000
vn -0.000001 1.000000 -0.000000
vn -0.000001 1.000000 -0.000000
vn 1.000000 0.000000 0.000000
vn 1.000000 0.000000 0.000000
vn 1.000000 0.000000 0.000000
vn 1.000000 0.000000 0.000000
vn 0.965926 -0.258819 0.000000
vn 0.965926 -0.258819 0.000000
vn 0.965926 -0.258819 0.000000
vn 0.965926 -0.258819 0.000000
vn 1.000000 0.000000 0.000000
vn 1.000000 0.000000 0.000000
vn 1.000000 0.000000 0.000000
vn 1.000000 0.000000 0.000000
vn 1.000000 0.000000 0.000000
vn 1.000000 0.000000 0.000000
vn 1.000000 0.000000 0.000000
vn 1.000000 0.000000 0.000000
vn 0.000012 -0.000002 -1.000000
vn 0.000012 -0.000002 -1.000000
s 1
g Window
usemtl blinn5SG
f 19/1/1 17/2/2 4/3/3 6/62/4
s 2
f 20/5/5 21/6/6 8/7/7 2/8/8
s off
f 2/8/9 8/60/10 6/4/11 4/3/12
s 3
f 35/9/13 32/10/14 43/11/15 40/12/16
s 4
f 23/13/17 20/5/18 2/8/19 10/14/20
s off
f 2/8/21 4/3/22 11/15/23 10/14/24
f 4/3/25 17/2/26 18/72/27 11/15/28
s 5
f 42/17/29 43/11/30 32/10/31 33/18/32
s off
f 11/15/33 18/73/34 60/74/35 14/19/36
f 15/20/37 22/21/38 23/13/39 10/14/40
f 14/19/41 15/20/42 10/14/43 11/15/44
f 18/71/45 17/2/46 24/24/47 25/75/48
f 60//49 18//50 25//51 26//52
s 1
f 27/27/53 24/24/54 17/2/2 19/1/1
s 2
f 28/28/55 29/29/56 21/6/6 20/5/5
s 4
f 31/31/57 28/28/58 20/5/18 23/13/17
s off
f 25/77/59 24/24/60 3/91/61 12/82/62
f 26/79/63 25/78/64 12/33/65 13/70/66
s 1
f 3/91/67 24/24/54 27/27/53 5/35/68
s 2
f 7/61/69 29/29/56 28/28/55 1/37/70
s off
f 31/31/71 30/66/72 16/38/73 9/39/74
s 4
f 1/37/75 28/28/58 31/31/57 9/39/76
s 6
f 23/13/77 22/21/78 36/40/79 37/41/80
s off
f 30/30/81 31/31/82 38/90/83 39/64/84
s 4
f 31/31/57 23/13/17 37/41/85 38/90/86
s 5
f 33/18/32 32/10/31 1/37/87 9/39/88
s off
f 16/67/89 34/22/90 33/18/91 9/39/92
s 3
f 7/36/93 1/37/94 32/10/14 35/9/13
s 6
f 37/41/80 36/40/79 44/44/95 45/45/96
s 4
f 38/90/86 37/41/85 45/45/97 46/83/98
s off
f 42/87/99 41/69/100 13/34/101 12/80/102
s 5
f 3/32/103 43/11/30 42/17/29 12/81/104
s 3
f 40/12/16 43/11/15 3/32/105 5/63/106
s 4
f 46/46/98 45/89/97 18/16/107 25/76/108
s off
f 47/47/109 46/86/110 25/25/111 26/26/112
f 33/18/113 34/65/114 39/42/115 38/43/116
f 41/23/117 42/88/118 46/85/119 47/68/120
f 42/17/121 33/18/122 38/43/123 46/84/124
f 48/48/125 49/49/126 51/50/127 50/51/128
f 52/52/129 53/53/130 55/54/131 54/55/132
f 56/56/133 57/57/134 59/58/135 58/59/136
s 6
f 45/92/96 44/93/95 60/94/137 18/95/138
