# This file uses centimeters as units for non-parametric coordinates.

mtllib VentCorner.mtl
g default
v 0.000000 0.276149 0.222719
v 0.000000 0.000000 0.222719
v 0.000000 0.000000 -0.222720
v -0.414242 0.276149 -0.222719
v 0.000000 0.276149 -0.222720
v -0.414242 0.000000 -0.222719
v -0.414242 0.276149 0.222719
v -0.414242 -0.000000 0.222719
vt 0.768523 0.026124
vt 0.045113 0.803139
vt 0.970377 0.030672
vt 0.769057 0.806550
vt 0.769493 0.029129
vt 0.046520 0.028723
vt 0.968418 0.802989
vt 0.486459 0.801478
vt 0.046084 0.806144
vt 0.768086 0.803545
vt 0.970684 0.080020
vt 0.488726 0.078509
vt 0.969941 0.808092
vt 0.045550 0.025719
vt 0.487980 0.807821
vt 0.488416 0.030401
vn 0.000000 -1.000000 0.000000
vn 0.000000 -1.000000 0.000000
vn 0.000000 -1.000000 0.000000
vn 0.732285 0.000000 -0.680999
vn 0.732285 0.000000 -0.680998
vn 1.000000 0.000000 0.000000
vn 1.000000 0.000000 0.000000
vn -0.000000 1.000000 0.000000
vn -0.000000 1.000000 0.000000
vn 0.000000 1.000000 0.000000
vn 0.000000 0.000000 -1.000000
vn 0.000000 0.000000 -1.000000
vn -0.000000 1.000000 0.000000
vn 0.000000 -1.000000 0.000000
vn 0.000000 -1.000000 0.000000
vn 0.000000 -1.000000 0.000000
s off
g VentCorner
usemtl initialShadingGroup
f 5/1/1 7/2/2 4/14/3
s 1
f 7/13/4 8/15/5 6/16/6 4/3/7
s 2
f 8/4/8 3/6/9 6/5/10
s 1
f 1/7/11 2/8/12 8/12/5 7/11/4
s 2
f 2/9/13 3/6/9 8/4/8
s off
f 1/10/14 7/2/15 5/1/16
