# This file uses centimeters as units for non-parametric coordinates.

mtllib VenTHighWall.mtl
g default
v 0.000000 0.077556 1.000000
v 0.000000 0.077556 0.000000
v 0.036381 0.077556 1.000000
v 0.036381 0.077556 0.000000
v 0.036381 0.000000 1.000000
v 0.036381 0.000000 0.000000
v 0.050410 1.379870 1.000000
v 0.000000 1.292189 1.000000
v 0.006542 1.325593 1.000000
v 0.025203 1.354061 1.000000
v 0.006542 1.325593 0.000000
v 0.000000 1.292189 0.000000
v 0.025203 1.354061 0.000000
v 0.050410 1.379870 0.000000
v 0.000000 0.999674 0.000000
v 0.000000 0.999674 1.000000
vt 0.000137 0.000000
vt 0.817828 0.000113
vt 0.913961 0.000010
vt 0.913869 0.817702
vt 0.884121 0.817698
vt 0.884213 0.000007
vt 0.820704 0.817691
vt 0.820795 0.000000
vt 0.970409 0.817697
vt 0.970501 0.000006
vt 1.000000 0.000010
vt 0.999908 0.817701
vt 0.942576 0.817694
vt 0.942668 0.000003
vt 0.914743 0.817691
vt 0.914835 0.000000
vt 0.817724 0.754120
vt 0.000033 0.754007
vn 1.000000 0.000000 0.000000
vn 1.000000 0.000000 0.000000
vn 1.000000 0.000000 0.000000
vn 1.000000 0.000000 0.000000
vn 0.000000 1.000000 0.000000
vn 0.000000 1.000000 0.000000
vn 0.000000 1.000000 0.000000
vn 0.000000 1.000000 0.000000
vn 1.000000 0.000000 0.000000
vn 1.000000 0.000000 0.000000
vn 1.000000 0.000000 0.000000
vn 1.000000 0.000000 0.000000
vn 0.777736 -0.628591 0.000000
vn 0.777736 -0.628591 0.000000
vn 0.715385 -0.698731 0.000000
vn 0.715385 -0.698731 0.000000
vn 0.777736 -0.628591 0.000000
vn 0.926116 -0.377238 0.000000
vn 0.926116 -0.377238 0.000000
vn 0.777736 -0.628591 0.000000
vn 0.926116 -0.377238 0.000000
vn 0.999986 -0.005242 0.000000
vn 0.999986 -0.005242 0.000000
vn 0.926116 -0.377238 0.000000
s off
g HigherWallsSet:WallPlain
usemtl HigherWallsSet:blinn8SG
f 1/1/1 2/2/2 15/17/3 16/18/4
f 2/3/5 1/4/6 3/5/7 4/6/8
f 4/6/9 3/5/10 5/7/11 6/8/12
f 10/9/13 13/10/14 14/11/15 7/12/16
f 10/9/17 9/13/18 11/14/19 13/10/20
f 9/13/21 8/15/22 12/16/23 11/14/24
