# This file uses centimeters as units for non-parametric coordinates.

mtllib TVScreen.mtl
g default
v 0.448274 0.351239 -0.335087
v 0.448274 0.234175 -0.366455
v 0.448274 0.436936 -0.249391
v 0.448274 0.468303 -0.132327
v 0.448274 0.468303 0.504044
v 0.448274 0.436936 0.621108
v 0.448274 0.351239 0.706805
v 0.448274 0.234175 0.738172
v 0.448274 -0.234175 0.738172
v 0.448274 -0.351239 0.706805
v 0.448274 -0.436936 0.621108
v 0.448274 -0.468303 0.504044
v 0.448274 -0.468303 -0.132327
v 0.448274 -0.436936 -0.249391
v 0.448274 -0.351239 -0.335087
v 0.448274 -0.234175 -0.366455
vt 0.249975 0.748218
vt 0.124987 0.726971
vt 0.033490 0.668925
vt 0.000000 0.589631
vt 0.000000 0.158586
vt 0.033490 0.079293
vt 0.124988 0.021247
vt 0.249975 0.000000
vt 0.750025 0.000000
vt 0.875013 0.021247
vt 0.966510 0.079293
vt 1.000000 0.158586
vt 1.000000 0.589631
vt 0.966510 0.668925
vt 0.875012 0.726971
vt 0.750025 0.748218
vn 1.000000 0.000000 0.000000
vn 1.000000 0.000000 0.000000
vn 1.000000 0.000000 0.000000
vn 1.000000 0.000000 0.000000
vn 1.000000 0.000000 0.000000
vn 1.000000 0.000000 0.000000
vn 1.000000 0.000000 0.000000
vn 1.000000 0.000000 0.000000
vn 1.000000 0.000000 0.000000
vn 1.000000 0.000000 0.000000
vn 1.000000 0.000000 0.000000
vn 1.000000 0.000000 0.000000
vn 1.000000 0.000000 0.000000
vn 1.000000 0.000000 0.000000
vn 1.000000 0.000000 0.000000
vn 1.000000 0.000000 0.000000
s off
g Screen
usemtl initialShadingGroup
f 2/1/1 1/2/2 3/3/3 4/4/4 5/5/5 6/6/6 7/7/7 8/8/8 9/9/9 10/10/10 11/11/11 12/12/12 13/13/13 14/14/14 15/15/15 16/16/16
