# This file uses centimeters as units for non-parametric coordinates.

mtllib VentWall.mtl
g default
v 0.000000 0.077556 0.000000
v 0.036381 0.077556 0.000000
v 0.036381 0.000000 0.000000
v 0.006542 1.325593 0.000000
v 0.000000 1.292189 0.000000
v 0.025203 1.354061 0.000000
v 0.050410 1.379870 0.000000
v 0.036381 0.000000 0.209675
v 0.000000 1.292189 0.209675
v 0.006542 1.325593 0.209675
v 0.025203 1.354061 0.209675
v 0.050410 1.379870 0.209675
v 0.000000 0.299926 0.209675
v 0.000000 0.299926 0.000000
v 0.036381 0.077556 0.209675
v 0.000000 0.077556 0.209675
v 0.036381 0.000000 0.209675
v 0.000000 0.000000 0.209675
vt 0.884213 0.000007
vt 0.884191 0.196253
vt 0.820773 0.196246
vt 0.820795 0.000000
vt 0.913961 0.000010
vt 0.913939 0.196256
vt 0.884191 0.196253
vt 0.621445 0.993280
vt 0.621553 0.206751
vt 0.817799 0.206778
vt 0.817691 0.993307
vt 0.942646 0.196249
vt 0.914813 0.196246
vt 0.914835 0.000000
vt 0.942668 0.000003
vt 0.970479 0.196252
vt 0.970501 0.000006
vt 0.999978 0.196255
vt 1.000000 0.000010
vt 0.621582 0.000086
vt 0.817828 0.000113
vt 0.000000 0.000000
vt 1.000000 0.000000
vt 1.000000 1.000000
vt 0.000000 1.000000
vn 1.000000 0.000000 0.000000
vn 1.000000 0.000000 0.000000
vn 1.000000 0.000000 0.000000
vn 1.000000 0.000000 0.000000
vn 0.000000 1.000000 0.000000
vn 0.000000 1.000000 0.000000
vn 0.000000 1.000000 0.000000
vn 0.000000 1.000000 0.000000
vn 0.999980 -0.006378 0.000000
vn 1.000000 0.000000 0.000000
vn 1.000000 0.000000 0.000000
vn 0.999980 -0.006378 0.000000
vn 0.926116 -0.377238 0.000000
vn 0.926116 -0.377238 0.000000
vn 0.777736 -0.628591 0.000000
vn 0.777736 -0.628591 0.000000
vn 0.715385 -0.698731 0.000000
vn 0.715385 -0.698731 0.000000
vn 1.000000 0.000000 0.000000
vn 1.000000 0.000000 0.000000
vn 0.000000 0.000000 1.000000
vn 0.000000 0.000000 1.000000
vn 0.000000 0.000000 1.000000
vn 0.000000 0.000000 1.000000
s off
g polySurface2 WallPlain
usemtl blinn8SG
f 2/1/1 15/2/2 8/3/3 3/4/4
f 1/5/5 16/6/6 15/7/7 2/1/8
s 1
f 9/8/9 13/9/10 14/10/11 5/11/12
f 10/12/13 9/13/9 5/14/12 4/15/14
f 11/16/15 10/12/13 4/15/14 6/17/16
f 12/18/17 11/16/15 6/17/16 7/19/18
f 14/10/11 13/9/10 16/20/19 1/21/20
s off
f 15/22/21 16/23/22 18/24/23 17/25/24
g default
v 0.000000 1.292189 0.800000
v 0.000000 0.299926 0.800000
v 0.006542 1.325593 0.800000
v 0.025203 1.354061 0.800000
v 0.050410 1.379870 0.800000
v 0.000000 0.299926 0.209675
v 0.000000 1.292189 0.209675
v 0.006542 1.325593 0.209675
v 0.025203 1.354061 0.209675
v 0.050410 1.379870 0.209675
vt 0.163538 0.993217
vt 0.163646 0.206688
vt 0.621553 0.206751
vt 0.621445 0.993280
vt 0.999927 0.654162
vt 0.970427 0.654159
vt 0.970479 0.196252
vt 0.999978 0.196255
vt 0.942594 0.654156
vt 0.942646 0.196249
vt 0.914761 0.654153
vt 0.914813 0.196246
vn 0.999980 -0.006378 0.000000
vn 1.000000 0.000000 0.000000
vn 1.000000 0.000000 0.000000
vn 0.999980 -0.006378 0.000000
vn 0.715385 -0.698731 0.000000
vn 0.777736 -0.628591 0.000000
vn 0.777736 -0.628591 0.000000
vn 0.715385 -0.698731 0.000000
vn 0.926117 -0.377238 0.000000
vn 0.926117 -0.377238 0.000000
s 1
g WallPlain polySurface4 polySurface3
usemtl blinn8SG
f 19/26/25 20/27/26 24/28/27 25/29/28
f 23/30/29 22/31/30 27/32/31 28/33/32
f 22/31/30 21/34/33 26/35/34 27/32/31
f 21/34/33 19/36/25 25/37/28 26/35/34
g default
v 0.000000 0.077556 1.000000
v 0.036381 0.077556 1.000000
v 0.036381 0.000000 1.000000
v 0.050410 1.379870 1.000000
v 0.000000 1.292189 1.000000
v 0.006542 1.325593 1.000000
v 0.025203 1.354061 1.000000
v 0.050410 1.379870 0.800000
v 0.025203 1.354061 0.800000
v 0.006542 1.325593 0.800000
v 0.000000 1.292189 0.800000
v 0.000000 0.077556 0.800000
v 0.036381 0.077556 0.800000
v 0.036381 0.000000 0.800000
v 0.000000 0.000000 0.800000
v 0.036381 0.000000 0.800000
v 0.000000 0.299926 1.000000
v 0.000000 0.299926 0.800000
v 0.000000 0.077556 0.800000
v 0.036381 0.077556 0.800000
vt 0.000137 0.000000
vt 0.914743 0.817691
vt 0.884121 0.817698
vt 0.820704 0.817691
vt 0.970409 0.817697
vt 0.999908 0.817701
vt 0.942576 0.817694
vt 0.000000 0.993194
vt 0.913869 0.817702
vt 0.999927 0.654162
vt 0.970427 0.654159
vt 0.942594 0.654156
vt 0.163538 0.993217
vt 0.914761 0.654153
vt 0.163675 0.000023
vt 0.884139 0.654160
vt 0.820722 0.654153
vt 0.000000 0.000000
vt 1.000000 0.000000
vt 1.000000 1.000000
vt 0.000000 1.000000
vt 0.000108 0.206666
vt 0.163646 0.206688
vt 0.913888 0.654163
vt 0.884139 0.654160
vn 0.777736 -0.628591 0.000000
vn 0.777736 -0.628591 0.000000
vn 0.715385 -0.698731 0.000000
vn 0.715385 -0.698731 0.000000
vn 0.926116 -0.377238 0.000000
vn 0.926116 -0.377238 0.000000
vn 0.999980 -0.006378 0.000000
vn 0.999980 -0.006378 0.000000
vn 1.000000 0.000000 0.000000
vn 1.000000 0.000000 0.000000
vn 0.000000 1.000000 0.000000
vn 0.000000 1.000000 0.000000
vn 0.000000 1.000000 0.000000
vn 0.000000 1.000000 0.000000
vn 1.000000 0.000000 0.000000
vn 1.000000 0.000000 0.000000
vn 1.000000 0.000000 0.000000
vn 1.000000 0.000000 0.000000
vn 0.000000 0.000000 -1.000000
vn 0.000000 0.000000 -1.000000
vn 0.000000 0.000000 -1.000000
vn 0.000000 0.000000 -1.000000
vn 1.000000 0.000000 0.000000
vn 1.000000 0.000000 0.000000
s 1
g WallPlain polySurface3 polySurface5
usemtl blinn8SG
f 35/42/35 37/48/36 36/47/37 32/43/38
f 35/42/35 34/44/39 38/49/40 37/48/36
f 34/44/39 33/39/41 39/51/42 38/49/40
f 45/59/43 46/60/44 39/50/42 33/45/41
s off
f 48/62/45 47/61/46 29/46/47 30/40/48
f 42/54/49 48/53/50 30/40/51 31/41/52
f 40/55/53 41/56/54 44/57/55 43/58/56
s 1
f 29/38/57 47/52/58 46/60/44 45/59/43
