# This file uses centimeters as units for non-parametric coordinates.

mtllib ChildBlock.mtl
g default
v -0.068099 0.006559 0.052263
v -0.052263 0.000000 0.052263
v -0.052263 0.006559 0.068099
v -0.052263 0.022395 0.074659
v -0.068099 0.022395 0.068099
v -0.074659 0.022395 0.052263
v 0.068099 0.006559 0.052263
v 0.074659 0.022395 0.052263
v 0.068099 0.022395 0.068099
v 0.052263 0.022395 0.074659
v 0.052263 0.006559 0.068099
v 0.052263 0.000000 0.052263
v -0.068099 0.142758 0.052263
v -0.074659 0.126922 0.052263
v -0.068099 0.126922 0.068099
v -0.052263 0.126922 0.074659
v -0.052263 0.142758 0.068099
v -0.052263 0.149317 0.052263
v 0.068099 0.142758 0.052263
v 0.052263 0.149317 0.052263
v 0.052263 0.142758 0.068099
v 0.052263 0.126922 0.074659
v 0.068099 0.126922 0.068099
v 0.074659 0.126922 0.052263
v -0.068099 0.126922 -0.068099
v -0.074659 0.126922 -0.052263
v -0.068099 0.142758 -0.052263
v -0.052263 0.149317 -0.052263
v -0.052263 0.142758 -0.068099
v -0.052263 0.126922 -0.074659
v 0.068099 0.126922 -0.068099
v 0.052263 0.126922 -0.074659
v 0.052263 0.142758 -0.068099
v 0.052263 0.149317 -0.052263
v 0.068099 0.142758 -0.052263
v 0.074659 0.126922 -0.052263
v -0.068099 0.006559 -0.052263
v -0.074659 0.022395 -0.052263
v -0.068099 0.022395 -0.068099
v -0.052263 0.022395 -0.074659
v -0.052263 0.006559 -0.068099
v -0.052263 0.000000 -0.052263
v 0.068099 0.006559 -0.052263
v 0.052263 0.000000 -0.052263
v 0.052263 0.006559 -0.068099
v 0.052263 0.022395 -0.074659
v 0.068099 0.022395 -0.068099
v 0.074659 0.022395 -0.052263
v -0.065189 0.009470 0.065189
v 0.065189 0.009470 0.065189
v -0.065189 0.139847 0.065189
v 0.065189 0.139847 0.065189
v -0.065189 0.139847 -0.065189
v 0.065189 0.139847 -0.065189
v -0.065189 0.009470 -0.065189
v 0.065189 0.009470 -0.065189
vt 0.346281 0.977761
vt 0.663932 0.678352
vt 0.346308 0.696589
vt 0.367634 0.977864
vt 0.945105 0.678339
vt 0.659732 0.056970
vt 0.648807 0.977632
vt 0.065107 0.678330
vt 0.648709 0.678327
vt 0.659798 0.056982
vt 0.648575 0.696459
vt 0.379321 0.057289
vt 0.065135 0.696562
vt 0.666894 0.977722
vt 0.660059 0.337424
vt 0.379323 0.057288
vt 0.379628 0.337685
vt 0.379389 0.057275
vt 0.379367 0.057244
vt 0.659776 0.057014
vt 0.379650 0.337707
vt 0.379360 0.057250
vt 0.659770 0.057007
vt 0.660066 0.337417
vt 0.661564 0.383377
vt 0.333687 0.339207
vt 0.377893 0.011242
vt 0.333689 0.339209
vt 0.377844 0.011279
vt 0.705785 0.055487
vt 0.705777 0.055509
vt 0.661582 0.383388
vt 0.333619 0.339151
vt 0.377892 0.011268
vt 0.705739 0.055461
vt 0.661585 0.383386
vt 0.661533 0.383425
vt 0.661535 0.383399
vt 0.377902 0.011235
vt 0.705784 0.055519
vt 0.705807 0.055516
vt 0.705737 0.055458
vt 0.333649 0.339158
vt 0.333643 0.339149
vt 0.333641 0.339180
vt 0.377863 0.011290
vt 0.661524 0.383432
vt 0.377841 0.011281
vt 0.698493 0.375878
vt 0.341193 0.376138
vt 0.698283 0.018578
vt 0.340961 0.018762
vt 0.698486 0.375921
vt 0.698291 0.018587
vt 0.341144 0.376089
vt 0.340933 0.018789
vt 0.333669 0.055849
vt 0.340891 0.018796
vt 0.698477 0.375930
vt 0.705759 0.338852
vt 0.333621 0.055876
vt 0.341151 0.376131
vt 0.378193 0.383351
vt 0.378231 0.383406
vt 0.661233 0.011316
vt 0.698233 0.018529
vt 0.698303 0.018564
vt 0.661225 0.011283
vt 0.661173 0.011270
vt 0.705766 0.338843
vt 0.698465 0.375906
vt 0.705735 0.338848
vt 0.705805 0.338791
vt 0.378201 0.383384
vt 0.661196 0.011261
vt 0.333660 0.055825
vt 0.333691 0.055819
vt 0.698535 0.375871
vt 0.698235 0.018532
vt 0.661175 0.011272
vt 0.661225 0.011309
vt 0.341123 0.376103
vt 0.698533 0.375874
vt 0.705803 0.338793
vt 0.378253 0.383397
vt 0.698276 0.018536
vt 0.340894 0.018794
vt 0.333623 0.055874
vt 0.705758 0.338819
vt 0.340941 0.018746
vt 0.341191 0.376135
vt 0.378251 0.383395
vt 0.378202 0.383358
vt 0.341135 0.376080
vt 0.333667 0.055816
vt 0.340949 0.018737
vt 0.379650 0.337653
vt 0.948067 0.977775
vt 0.379367 0.057297
vt 0.065108 0.977735
vt 0.659730 0.056968
vt 0.367402 0.696691
vt 0.948120 0.696602
vt 0.660037 0.337392
vt 0.648672 0.397154
vt 0.666947 0.696549
vt 0.379657 0.337660
vt 0.346279 0.678361
vt 0.660105 0.337378
vt 0.660103 0.337379
vt 0.945093 0.397167
vt 0.346310 0.397188
vt 0.379696 0.337699
vt 0.663920 0.397179
vt 0.659776 0.056961
vt 0.379694 0.337697
vt 0.065137 0.397158
vt 0.660059 0.337370
vt 0.367499 0.397191
vt 0.367537 0.678364
vn -0.052112 -0.997281 0.052112
vn -0.378564 -0.924920 0.034808
vn -0.378564 -0.924920 -0.034808
vn -0.052112 -0.997281 -0.052112
vn -0.924920 -0.378564 0.034808
vn -0.997281 -0.052112 0.052112
vn -0.997281 -0.052112 -0.052112
vn -0.924920 -0.378564 -0.034808
vn -0.052112 -0.052112 0.997281
vn -0.034808 -0.378564 0.924920
vn 0.034808 -0.378564 0.924920
vn 0.052112 -0.052112 0.997281
vn -0.034808 -0.924920 0.378564
vn 0.052112 -0.997281 0.052112
vn 0.034808 -0.924920 0.378564
vn -0.924920 -0.034808 0.378564
vn -0.924920 0.034808 0.378564
vn -0.997281 0.052112 0.052112
vn -0.378564 -0.034808 0.924920
vn -0.052112 0.052112 0.997281
vn -0.378564 0.034808 0.924920
vn 0.997281 -0.052112 0.052112
vn 0.924920 -0.378564 0.034808
vn 0.924920 -0.378564 -0.034808
vn 0.997281 -0.052112 -0.052112
vn 0.378564 -0.924920 0.034808
vn 0.052112 -0.997281 -0.052112
vn 0.378564 -0.924920 -0.034808
vn 0.378564 -0.034808 0.924920
vn 0.378564 0.034808 0.924920
vn 0.052112 0.052112 0.997281
vn 0.924920 -0.034808 0.378564
vn 0.997281 0.052112 0.052112
vn 0.924920 0.034808 0.378564
vn -0.924921 0.378564 0.034808
vn -0.924921 0.378564 -0.034808
vn -0.997281 0.052112 -0.052112
vn -0.378564 0.924920 0.034808
vn -0.052112 0.997281 0.052112
vn -0.052112 0.997281 -0.052112
vn -0.378564 0.924920 -0.034808
vn -0.034808 0.924920 0.378564
vn 0.034808 0.924920 0.378564
vn 0.052112 0.997281 0.052112
vn -0.034808 0.378564 0.924920
vn 0.034808 0.378564 0.924920
vn 0.378564 0.924920 0.034808
vn 0.378564 0.924920 -0.034808
vn 0.052112 0.997281 -0.052112
vn 0.924921 0.378564 0.034808
vn 0.997281 0.052112 -0.052112
vn 0.924921 0.378564 -0.034808
vn -0.924920 0.034808 -0.378564
vn -0.924920 -0.034808 -0.378564
vn -0.378564 0.034808 -0.924920
vn -0.052112 0.052112 -0.997281
vn -0.052112 -0.052112 -0.997281
vn -0.378564 -0.034808 -0.924920
vn -0.034808 0.378564 -0.924920
vn 0.034808 0.378564 -0.924920
vn 0.052112 0.052112 -0.997281
vn -0.034808 0.924920 -0.378564
vn 0.034808 0.924920 -0.378564
vn 0.378564 0.034808 -0.924920
vn 0.378564 -0.034808 -0.924920
vn 0.052112 -0.052112 -0.997281
vn 0.924920 0.034808 -0.378564
vn 0.924920 -0.034808 -0.378564
vn -0.034808 -0.924920 -0.378564
vn 0.034808 -0.924920 -0.378564
vn -0.034808 -0.378564 -0.924920
vn 0.034808 -0.378564 -0.924920
vn -0.887919 -0.325270 0.325269
vn -0.325269 -0.887919 0.325269
vn -0.325270 -0.325269 0.887919
vn 0.325269 -0.887919 0.325269
vn 0.887919 -0.325270 0.325269
vn 0.325270 -0.325270 0.887919
vn -0.325270 0.887918 0.325270
vn -0.887919 0.325269 0.325270
vn -0.325270 0.325269 0.887919
vn 0.887919 0.325269 0.325270
vn 0.325270 0.887919 0.325270
vn 0.325270 0.325269 0.887919
vn -0.325270 0.325269 -0.887919
vn -0.887919 0.325269 -0.325270
vn -0.325270 0.887919 -0.325270
vn 0.887919 0.325269 -0.325270
vn 0.325270 0.325269 -0.887919
vn 0.325270 0.887918 -0.325270
vn -0.325269 -0.887919 -0.325269
vn -0.887919 -0.325270 -0.325269
vn -0.325270 -0.325270 -0.887919
vn 0.887919 -0.325270 -0.325269
vn 0.325269 -0.887919 -0.325269
vn 0.325270 -0.325269 -0.887919
s 1
g pCube4
usemtl initialShadingGroup
f 2/118/1 1/25/2 37/64/3 42/21/4
s 2
f 1/76/5 6/22/6 38/107/7 37/43/8
s 3
f 4/116/9 3/26/10 11/88/11 10/16/12
s 1
f 3/89/13 2/118/1 12/115/14 11/30/15
s 2
f 6/22/6 5/27/16 15/81/17 14/23/18
s 3
f 5/92/19 4/116/9 16/110/20 15/32/21
s 4
f 8/113/22 7/28/23 43/61/24 48/12/25
s 1
f 7/75/26 12/115/14 44/99/27 43/46/28
s 3
f 10/16/12 9/29/29 23/80/30 22/6/31
s 4
f 9/85/32 8/113/22 24/109/33 23/36/34
s 2
f 14/23/18 13/31/35 27/70/36 26/24/37
s 5
f 13/74/38 18/17/39 28/104/40 27/38/41
f 18/17/39 17/33/42 21/77/43 20/18/44
s 3
f 17/84/45 16/110/20 22/6/31 21/35/46
s 5
f 20/18/44 19/34/47 35/68/48 34/10/49
s 4
f 19/73/50 24/109/33 36/101/51 35/42/52
s 2
f 26/24/37 25/37/53 39/93/54 38/107/7
s 6
f 25/95/55 30/19/56 40/97/57 39/44/58
f 30/19/56 29/39/59 33/65/60 32/20/61
s 5
f 29/72/62 28/104/40 34/10/49 33/41/63
s 6
f 32/20/61 31/40/64 47/60/65 46/15/66
s 4
f 31/69/67 36/101/51 48/12/25 47/48/68
s 1
f 42/21/4 41/45/69 45/57/70 44/99/27
s 6
f 41/63/71 40/97/57 46/15/66 45/47/72
s 3
f 4/2/9 10/114/12 22/111/31 16/5/20
s 5
f 18/120/39 20/119/44 34/105/49 28/9/40
s 6
f 30/106/56 32/103/61 46/98/66 40/14/57
s 1
f 42/100/4 44/13/27 12/3/14 2/1/1
s 4
f 8/4/22 48/102/25 36/11/51 24/7/33
s 2
f 38/8/7 6/117/6 14/112/18 26/108/37
f 5/27/16 6/22/6 1/76/5 49/90/73
s 1
f 1/25/2 2/118/1 3/89/13 49/49/74
s 3
f 3/26/10 4/116/9 5/92/19 49/91/75
s 1
f 11/30/15 12/115/14 7/75/26 50/86/76
s 4
f 7/28/23 8/113/22 9/85/32 50/50/77
s 3
f 9/29/29 10/16/12 11/88/11 50/87/78
s 5
f 17/33/42 18/17/39 13/74/38 51/82/79
s 2
f 13/31/35 14/23/18 15/81/17 51/51/80
s 3
f 15/32/21 16/110/20 17/84/45 51/83/81
s 4
f 23/36/34 24/109/33 19/73/50 52/78/82
s 5
f 19/34/47 20/18/44 21/77/43 52/52/83
s 3
f 21/35/46 22/6/31 23/80/30 52/79/84
s 6
f 29/39/59 30/19/56 25/95/55 53/96/85
s 2
f 25/37/53 26/24/37 27/70/36 53/53/86
s 5
f 27/38/41 28/104/40 29/72/62 53/71/87
s 4
f 35/42/52 36/101/51 31/69/67 54/66/88
s 6
f 31/40/64 32/20/61 33/65/60 54/54/89
s 5
f 33/41/63 34/10/49 35/68/48 54/67/90
s 1
f 41/45/69 42/21/4 37/64/3 55/62/91
s 2
f 37/43/8 38/107/7 39/93/54 55/55/92
s 6
f 39/44/58 40/97/57 41/63/71 55/94/93
s 4
f 47/48/68 48/12/25 43/61/24 56/58/94
s 1
f 43/46/28 44/99/27 45/57/70 56/56/95
s 6
f 45/47/72 46/15/66 47/60/65 56/59/96
