# This file uses centimeters as units for non-parametric coordinates.

mtllib EasterEgg.mtl
g default
v 0.005696 0.000880 -0.003289
v 0.003289 0.000880 -0.005696
v 0.000000 0.000880 -0.006578
v -0.003289 0.000880 -0.005696
v -0.005696 0.000880 -0.003289
v -0.006578 0.000880 0.000000
v -0.005696 0.000880 0.003289
v -0.003289 0.000880 0.005696
v 0.000000 0.000880 0.006578
v 0.003289 0.000880 0.005696
v 0.005696 0.000880 0.003289
v 0.006578 0.000880 0.000000
v 0.011004 0.003462 -0.006353
v 0.006353 0.003462 -0.011004
v 0.000000 0.003462 -0.012707
v -0.006353 0.003462 -0.011004
v -0.011004 0.003462 -0.006353
v -0.012707 0.003462 0.000000
v -0.011004 0.003462 0.006353
v -0.006353 0.003462 0.011004
v 0.000000 0.003462 0.012707
v 0.006353 0.003462 0.011004
v 0.011004 0.003462 0.006353
v 0.012707 0.003462 0.000000
v 0.015563 0.007568 -0.008985
v 0.008985 0.007568 -0.015563
v 0.000000 0.007568 -0.017970
v -0.008985 0.007568 -0.015563
v -0.015563 0.007568 -0.008985
v -0.017970 0.007568 0.000000
v -0.015563 0.007568 0.008985
v -0.008985 0.007568 0.015563
v 0.000000 0.007568 0.017970
v 0.008985 0.007568 0.015563
v 0.015563 0.007568 0.008985
v 0.017970 0.007568 0.000000
v 0.019060 0.012919 -0.011004
v 0.011004 0.012919 -0.019060
v 0.000000 0.012919 -0.022009
v -0.011004 0.012919 -0.019060
v -0.019060 0.012919 -0.011004
v -0.022009 0.012919 0.000000
v -0.019060 0.012919 0.011004
v -0.011004 0.012919 0.019060
v 0.000000 0.012919 0.022009
v 0.011004 0.012919 0.019060
v 0.019060 0.012919 0.011004
v 0.022009 0.012919 0.000000
v 0.021259 0.019150 -0.012274
v 0.012274 0.019150 -0.021259
v 0.000000 0.019150 -0.024548
v -0.012274 0.019150 -0.021259
v -0.021259 0.019150 -0.012274
v -0.024548 0.019150 0.000000
v -0.021259 0.019150 0.012274
v -0.012274 0.019150 0.021259
v 0.000000 0.019150 0.024548
v 0.012274 0.019150 0.021259
v 0.021259 0.019150 0.012274
v 0.024548 0.019150 0.000000
v 0.022009 0.025838 -0.012707
v 0.012707 0.025838 -0.022009
v 0.000000 0.025838 -0.025414
v -0.012707 0.025838 -0.022009
v -0.022009 0.025838 -0.012707
v -0.025414 0.025838 0.000000
v -0.022009 0.025838 0.012707
v -0.012707 0.025838 0.022009
v 0.000000 0.025838 0.025414
v 0.012707 0.025838 0.022009
v 0.022009 0.025838 0.012707
v 0.025414 0.025838 0.000000
v 0.021259 0.037993 -0.012274
v 0.012274 0.037993 -0.021259
v 0.000000 0.037993 -0.024548
v -0.012274 0.037993 -0.021259
v -0.021259 0.037993 -0.012274
v -0.024548 0.037993 0.000000
v -0.021259 0.037993 0.012274
v -0.012274 0.037993 0.021259
v 0.000000 0.037993 0.024548
v 0.012274 0.037993 0.021259
v 0.021259 0.037993 0.012274
v 0.024548 0.037993 0.000000
v 0.019060 0.049915 -0.011004
v 0.011004 0.049915 -0.019060
v 0.000000 0.049915 -0.022009
v -0.011004 0.049915 -0.019060
v -0.019060 0.049915 -0.011004
v -0.022009 0.049915 0.000000
v -0.019060 0.049915 0.011004
v -0.011004 0.049915 0.019060
v 0.000000 0.049915 0.022009
v 0.011004 0.049915 0.019060
v 0.019060 0.049915 0.011004
v 0.022009 0.049915 0.000000
v 0.015563 0.059689 -0.008985
v 0.008985 0.059689 -0.015563
v 0.000000 0.059689 -0.017970
v -0.008985 0.059689 -0.015563
v -0.015563 0.059689 -0.008985
v -0.017970 0.059689 0.000000
v -0.015563 0.059689 0.008985
v -0.008985 0.059689 0.015563
v 0.000000 0.059689 0.017970
v 0.008985 0.059689 0.015563
v 0.015563 0.059689 0.008985
v 0.017970 0.059689 0.000000
v 0.011004 0.067833 -0.006353
v 0.006353 0.067833 -0.011004
v 0.000000 0.067833 -0.012707
v -0.006353 0.067833 -0.011004
v -0.011004 0.067833 -0.006353
v -0.012707 0.067833 0.000000
v -0.011004 0.067833 0.006353
v -0.006353 0.067833 0.011004
v 0.000000 0.067833 0.012707
v 0.006353 0.067833 0.011004
v 0.011004 0.067833 0.006353
v 0.012707 0.067833 0.000000
v 0.005696 0.072039 -0.003289
v 0.003289 0.072039 -0.005696
v 0.000000 0.072039 -0.006578
v -0.003289 0.072039 -0.005696
v -0.005696 0.072039 -0.003289
v -0.006578 0.072039 0.000000
v -0.005696 0.072039 0.003289
v -0.003289 0.072039 0.005696
v 0.000000 0.072039 0.006578
v 0.003289 0.072039 0.005696
v 0.005696 0.072039 0.003289
v 0.006578 0.072039 0.000000
v 0.000000 0.000000 0.000000
v 0.000000 0.073382 0.000000
vt 0.436789 0.212702
vt 0.424726 0.221712
vt 0.416903 0.234741
vt 0.415717 0.249952
vt 0.471906 0.275536
vt 0.483008 0.266747
vt 0.489468 0.254143
vt 0.490558 0.240156
vt 0.486311 0.226976
vt 0.477412 0.216470
vt 0.465077 0.210080
vt 0.450914 0.208719
vt 0.424936 0.185942
vt 0.402528 0.200572
vt 0.385438 0.222545
vt 0.462740 0.313248
vt 0.488501 0.303786
vt 0.507542 0.285219
vt 0.518146 0.261633
vt 0.519504 0.236510
vt 0.511778 0.213138
vt 0.496135 0.194487
vt 0.474631 0.182912
vt 0.449926 0.179900
vt 0.415846 0.159246
vt 0.384462 0.177755
vt 0.358596 0.205768
vt 0.474588 0.347132
vt 0.508544 0.327920
vt 0.532978 0.299699
vt 0.546191 0.266184
vt 0.547096 0.231180
vt 0.535819 0.198782
vt 0.513907 0.172895
vt 0.484167 0.156647
vt 0.450210 0.151936
vt 0.408107 0.132371
vt 0.368807 0.153744
vt 0.335258 0.185812
vt 0.493045 0.377845
vt 0.531477 0.348439
vt 0.559339 0.311312
vt 0.574122 0.268736
vt 0.574073 0.224629
vt 0.559114 0.183858
vt 0.531095 0.151235
vt 0.493532 0.130606
vt 0.450973 0.124201
vt 0.401104 0.105281
vt 0.354709 0.128863
vt 0.314696 0.163613
vt 0.516917 0.404210
vt 0.556587 0.365778
vt 0.586432 0.320762
vt 0.602065 0.269846
vt 0.600710 0.217170
vt 0.581949 0.168439
vt 0.547874 0.129391
vt 0.502700 0.104572
vt 0.451911 0.096493
vt 0.394471 0.078014
vt 0.341593 0.103410
vt 0.296272 0.139960
vt 0.544562 0.425691
vt 0.583103 0.380549
vt 0.614010 0.328688
vt 0.630047 0.269988
vt 0.627166 0.209091
vt 0.604510 0.152647
vt 0.564382 0.107357
vt 0.511689 0.078466
vt 0.452869 0.068737
vt 0.080521 0.283118
vt 0.136545 0.244711
vt 0.198629 0.224572
vt 0.330873 0.618611
vt 0.274822 0.631920
vt 0.213270 0.635095
vt 0.150106 0.621719
vt 0.091990 0.589060
vt 0.046528 0.538310
vt 0.020371 0.474345
vt 0.017603 0.404761
vt 0.038739 0.338324
vt 0.118913 0.318404
vt 0.163221 0.290360
vt 0.213343 0.276738
vt 0.317676 0.565609
vt 0.269459 0.579152
vt 0.219074 0.583068
vt 0.169050 0.573337
vt 0.124089 0.548514
vt 0.089598 0.509947
vt 0.070281 0.461571
vt 0.068980 0.409204
vt 0.085985 0.359451
vt 0.150474 0.348950
vt 0.184560 0.329966
vt 0.223490 0.322752
vt 0.300636 0.518171
vt 0.263060 0.533177
vt 0.223878 0.538688
vt 0.185553 0.532754
vt 0.151689 0.515030
vt 0.126165 0.486989
vt 0.112251 0.451798
vt 0.111876 0.413851
vt 0.125183 0.378049
vt 0.177391 0.378622
vt 0.200572 0.367936
vt 0.226787 0.366286
vt 0.275932 0.476223
vt 0.251729 0.491364
vt 0.225334 0.497821
vt 0.199347 0.495355
vt 0.176565 0.484420
vt 0.159638 0.466433
vt 0.150657 0.443741
vt 0.150794 0.419366
vt 0.160083 0.396616
vt 0.195996 0.404236
vt 0.208583 0.399449
vt 0.222272 0.400225
vt 0.246499 0.449616
vt 0.235932 0.460352
vt 0.222284 0.465556
vt 0.208115 0.465211
vt 0.195509 0.459823
vt 0.186134 0.450387
vt 0.181184 0.438325
vt 0.181294 0.425371
vt 0.186457 0.413401
vt 0.456547 0.241296
vt 0.212168 0.432960
vt 0.234457 0.407265
vt 0.457835 0.277875
vt 0.252819 0.374598
vt 0.263502 0.327009
vt 0.264439 0.275094
vt 0.221853 0.136238
vt 0.255622 0.181161
vt 0.279252 0.205271
vt 0.307464 0.225992
vt 0.340180 0.241512
vt 0.376726 0.250087
vt 0.453842 0.017822
vt 0.381879 0.028246
vt 0.527382 0.030279
vt 0.594032 0.066386
vt 0.645506 0.122943
vt 0.675568 0.193387
vt 0.681515 0.269139
vt 0.665070 0.341520
vt 0.632735 0.404049
vt 0.595999 0.455105
vt 0.258708 0.218750
vt 0.265612 0.096411
vt 0.318145 0.056986
vn 0.294025 -0.940602 -0.169756
vn 0.169755 -0.940602 -0.294025
vn 0.273382 -0.837287 -0.473511
vn 0.473511 -0.837287 -0.273382
vn 0.000000 -0.940602 -0.339511
vn 0.000000 -0.837287 -0.546763
vn -0.169755 -0.940602 -0.294025
vn -0.273382 -0.837287 -0.473511
vn -0.294025 -0.940602 -0.169755
vn -0.473511 -0.837287 -0.273382
vn -0.339511 -0.940602 0.000000
vn -0.546763 -0.837287 0.000000
vn -0.294025 -0.940602 0.169756
vn -0.473511 -0.837287 0.273382
vn -0.169755 -0.940602 0.294025
vn -0.273382 -0.837287 0.473511
vn 0.000000 -0.940602 0.339511
vn 0.000000 -0.837287 0.546763
vn 0.169755 -0.940602 0.294025
vn 0.273382 -0.837287 0.473511
vn 0.294025 -0.940602 0.169755
vn 0.473511 -0.837287 0.273382
vn 0.339511 -0.940602 -0.000000
vn 0.546763 -0.837287 -0.000000
vn 0.367575 -0.677906 -0.636657
vn 0.636657 -0.677906 -0.367575
vn 0.000000 -0.677906 -0.735148
vn -0.367575 -0.677906 -0.636657
vn -0.636657 -0.677906 -0.367575
vn -0.735148 -0.677906 0.000000
vn -0.636657 -0.677906 0.367575
vn -0.367575 -0.677906 0.636657
vn -0.000000 -0.677906 0.735148
vn 0.367575 -0.677906 0.636657
vn 0.636657 -0.677906 0.367575
vn 0.735148 -0.677906 -0.000000
vn 0.439769 -0.475830 -0.761701
vn 0.761701 -0.475830 -0.439769
vn 0.000000 -0.475829 -0.879538
vn -0.439769 -0.475830 -0.761701
vn -0.761701 -0.475830 -0.439769
vn -0.879538 -0.475830 0.000000
vn -0.761701 -0.475830 0.439769
vn -0.439769 -0.475830 0.761701
vn 0.000000 -0.475829 0.879538
vn 0.439769 -0.475830 0.761701
vn 0.761701 -0.475830 0.439769
vn 0.879538 -0.475830 -0.000000
vn 0.484750 -0.245084 -0.839614
vn 0.839614 -0.245084 -0.484750
vn 0.000000 -0.245084 -0.969502
vn -0.484750 -0.245084 -0.839614
vn -0.839614 -0.245084 -0.484750
vn -0.969502 -0.245084 0.000000
vn -0.839614 -0.245084 0.484750
vn -0.484750 -0.245084 0.839614
vn 0.000000 -0.245084 0.969502
vn 0.484750 -0.245084 0.839614
vn 0.839614 -0.245084 0.484750
vn 0.969502 -0.245084 -0.000000
vn 0.500000 0.000441 -0.866025
vn 0.866025 0.000441 -0.500000
vn 0.000000 0.000441 -1.000000
vn -0.500000 0.000441 -0.866025
vn -0.866025 0.000441 -0.500000
vn -1.000000 0.000441 -0.000000
vn -0.866025 0.000441 0.500000
vn -0.500000 0.000441 0.866025
vn -0.000000 0.000441 1.000000
vn 0.500000 0.000441 0.866025
vn 0.866025 0.000441 0.500000
vn 1.000000 0.000441 0.000000
vn 0.495355 0.135991 -0.857980
vn 0.857980 0.135991 -0.495355
vn 0.000000 0.135991 -0.990710
vn -0.495355 0.135991 -0.857980
vn -0.857980 0.135991 -0.495355
vn -0.990710 0.135991 -0.000000
vn -0.857980 0.135991 0.495355
vn -0.495355 0.135991 0.857980
vn -0.000000 0.135991 0.990710
vn 0.495355 0.135991 0.857980
vn 0.857980 0.135991 0.495355
vn 0.990710 0.135991 0.000000
vn 0.480096 0.279344 -0.831550
vn 0.831550 0.279344 -0.480096
vn 0.000000 0.279344 -0.960191
vn -0.480096 0.279344 -0.831550
vn -0.831550 0.279344 -0.480096
vn -0.960191 0.279344 0.000000
vn -0.831550 0.279344 0.480096
vn -0.480096 0.279344 0.831550
vn -0.000000 0.279344 0.960191
vn 0.480096 0.279344 0.831550
vn 0.831550 0.279344 0.480096
vn 0.960191 0.279344 -0.000000
vn 0.447984 0.444119 -0.775931
vn 0.775931 0.444119 -0.447985
vn 0.000000 0.444119 -0.895968
vn -0.447984 0.444119 -0.775931
vn -0.775931 0.444119 -0.447984
vn -0.895968 0.444119 -0.000000
vn -0.775931 0.444119 0.447985
vn -0.447984 0.444119 0.775931
vn -0.000000 0.444119 0.895968
vn 0.447984 0.444119 0.775931
vn 0.775931 0.444119 0.447984
vn 0.895968 0.444119 0.000000
vn 0.388109 0.630465 -0.672224
vn 0.672224 0.630465 -0.388109
vn 0.000000 0.630465 -0.776218
vn -0.388109 0.630465 -0.672224
vn -0.672224 0.630465 -0.388109
vn -0.776218 0.630465 -0.000000
vn -0.672224 0.630465 0.388109
vn -0.388109 0.630465 0.672224
vn -0.000000 0.630465 0.776218
vn 0.388109 0.630465 0.672224
vn 0.672224 0.630465 0.388109
vn 0.776218 0.630465 0.000000
vn 0.252119 0.863564 -0.436684
vn 0.436683 0.863564 -0.252120
vn 0.000000 0.863564 -0.504239
vn -0.252119 0.863564 -0.436683
vn -0.436683 0.863564 -0.252119
vn -0.504239 0.863564 0.000000
vn -0.436683 0.863564 0.252120
vn -0.252119 0.863564 0.436684
vn 0.000000 0.863564 0.504239
vn 0.252119 0.863564 0.436683
vn 0.436683 0.863564 0.252119
vn 0.504239 0.863564 0.000000
vn 0.000000 -1.000000 0.000000
vn 0.000000 1.000000 0.000000
s 1
g EasterEgg
usemtl initialShadingGroup
f 1/1/1 2/2/2 14/14/3 13/13/4
f 2/2/2 3/3/5 15/15/6 14/14/3
f 3/3/5 4/4/7 16/145/8 15/15/6
f 4/136/7 5/5/9 17/17/10 16/16/8
f 5/5/9 6/6/11 18/18/12 17/17/10
f 6/6/11 7/7/13 19/19/14 18/18/12
f 7/7/13 8/8/15 20/20/16 19/19/14
f 8/8/15 9/9/17 21/21/18 20/20/16
f 9/9/17 10/10/19 22/22/20 21/21/18
f 10/10/19 11/11/21 23/23/22 22/22/20
f 11/11/21 12/12/23 24/24/24 23/23/22
f 12/12/23 1/1/1 13/13/4 24/24/24
f 13/13/4 14/14/3 26/26/25 25/25/26
f 14/14/3 15/15/6 27/27/27 26/26/25
f 15/15/6 16/145/8 28/144/28 27/27/27
f 16/16/8 17/17/10 29/29/29 28/28/28
f 17/17/10 18/18/12 30/30/30 29/29/29
f 18/18/12 19/19/14 31/31/31 30/30/30
f 19/19/14 20/20/16 32/32/32 31/31/31
f 20/20/16 21/21/18 33/33/33 32/32/32
f 21/21/18 22/22/20 34/34/34 33/33/33
f 22/22/20 23/23/22 35/35/35 34/34/34
f 23/23/22 24/24/24 36/36/36 35/35/35
f 24/24/24 13/13/4 25/25/26 36/36/36
f 25/25/26 26/26/25 38/38/37 37/37/38
f 26/26/25 27/27/27 39/39/39 38/38/37
f 27/27/27 28/144/28 40/143/40 39/39/39
f 28/28/28 29/29/29 41/41/41 40/40/40
f 29/29/29 30/30/30 42/42/42 41/41/41
f 30/30/30 31/31/31 43/43/43 42/42/42
f 31/31/31 32/32/32 44/44/44 43/43/43
f 32/32/32 33/33/33 45/45/45 44/44/44
f 33/33/33 34/34/34 46/46/46 45/45/45
f 34/34/34 35/35/35 47/47/47 46/46/46
f 35/35/35 36/36/36 48/48/48 47/47/47
f 36/36/36 25/25/26 37/37/38 48/48/48
f 37/37/38 38/38/37 50/50/49 49/49/50
f 38/38/37 39/39/39 51/51/51 50/50/49
f 39/39/39 40/143/40 52/142/52 51/51/51
f 40/40/40 41/41/41 53/53/53 52/52/52
f 41/41/41 42/42/42 54/54/54 53/53/53
f 42/42/42 43/43/43 55/55/55 54/54/54
f 43/43/43 44/44/44 56/56/56 55/55/55
f 44/44/44 45/45/45 57/57/57 56/56/56
f 45/45/45 46/46/46 58/58/58 57/57/57
f 46/46/46 47/47/47 59/59/59 58/58/58
f 47/47/47 48/48/48 60/60/60 59/59/59
f 48/48/48 37/37/38 49/49/50 60/60/60
f 49/49/50 50/50/49 62/62/61 61/61/62
f 50/50/49 51/51/51 63/63/63 62/62/61
f 51/51/51 52/142/52 64/141/64 63/63/63
f 52/52/52 53/53/53 65/65/65 64/64/64
f 53/53/53 54/54/54 66/66/66 65/65/65
f 54/54/54 55/55/55 67/67/67 66/66/66
f 55/55/55 56/56/56 68/68/68 67/67/67
f 56/56/56 57/57/57 69/69/69 68/68/68
f 57/57/57 58/58/58 70/70/70 69/69/69
f 58/58/58 59/59/59 71/71/71 70/70/70
f 59/59/59 60/60/60 72/72/72 71/71/71
f 60/60/60 49/49/50 61/61/62 72/72/72
f 61/61/62 62/62/61 74/158/73 73/147/74
f 62/62/61 63/63/63 75/157/75 74/158/73
f 63/63/63 64/141/64 76/140/76 75/157/75
f 64/64/64 65/65/65 77/154/77 76/155/76
f 65/65/65 66/66/66 78/153/78 77/154/77
f 66/66/66 67/67/67 79/152/79 78/153/78
f 67/67/67 68/68/68 80/151/80 79/152/79
f 68/68/68 69/69/69 81/150/81 80/151/80
f 69/69/69 70/70/70 82/149/82 81/150/81
f 70/70/70 71/71/71 83/148/83 82/149/82
f 71/71/71 72/72/72 84/146/84 83/148/83
f 72/72/72 61/61/62 73/147/74 84/146/84
f 73/73/74 74/74/73 86/86/85 85/85/86
f 74/74/73 75/75/75 87/87/87 86/86/85
f 75/75/75 76/156/76 88/139/88 87/87/87
f 76/76/76 77/77/77 89/89/89 88/88/88
f 77/77/77 78/78/78 90/90/90 89/89/89
f 78/78/78 79/79/79 91/91/91 90/90/90
f 79/79/79 80/80/80 92/92/92 91/91/91
f 80/80/80 81/81/81 93/93/93 92/92/92
f 81/81/81 82/82/82 94/94/94 93/93/93
f 82/82/82 83/83/83 95/95/95 94/94/94
f 83/83/83 84/84/84 96/96/96 95/95/95
f 84/84/84 73/73/74 85/85/86 96/96/96
f 85/85/86 86/86/85 98/98/97 97/97/98
f 86/86/85 87/87/87 99/99/99 98/98/97
f 87/87/87 88/139/88 100/138/100 99/99/99
f 88/88/88 89/89/89 101/101/101 100/100/100
f 89/89/89 90/90/90 102/102/102 101/101/101
f 90/90/90 91/91/91 103/103/103 102/102/102
f 91/91/91 92/92/92 104/104/104 103/103/103
f 92/92/92 93/93/93 105/105/105 104/104/104
f 93/93/93 94/94/94 106/106/106 105/105/105
f 94/94/94 95/95/95 107/107/107 106/106/106
f 95/95/95 96/96/96 108/108/108 107/107/107
f 96/96/96 85/85/86 97/97/98 108/108/108
f 97/97/98 98/98/97 110/110/109 109/109/110
f 98/98/97 99/99/99 111/111/111 110/110/109
f 99/99/99 100/138/100 112/137/112 111/111/111
f 100/100/100 101/101/101 113/113/113 112/112/112
f 101/101/101 102/102/102 114/114/114 113/113/113
f 102/102/102 103/103/103 115/115/115 114/114/114
f 103/103/103 104/104/104 116/116/116 115/115/115
f 104/104/104 105/105/105 117/117/117 116/116/116
f 105/105/105 106/106/106 118/118/118 117/117/117
f 106/106/106 107/107/107 119/119/119 118/118/118
f 107/107/107 108/108/108 120/120/120 119/119/119
f 108/108/108 97/97/98 109/109/110 120/120/120
f 109/109/110 110/110/109 122/122/121 121/121/122
f 110/110/109 111/111/111 123/123/123 122/122/121
f 111/111/111 112/137/112 124/135/124 123/123/123
f 112/112/112 113/113/113 125/125/125 124/124/124
f 113/113/113 114/114/114 126/126/126 125/125/125
f 114/114/114 115/115/115 127/127/127 126/126/126
f 115/115/115 116/116/116 128/128/128 127/127/127
f 116/116/116 117/117/117 129/129/129 128/128/128
f 117/117/117 118/118/118 130/130/130 129/129/129
f 118/118/118 119/119/119 131/131/131 130/130/130
f 119/119/119 120/120/120 132/132/132 131/131/131
f 120/120/120 109/109/110 121/121/122 132/132/132
f 2/2/2 1/1/1 133/133/133
f 3/3/5 2/2/2 133/133/133
f 4/4/7 3/3/5 133/133/133
f 5/5/9 4/136/7 133/133/133
f 6/6/11 5/5/9 133/133/133
f 7/7/13 6/6/11 133/133/133
f 8/8/15 7/7/13 133/133/133
f 9/9/17 8/8/15 133/133/133
f 10/10/19 9/9/17 133/133/133
f 11/11/21 10/10/19 133/133/133
f 12/12/23 11/11/21 133/133/133
f 1/1/1 12/12/23 133/133/133
f 121/121/122 122/122/121 134/134/134
f 122/122/121 123/123/123 134/134/134
f 123/123/123 124/135/124 134/134/134
f 124/124/124 125/125/125 134/134/134
f 125/125/125 126/126/126 134/134/134
f 126/126/126 127/127/127 134/134/134
f 127/127/127 128/128/128 134/134/134
f 128/128/128 129/129/129 134/134/134
f 129/129/129 130/130/130 134/134/134
f 130/130/130 131/131/131 134/134/134
f 131/131/131 132/132/132 134/134/134
f 132/132/132 121/121/122 134/134/134
