# This file uses centimeters as units for non-parametric coordinates.

mtllib Frame.mtl
g default
v -0.216948 6.598703 -4.175632
v -0.173316 -7.525623 -4.165803
v -0.173987 -7.511986 4.068526
v -0.217619 6.612339 4.058697
v 0.408628 -7.521347 -4.165763
v 0.364995 6.602978 -4.175592
v 0.364324 6.616615 4.058738
v 0.407956 -7.507709 4.068566
v -0.467617 7.350034 4.248675
v -0.467677 7.351240 4.977624
v -0.463256 6.749829 4.978620
v -0.466915 7.335755 -4.372863
v -0.417570 -7.653470 4.988911
v -0.413595 -8.187680 4.260845
v -0.413655 -8.186473 4.989794
v -0.412893 -8.201959 -4.360693
v -0.412842 -8.203001 -4.989852
v -0.416756 -7.669997 -4.990735
v -0.462443 6.733302 -5.001026
v -0.466863 7.334713 -5.002022
v 0.172476 -8.081424 -4.831066
v 0.410496 -7.775995 -4.165341
v 0.410538 -7.777863 -4.513078
v 0.169550 -8.081022 -4.222525
v 0.409827 -7.762513 4.068989
v 0.168708 -8.067226 4.125773
v 0.409862 -7.771562 4.520414
v 0.171688 -8.065423 4.830701
v 0.174443 -7.564243 -4.830351
v 0.408656 -7.521935 -4.520523
v 0.130149 6.639257 -4.840332
v 0.365024 6.602391 -4.530421
v 0.120166 7.222287 -4.842848
v 0.362594 6.931957 -4.532527
v 0.117235 7.223849 -4.234310
v 0.362639 6.922597 -4.176121
v 0.116396 7.237704 4.113988
v 0.361966 6.936388 4.058207
v 0.119379 7.238288 4.818919
v 0.361931 6.938265 4.500965
v 0.129361 6.655253 4.818335
v 0.364288 6.617360 4.508587
v 0.173656 -7.548247 4.828276
v 0.407920 -7.506965 4.518345
vt 0.604232 0.075215
vt 0.580586 0.901195
vt 0.578966 0.094951
vt 0.604003 0.923258
vt 0.110467 0.900849
vt 0.085304 0.920826
vt 0.108742 0.094525
vt 0.085326 0.072619
vt 0.644584 0.037040
vt 0.624771 0.060143
vt 0.604289 0.060310
vt 0.608178 0.037624
vt 0.085843 0.057674
vt 0.083022 0.034874
vt 0.059091 0.057207
vt 0.041419 0.035143
vt 0.647673 0.072505
vt 0.624947 0.075052
vt 0.647512 0.925136
vt 0.624748 0.923188
vt 0.641963 0.964932
vt 0.624579 0.942573
vt 0.606043 0.964847
vt 0.603185 0.942029
vt 0.081962 0.962201
vt 0.085489 0.939511
vt 0.036131 0.957361
vt 0.059475 0.939428
vt 0.036313 0.923256
vt 0.059036 0.920816
vt 0.036233 0.070823
vt 0.059000 0.072772
vt 0.683842 0.965646
vt 0.683443 0.930471
vt 0.683557 0.066151
vt 0.653261 0.001856
vt 0.030532 0.996423
vt 0.073160 0.996941
vt 0.613851 0.999746
vt 0.000407 0.929398
vt 0.000331 0.065247
vt 0.000000 0.034054
vt 0.075116 0.000000
vt 0.616797 0.002843
vt 0.032066 0.000272
vt 0.035656 0.040492
vt 0.000616 0.964521
vt 0.040459 0.961634
vt 0.648310 0.042229
vt 0.683780 0.035187
vt 0.650858 1.000000
vt 0.648089 0.959295
vn -0.000082 0.001656 0.999999
vn -0.000082 0.001656 0.999999
vn -0.000082 0.001656 0.999999
vn -0.000082 0.001656 0.999999
vn -0.000082 0.001656 0.999999
vn -0.000082 0.001656 0.999999
vn 0.007354 -0.999972 0.001657
vn 0.007354 -0.999972 0.001657
vn 0.007354 -0.999972 0.001657
vn 0.007354 -0.999972 0.001657
vn 0.007354 -0.999972 0.001657
vn 0.007354 -0.999972 0.001657
vn 0.000082 -0.001656 -0.999999
vn 0.000082 -0.001656 -0.999999
vn 0.000082 -0.001656 -0.999999
vn 0.000082 -0.001656 -0.999999
vn 0.000082 -0.001656 -0.999999
vn 0.000082 -0.001656 -0.999999
vn -0.007355 0.999972 -0.001657
vn -0.007355 0.999972 -0.001657
vn -0.007355 0.999972 -0.001657
vn -0.007355 0.999972 -0.001657
vn -0.007355 0.999972 -0.001657
vn -0.007355 0.999972 -0.001657
vn 0.784611 -0.619976 0.003917
vn 0.784611 -0.619976 0.003917
vn 0.784452 -0.620189 0.001219
vn 0.784611 -0.619976 0.003917
vn 0.784452 -0.620189 0.001219
vn 0.784455 -0.620185 0.001274
vn 0.784145 -0.620578 0.000714
vn 0.784455 -0.620185 0.001274
vn 0.784452 -0.620189 0.001219
vn 0.784145 -0.620578 0.000714
vn 0.784018 -0.620738 0.000554
vn 0.784455 -0.620185 0.001274
vn 0.778796 -0.627249 -0.005964
vn 0.784018 -0.620738 0.000554
vn 0.784145 -0.620578 0.000714
vn 0.778796 -0.627249 -0.005964
vn 0.778796 -0.627249 -0.005964
vn 0.784018 -0.620738 0.000554
vn 0.800529 -0.005301 -0.599271
vn 0.800529 -0.005301 -0.599271
vn 0.797547 0.004153 -0.603242
vn 0.800529 -0.005301 -0.599271
vn 0.797547 0.004153 -0.603242
vn 0.797499 0.004303 -0.603305
vn 0.797499 0.004303 -0.603305
vn 0.797547 0.004153 -0.603242
vn 0.797089 0.005094 -0.603840
vn 0.797499 0.004303 -0.603305
vn 0.797089 0.005094 -0.603840
vn 0.797139 0.005045 -0.603775
vn 0.794440 0.007723 -0.607294
vn 0.797139 0.005045 -0.603775
vn 0.797089 0.005094 -0.603840
vn 0.794440 0.007723 -0.607294
vn 0.794440 0.007723 -0.607294
vn 0.797139 0.005045 -0.603775
vn 0.769203 0.638961 0.007474
vn 0.769203 0.638961 0.007474
vn 0.774852 0.632143 -0.000437
vn 0.769203 0.638961 0.007474
vn 0.774852 0.632143 -0.000437
vn 0.774971 0.631997 -0.000606
vn 0.774971 0.631997 -0.000606
vn 0.774852 0.632143 -0.000437
vn 0.775250 0.631653 -0.001163
vn 0.774971 0.631997 -0.000606
vn 0.775250 0.631653 -0.001163
vn 0.775246 0.631658 -0.001111
vn 0.775395 0.631468 -0.003341
vn 0.775246 0.631658 -0.001111
vn 0.775250 0.631653 -0.001163
vn 0.775395 0.631468 -0.003341
vn 0.775395 0.631468 -0.003341
vn 0.775246 0.631658 -0.001111
vn 0.799841 0.015595 0.600009
vn 0.799841 0.015595 0.600009
vn 0.797435 0.007567 0.603357
vn 0.799841 0.015595 0.600009
vn 0.797435 0.007567 0.603357
vn 0.797391 0.007422 0.603418
vn 0.797391 0.007422 0.603418
vn 0.797435 0.007567 0.603357
vn 0.797038 0.006627 0.603893
vn 0.797391 0.007422 0.603418
vn 0.797038 0.006627 0.603893
vn 0.797079 0.006680 0.603839
vn 0.794587 0.003477 0.607141
vn 0.797079 0.006680 0.603839
vn 0.797038 0.006627 0.603893
vn 0.794587 0.003477 0.607141
vn 0.794587 0.003477 0.607141
vn 0.797079 0.006680 0.603839
vn 0.261765 0.000327 -0.965132
vn 0.261765 0.000326 -0.965132
vn 0.261765 0.000326 -0.965132
vn 0.261765 0.000327 -0.965132
vn 0.261765 0.000327 -0.965132
vn 0.261765 0.000326 -0.965132
vn 0.261765 0.000327 -0.965132
vn 0.261765 0.000327 -0.965132
vn 0.261765 0.000327 -0.965132
vn 0.261765 0.000327 -0.965132
vn 0.261765 0.000327 -0.965132
vn 0.261765 0.000327 -0.965132
vn 0.261765 0.000327 -0.965132
vn 0.261765 0.000327 -0.965132
vn 0.261765 0.000327 -0.965132
vn 0.261765 0.000327 -0.965132
vn 0.261765 0.000327 -0.965132
vn 0.261765 0.000327 -0.965132
vn 0.188516 0.982069 -0.001611
vn 0.188516 0.982069 -0.001611
vn 0.188516 0.982069 -0.001611
vn 0.188516 0.982069 -0.001611
vn 0.188516 0.982069 -0.001611
vn 0.188516 0.982069 -0.001611
vn 0.188516 0.982069 -0.001611
vn 0.188516 0.982069 -0.001611
vn 0.188516 0.982069 -0.001611
vn 0.188516 0.982069 -0.001611
vn 0.188516 0.982069 -0.001611
vn 0.188516 0.982069 -0.001611
vn 0.188516 0.982069 -0.001611
vn 0.188516 0.982069 -0.001611
vn 0.188516 0.982069 -0.001611
vn 0.188516 0.982069 -0.001611
vn 0.188516 0.982069 -0.001611
vn 0.188516 0.982069 -0.001611
vn 0.261608 0.003523 0.965168
vn 0.261608 0.003523 0.965168
vn 0.261609 0.003523 0.965168
vn 0.261608 0.003523 0.965168
vn 0.261609 0.003523 0.965168
vn 0.261609 0.003523 0.965168
vn 0.261609 0.003523 0.965168
vn 0.261609 0.003523 0.965168
vn 0.261609 0.003523 0.965168
vn 0.261609 0.003523 0.965168
vn 0.261609 0.003523 0.965168
vn 0.261609 0.003523 0.965168
vn 0.261609 0.003523 0.965168
vn 0.261609 0.003523 0.965168
vn 0.261608 0.003524 0.965168
vn 0.261609 0.003523 0.965168
vn 0.261608 0.003524 0.965168
vn 0.261608 0.003524 0.965168
vn 0.202941 -0.979190 0.001638
vn 0.202941 -0.979190 0.001638
vn 0.202941 -0.979190 0.001638
vn 0.202941 -0.979190 0.001638
vn 0.202941 -0.979190 0.001638
vn 0.202941 -0.979190 0.001638
vn 0.202941 -0.979190 0.001638
vn 0.202941 -0.979190 0.001638
vn 0.202941 -0.979190 0.001638
vn 0.202941 -0.979190 0.001638
vn 0.202941 -0.979190 0.001638
vn 0.202941 -0.979190 0.001638
vn 0.202941 -0.979190 0.001638
vn 0.202941 -0.979190 0.001638
vn 0.202941 -0.979190 0.001638
vn 0.202941 -0.979190 0.001638
vn 0.202941 -0.979190 0.001638
vn 0.202941 -0.979190 0.001638
vn 0.999973 0.007355 0.000069
vn 0.999973 0.007356 0.000069
vn 0.999973 0.007356 0.000069
vn 0.999973 0.007355 0.000069
vn 0.999973 0.007356 0.000069
vn 0.999973 0.007356 0.000069
vn 0.999973 0.007355 0.000069
vn 0.999973 0.007356 0.000069
vn 0.999973 0.007355 0.000069
vn 0.999973 0.007356 0.000069
vn 0.999973 0.007356 0.000069
vn 0.999973 0.007356 0.000069
vn 0.999973 0.007355 0.000069
vn 0.999973 0.007355 0.000069
vn 0.999973 0.007356 0.000069
vn 0.999973 0.007356 0.000069
vn 0.999973 0.007355 0.000069
vn 0.999973 0.007355 0.000069
vn 0.999973 0.007356 0.000069
vn 0.999973 0.007355 0.000069
vn 0.999973 0.007355 0.000069
vn 0.999973 0.007355 0.000069
vn 0.999973 0.007355 0.000069
vn 0.999973 0.007355 0.000069
vn 0.999973 0.007356 0.000069
vn 0.999973 0.007356 0.000069
vn 0.999973 0.007356 0.000069
vn 0.999973 0.007355 0.000069
vn 0.999973 0.007355 0.000069
vn 0.999973 0.007355 0.000069
vn 0.999973 0.007356 0.000069
vn 0.999973 0.007356 0.000069
vn 0.999973 0.007355 0.000069
vn 0.999973 0.007355 0.000069
vn 0.999973 0.007356 0.000069
vn 0.999973 0.007355 0.000069
vn 0.999973 0.007356 0.000069
vn 0.999973 0.007355 0.000069
vn 0.999973 0.007356 0.000069
vn 0.999973 0.007355 0.000069
vn 0.999973 0.007355 0.000069
vn 0.999973 0.007355 0.000069
vn 0.999973 0.007355 0.000069
vn 0.999973 0.007355 0.000069
vn 0.999973 0.007355 0.000069
vn 0.999973 0.007355 0.000069
vn 0.999973 0.007355 0.000069
vn 0.999973 0.007355 0.000069
s off
g PictureFrameBathroom
usemtl PictureFrameSG
f 5/1/1 1/2/2 2/3/3
f 5/1/4 6/4/5 1/2/6
f 6/4/7 4/5/8 1/2/9
f 6/4/10 7/6/11 4/5/12
f 7/6/13 3/7/14 4/5/15
f 7/6/16 8/8/17 3/7/18
f 8/8/19 2/3/20 3/7/21
f 8/8/22 5/1/23 2/3/24
f 21/9/25 23/10/26 22/11/27
f 21/9/28 22/11/29 24/12/30
f 25/13/31 24/12/32 22/11/33
f 25/13/34 26/14/35 24/12/36
f 27/15/37 26/14/38 25/13/39
f 27/15/40 28/16/41 26/14/42
f 23/10/43 21/49/44 29/17/45
f 23/10/46 29/17/47 30/18/48
f 30/18/49 29/17/50 31/19/51
f 30/18/52 31/19/53 32/20/54
f 33/52/55 32/20/56 31/19/57
f 33/52/58 34/22/59 32/20/60
f 34/22/61 33/21/62 35/23/63
f 34/22/64 35/23/65 36/24/66
f 36/24/67 35/23/68 37/25/69
f 36/24/70 37/25/71 38/26/72
f 39/48/73 38/26/74 37/25/75
f 39/48/76 40/28/77 38/26/78
f 40/28/79 39/27/80 41/29/81
f 40/28/82 41/29/83 42/30/84
f 42/30/85 41/29/86 43/31/87
f 42/30/88 43/31/89 44/32/90
f 28/46/91 44/32/92 43/31/93
f 28/46/94 27/15/95 44/32/96
f 31/19/97 20/33/98 33/52/99
f 31/19/100 19/34/101 20/33/102
f 29/17/103 19/34/104 31/19/105
f 29/17/106 18/35/107 19/34/108
f 21/49/109 18/35/110 29/17/111
f 21/49/112 17/50/113 18/35/114
f 37/25/115 10/37/116 39/48/117
f 37/25/118 9/38/119 10/37/120
f 35/23/121 9/38/122 37/25/123
f 35/23/124 12/39/125 9/38/126
f 33/21/127 12/39/128 35/23/129
f 33/21/130 20/51/131 12/39/132
f 39/27/133 10/47/134 11/40/135
f 39/27/136 11/40/137 41/29/138
f 41/29/139 11/40/140 13/41/141
f 41/29/142 13/41/143 43/31/144
f 43/31/145 13/41/146 15/42/147
f 43/31/148 15/42/149 28/46/150
f 28/16/151 15/45/152 14/43/153
f 28/16/154 14/43/155 26/14/156
f 26/14/157 14/43/158 16/44/159
f 26/14/160 16/44/161 24/12/162
f 24/12/163 16/44/164 17/36/165
f 24/12/166 17/36/167 21/9/168
f 42/30/169 38/26/170 40/28/171
f 42/30/172 7/6/173 38/26/174
f 44/32/175 7/6/176 42/30/177
f 38/26/178 7/6/179 6/4/180
f 44/32/181 8/8/182 7/6/183
f 27/15/184 8/8/185 44/32/186
f 27/15/187 25/13/188 8/8/189
f 5/1/190 8/8/191 25/13/192
f 38/26/193 6/4/194 36/24/195
f 5/1/196 25/13/197 22/11/198
f 36/24/199 6/4/200 32/20/201
f 32/20/202 6/4/203 5/1/204
f 36/24/205 32/20/206 34/22/207
f 32/20/208 5/1/209 30/18/210
f 30/18/211 5/1/212 22/11/213
f 30/18/214 22/11/215 23/10/216
