# This file uses centimeters as units for non-parametric coordinates.

mtllib Rug.mtl
g default
v -0.297555 -0.000002 0.499036
v -0.238079 0.002889 0.499068
v -0.178598 0.002731 0.499084
v -0.119115 -0.000750 0.497927
v -0.059632 -0.002204 0.490945
v -0.000147 -0.000002 0.480647
v 0.059336 -0.002208 0.472436
v 0.118813 -0.000816 0.473304
v 0.178289 0.004701 0.483408
v 0.237755 0.005563 0.498230
v 0.297237 -0.000002 0.510899
v -0.292859 0.011669 0.399182
v -0.234196 0.013192 0.399184
v -0.176555 0.013731 0.399202
v -0.118743 0.013128 0.399025
v -0.059600 0.013774 0.394794
v -0.000110 0.014972 0.387243
v 0.059381 0.016393 0.380397
v 0.118870 0.015620 0.379898
v 0.178356 0.016897 0.387279
v 0.237830 0.018042 0.399085
v 0.297295 0.014528 0.409238
v -0.282430 0.004584 0.299336
v -0.224589 0.004949 0.299355
v -0.169346 0.006391 0.299372
v -0.114858 0.008096 0.299396
v -0.058893 0.009411 0.299419
v -0.000073 0.010281 0.297864
v 0.059424 0.010960 0.295483
v 0.118921 0.011239 0.294442
v 0.178420 0.011000 0.296728
v 0.237904 0.010348 0.301019
v 0.297383 0.009504 0.303561
v -0.277100 -0.003645 0.199578
v -0.219604 -0.002893 0.199597
v -0.165377 -0.001093 0.199607
v -0.112316 0.001101 0.199623
v -0.057863 0.002823 0.199645
v -0.000041 0.003398 0.199668
v 0.059464 0.003400 0.199693
v 0.118970 0.003402 0.199716
v 0.178476 0.003404 0.199740
v 0.237983 0.003405 0.199768
v 0.297491 0.003365 0.199797
v -0.282462 0.004491 0.099859
v -0.224596 0.005071 0.099867
v -0.169339 0.006519 0.099874
v -0.114823 0.008221 0.099895
v -0.058851 0.009426 0.099916
v -0.000016 0.009656 0.099939
v 0.059494 0.009656 0.099962
v 0.118511 0.009285 0.099984
v 0.175625 0.007483 0.100005
v 0.232520 0.005520 0.100018
v 0.290924 0.004781 0.100045
v -0.277095 0.003641 -0.000081
v -0.219607 0.004114 -0.000093
v -0.165369 0.005895 -0.000069
v -0.112290 0.008087 -0.000045
v -0.057828 0.009809 -0.000022
v 0.000000 0.010383 0.000000
v 0.058553 0.009665 0.000022
v 0.113045 0.005898 0.000044
v 0.165461 0.000569 0.000058
v 0.218940 -0.003989 0.000075
v 0.276086 -0.006164 0.000036
v -0.282440 0.016487 -0.099439
v -0.224587 0.017118 -0.099433
v -0.169318 0.018576 -0.099403
v -0.114799 0.020277 -0.099375
v -0.058823 0.021486 -0.099351
v 0.000014 0.021719 -0.099329
v 0.057135 0.019927 -0.099307
v 0.109472 0.014543 -0.099288
v 0.159835 0.007679 -0.099279
v 0.211851 0.002048 -0.099270
v 0.268478 -0.000002 -0.099263
v -0.292770 0.007367 -0.198584
v -0.234034 0.007326 -0.198513
v -0.176394 0.007936 -0.198474
v -0.118611 0.008525 -0.198441
v -0.059471 0.008654 -0.198415
v 0.000040 0.008655 -0.198393
v 0.058592 0.007938 -0.198373
v 0.113079 0.004174 -0.198357
v 0.165495 -0.001118 -0.198348
v 0.218977 -0.005664 -0.198335
v 0.276142 -0.007925 -0.198269
v -0.297503 0.004307 -0.299138
v -0.237978 0.004308 -0.307461
v -0.178462 0.004310 -0.308888
v -0.118949 0.004312 -0.307378
v -0.059439 0.004313 -0.298977
v 0.000071 0.004313 -0.298215
v 0.059579 0.004314 -0.298195
v 0.118594 0.003945 -0.298176
v 0.175705 0.002142 -0.298161
v 0.232608 0.000178 -0.298136
v 0.291023 -0.000657 -0.298122
v -0.297432 0.002980 -0.396262
v -0.237920 0.004372 -0.390148
v -0.178408 0.004776 -0.386769
v -0.118902 0.004775 -0.390062
v -0.059396 0.002987 -0.396082
v 0.000110 0.003915 -0.398168
v 0.059617 0.003914 -0.398148
v 0.119124 0.002701 -0.398127
v 0.178633 0.003911 -0.398103
v 0.238142 0.003912 -0.398086
v 0.297651 0.002701 -0.398056
v -0.297327 0.000000 -0.498237
v -0.237830 -0.000004 -0.494063
v -0.178341 0.002880 -0.488493
v -0.118852 0.002837 -0.493980
v -0.059362 -0.000002 -0.498056
v 0.000143 0.002825 -0.498034
v 0.059654 0.002834 -0.498014
v 0.119160 -0.000002 -0.497992
v 0.178662 0.002832 -0.497972
v 0.238168 0.002825 -0.497950
v 0.297676 -0.000002 -0.497931
vt 0.041275 0.033654
vt 0.133548 0.034463
vt 0.225812 0.035067
vt 0.318110 0.036472
vt 0.410296 0.043332
vt 0.502437 0.053639
vt 0.594661 0.061323
vt 0.686877 0.061441
vt 0.779313 0.053569
vt 0.871672 0.040717
vt 0.964164 0.029383
vt 0.048013 0.126450
vt 0.138980 0.127124
vt 0.228352 0.127790
vt 0.318016 0.128646
vt 0.409731 0.133267
vt 0.501958 0.140920
vt 0.594162 0.147934
vt 0.686430 0.149003
vt 0.778750 0.142958
vt 0.871000 0.132849
vt 0.963283 0.124195
vt 0.063420 0.218941
vt 0.153121 0.219623
vt 0.238815 0.220198
vt 0.323336 0.220760
vt 0.410145 0.221387
vt 0.501370 0.223517
vt 0.593646 0.226404
vt 0.685900 0.228021
vt 0.778185 0.226697
vt 0.870480 0.223519
vt 0.962726 0.221829
vt 0.070936 0.311349
vt 0.160088 0.311957
vt 0.244186 0.312529
vt 0.326505 0.313089
vt 0.410998 0.313684
vt 0.500715 0.314349
vt 0.593035 0.315056
vt 0.685328 0.315753
vt 0.777620 0.316462
vt 0.869919 0.317123
vt 0.962203 0.317709
vt 0.062046 0.403605
vt 0.151788 0.404182
vt 0.237494 0.404749
vt 0.322047 0.405309
vt 0.408848 0.405902
vt 0.500098 0.406552
vt 0.592409 0.407261
vt 0.683946 0.407946
vt 0.772544 0.408543
vt 0.860818 0.409115
vt 0.951409 0.409647
vt 0.069745 0.495868
vt 0.158873 0.496439
vt 0.242963 0.496987
vt 0.325279 0.497536
vt 0.409745 0.498108
vt 0.499435 0.498742
vt 0.590281 0.499469
vt 0.674911 0.500183
vt 0.756351 0.500918
vt 0.839350 0.501643
vt 0.927954 0.502357
vt 0.060957 0.588270
vt 0.150681 0.588840
vt 0.236400 0.589344
vt 0.320916 0.589830
vt 0.407629 0.590339
vt 0.498713 0.590916
vt 0.587108 0.591537
vt 0.668258 0.592162
vt 0.746558 0.592776
vt 0.827425 0.593380
vt 0.915297 0.594002
vt 0.044272 0.680008
vt 0.135346 0.680605
vt 0.224717 0.681203
vt 0.314309 0.681818
vt 0.405996 0.682463
vt 0.498266 0.683054
vt 0.589088 0.683560
vt 0.673679 0.684096
vt 0.755106 0.684615
vt 0.838111 0.685139
vt 0.926763 0.685682
vt 0.036261 0.772776
vt 0.128509 0.781121
vt 0.220787 0.783107
vt 0.313085 0.782383
vt 0.405433 0.775293
vt 0.497740 0.775193
vt 0.590052 0.775728
vt 0.681592 0.776299
vt 0.770186 0.776925
vt 0.858460 0.777544
vt 0.949052 0.778231
vt 0.035726 0.862396
vt 0.128058 0.857410
vt 0.220365 0.854963
vt 0.312625 0.858657
vt 0.404892 0.864873
vt 0.497181 0.867388
vt 0.589472 0.867953
vt 0.681762 0.868563
vt 0.774051 0.869201
vt 0.866325 0.869888
vt 0.958607 0.870555
vt 0.035192 0.956523
vt 0.127484 0.953367
vt 0.219808 0.948831
vt 0.312032 0.954542
vt 0.404299 0.958989
vt 0.496612 0.959523
vt 0.588882 0.960095
vt 0.681157 0.960750
vt 0.773430 0.961357
vt 0.865689 0.962026
vt 0.957999 0.962732
vn -0.037148 0.993489 0.107703
vn -0.020727 0.994058 0.106864
vn -0.018406 0.999712 0.015401
vn -0.027372 0.999420 0.020241
vn 0.016004 0.993225 0.115103
vn 0.001718 0.999705 0.024244
vn 0.028831 0.990105 0.137334
vn 0.008074 0.998923 0.045682
vn 0.009821 0.987751 0.155728
vn -0.005525 0.998298 0.058055
vn 0.010766 0.985598 0.168761
vn -0.003578 0.998085 0.061753
vn 0.012289 0.983265 0.181768
vn 0.000588 0.997964 0.063778
vn -0.044057 0.985084 0.166338
vn -0.020966 0.998215 0.055917
vn -0.059239 0.989007 0.135483
vn -0.031136 0.998834 0.036905
vn 0.010264 0.991464 0.129976
vn 0.012425 0.999388 0.032702
vn 0.049996 0.989831 0.133172
vn 0.047165 0.997832 0.045891
vn -0.017908 0.996709 -0.079065
vn -0.013061 0.996758 -0.079389
vn -0.022936 0.997061 -0.073095
vn -0.022975 0.997747 -0.063030
vn -0.020136 0.998085 -0.058488
vn -0.015764 0.997915 -0.062582
vn -0.007089 0.997650 -0.068149
vn -0.000000 0.997553 -0.069919
vn 0.003494 0.997466 -0.071062
vn 0.016420 0.997577 -0.067602
vn 0.026381 0.997669 -0.062933
vn -0.020164 0.999797 0.000378
vn -0.010610 0.999944 0.000157
vn -0.032966 0.999456 0.000637
vn -0.031478 0.999504 0.000488
vn -0.018284 0.999833 -0.000634
vn -0.006812 0.999972 -0.003234
vn -0.001751 0.999976 -0.006693
vn 0.004810 0.999921 -0.011639
vn 0.011016 0.999769 -0.018451
vn 0.009968 0.999684 -0.023059
vn 0.007735 0.999661 -0.024845
vn -0.019396 0.999183 0.035451
vn -0.010335 0.999304 0.035838
vn -0.032753 0.998851 0.034973
vn -0.031345 0.998898 0.034940
vn -0.016492 0.999253 0.034949
vn -0.001906 0.999417 0.034105
vn 0.011174 0.999552 0.027758
vn 0.029554 0.999513 0.010021
vn 0.038346 0.999148 -0.015282
vn 0.025856 0.999010 -0.036206
vn 0.015159 0.999107 -0.039442
vn -0.019462 0.997993 0.060266
vn -0.009327 0.998144 0.060177
vn -0.032862 0.997637 0.060339
vn -0.031175 0.997689 0.060376
vn -0.016379 0.998039 0.060423
vn 0.003425 0.998317 0.057893
vn 0.036393 0.998290 0.045755
vn 0.075030 0.996953 0.021355
vn 0.083684 0.996481 -0.004772
vn 0.053485 0.998366 -0.020119
vn 0.030678 0.999076 -0.030114
vn -0.015449 0.999766 0.015166
vn -0.007160 0.999904 0.011849
vn -0.025963 0.999624 0.008811
vn -0.023437 0.999725 0.000289
vn -0.011547 0.999915 -0.006106
vn 0.008514 0.999929 -0.008400
vn 0.051887 0.998616 -0.008661
vn 0.100722 0.994878 -0.008585
vn 0.107179 0.994204 -0.008484
vn 0.067195 0.997703 -0.008535
vn 0.037513 0.999259 -0.008645
vn -0.007204 0.998059 -0.061857
vn -0.003197 0.998253 -0.059000
vn -0.011624 0.997688 -0.066961
vn -0.008272 0.997112 -0.075491
vn -0.002718 0.996522 -0.083286
vn 0.006406 0.996421 -0.084286
vn 0.036355 0.996689 -0.072728
vn 0.074777 0.996024 -0.048431
vn 0.083413 0.996267 -0.022215
vn 0.053999 0.998518 -0.006804
vn 0.031863 0.999489 0.002590
vn -0.005752 0.999839 -0.016974
vn -0.006011 0.999790 -0.019607
vn -0.003605 0.999855 -0.016632
vn 0.003025 0.999786 -0.020459
vn 0.001735 0.999663 -0.025892
vn -0.000359 0.999710 -0.024080
vn 0.013757 0.999753 -0.017454
vn 0.029468 0.999565 -0.000748
vn 0.035473 0.999031 0.026043
vn 0.028849 0.998488 0.046793
vn 0.021630 0.998433 0.051613
vn -0.013097 0.999736 -0.018902
vn -0.009992 0.999679 -0.023268
vn -0.007929 0.999905 -0.011297
vn 0.013020 0.999850 -0.011431
vn 0.003475 0.999881 -0.015008
vn -0.010164 0.999887 -0.011051
vn 0.011822 0.999875 -0.010491
vn 0.004602 0.999930 -0.010896
vn -0.003087 0.999995 0.000250
vn 0.017051 0.999817 0.008649
vn 0.025843 0.999633 0.008077
vn -0.016497 0.999311 -0.033245
vn -0.008573 0.999325 -0.035713
vn -0.013165 0.999611 -0.024576
vn 0.018914 0.999592 -0.021407
vn 0.002047 0.999755 -0.022033
vn -0.016066 0.999750 -0.015559
vn 0.016978 0.999745 -0.014890
vn 0.000024 0.999821 -0.018932
vn -0.016959 0.999745 -0.014892
vn 0.016997 0.999745 -0.014901
vn 0.033915 0.999245 -0.018949
s 1
g Rug1
usemtl initialShadingGroup
f 1/1/1 2/2/2 13/13/3 12/12/4
f 2/2/2 3/3/5 14/14/6 13/13/3
f 3/3/5 4/4/7 15/15/8 14/14/6
f 4/4/7 5/5/9 16/16/10 15/15/8
f 5/5/9 6/6/11 17/17/12 16/16/10
f 6/6/11 7/7/13 18/18/14 17/17/12
f 7/7/13 8/8/15 19/19/16 18/18/14
f 8/8/15 9/9/17 20/20/18 19/19/16
f 9/9/17 10/10/19 21/21/20 20/20/18
f 10/10/19 11/11/21 22/22/22 21/21/20
f 12/12/4 13/13/3 24/24/23 23/23/24
f 13/13/3 14/14/6 25/25/25 24/24/23
f 14/14/6 15/15/8 26/26/26 25/25/25
f 15/15/8 16/16/10 27/27/27 26/26/26
f 16/16/10 17/17/12 28/28/28 27/27/27
f 17/17/12 18/18/14 29/29/29 28/28/28
f 18/18/14 19/19/16 30/30/30 29/29/29
f 19/19/16 20/20/18 31/31/31 30/30/30
f 20/20/18 21/21/20 32/32/32 31/31/31
f 21/21/20 22/22/22 33/33/33 32/32/32
f 23/23/24 24/24/23 35/35/34 34/34/35
f 24/24/23 25/25/25 36/36/36 35/35/34
f 25/25/25 26/26/26 37/37/37 36/36/36
f 26/26/26 27/27/27 38/38/38 37/37/37
f 27/27/27 28/28/28 39/39/39 38/38/38
f 28/28/28 29/29/29 40/40/40 39/39/39
f 29/29/29 30/30/30 41/41/41 40/40/40
f 30/30/30 31/31/31 42/42/42 41/41/41
f 31/31/31 32/32/32 43/43/43 42/42/42
f 32/32/32 33/33/33 44/44/44 43/43/43
f 34/34/35 35/35/34 46/46/45 45/45/46
f 35/35/34 36/36/36 47/47/47 46/46/45
f 36/36/36 37/37/37 48/48/48 47/47/47
f 37/37/37 38/38/38 49/49/49 48/48/48
f 38/38/38 39/39/39 50/50/50 49/49/49
f 39/39/39 40/40/40 51/51/51 50/50/50
f 40/40/40 41/41/41 52/52/52 51/51/51
f 41/41/41 42/42/42 53/53/53 52/52/52
f 42/42/42 43/43/43 54/54/54 53/53/53
f 43/43/43 44/44/44 55/55/55 54/54/54
f 45/45/46 46/46/45 57/57/56 56/56/57
f 46/46/45 47/47/47 58/58/58 57/57/56
f 47/47/47 48/48/48 59/59/59 58/58/58
f 48/48/48 49/49/49 60/60/60 59/59/59
f 49/49/49 50/50/50 61/61/61 60/60/60
f 50/50/50 51/51/51 62/62/62 61/61/61
f 51/51/51 52/52/52 63/63/63 62/62/62
f 52/52/52 53/53/53 64/64/64 63/63/63
f 53/53/53 54/54/54 65/65/65 64/64/64
f 54/54/54 55/55/55 66/66/66 65/65/65
f 56/56/57 57/57/56 68/68/67 67/67/68
f 57/57/56 58/58/58 69/69/69 68/68/67
f 58/58/58 59/59/59 70/70/70 69/69/69
f 59/59/59 60/60/60 71/71/71 70/70/70
f 60/60/60 61/61/61 72/72/72 71/71/71
f 61/61/61 62/62/62 73/73/73 72/72/72
f 62/62/62 63/63/63 74/74/74 73/73/73
f 63/63/63 64/64/64 75/75/75 74/74/74
f 64/64/64 65/65/65 76/76/76 75/75/75
f 65/65/65 66/66/66 77/77/77 76/76/76
f 67/67/68 68/68/67 79/79/78 78/78/79
f 68/68/67 69/69/69 80/80/80 79/79/78
f 69/69/69 70/70/70 81/81/81 80/80/80
f 70/70/70 71/71/71 82/82/82 81/81/81
f 71/71/71 72/72/72 83/83/83 82/82/82
f 72/72/72 73/73/73 84/84/84 83/83/83
f 73/73/73 74/74/74 85/85/85 84/84/84
f 74/74/74 75/75/75 86/86/86 85/85/85
f 75/75/75 76/76/76 87/87/87 86/86/86
f 76/76/76 77/77/77 88/88/88 87/87/87
f 78/78/79 79/79/78 90/90/89 89/89/90
f 79/79/78 80/80/80 91/91/91 90/90/89
f 80/80/80 81/81/81 92/92/92 91/91/91
f 81/81/81 82/82/82 93/93/93 92/92/92
f 82/82/82 83/83/83 94/94/94 93/93/93
f 83/83/83 84/84/84 95/95/95 94/94/94
f 84/84/84 85/85/85 96/96/96 95/95/95
f 85/85/85 86/86/86 97/97/97 96/96/96
f 86/86/86 87/87/87 98/98/98 97/97/97
f 87/87/87 88/88/88 99/99/99 98/98/98
f 89/89/90 90/90/89 101/101/100 100/100/101
f 90/90/89 91/91/91 102/102/102 101/101/100
f 91/91/91 92/92/92 103/103/103 102/102/102
f 92/92/92 93/93/93 104/104/104 103/103/103
f 93/93/93 94/94/94 105/105/105 104/104/104
f 94/94/94 95/95/95 106/106/106 105/105/105
f 95/95/95 96/96/96 107/107/107 106/106/106
f 96/96/96 97/97/97 108/108/108 107/107/107
f 97/97/97 98/98/98 109/109/109 108/108/108
f 98/98/98 99/99/99 110/110/110 109/109/109
f 100/100/101 101/101/100 112/112/111 111/111/112
f 101/101/100 102/102/102 113/113/113 112/112/111
f 102/102/102 103/103/103 114/114/114 113/113/113
f 103/103/103 104/104/104 115/115/115 114/114/114
f 104/104/104 105/105/105 116/116/116 115/115/115
f 105/105/105 106/106/106 117/117/117 116/116/116
f 106/106/106 107/107/107 118/118/118 117/117/117
f 107/107/107 108/108/108 119/119/119 118/118/118
f 108/108/108 109/109/109 120/120/120 119/119/119
f 109/109/109 110/110/110 121/121/121 120/120/120
