# This file uses centimeters as units for non-parametric coordinates.

mtllib CardBoardBox.mtl
g default
v 0.099345 0.001125 0.103042
v 0.099345 0.000000 0.099345
v 0.103042 0.001125 0.099345
v 0.104573 0.003842 0.099345
v 0.103042 0.003842 0.103042
v 0.099345 0.003842 0.104573
v 0.099345 0.152582 0.103042
v 0.099345 0.149865 0.104573
v 0.103042 0.149865 0.103042
v 0.104573 0.149865 0.099345
v 0.103042 0.152582 0.099345
v 0.099345 0.153707 0.099345
v 0.103042 0.149865 -0.103042
v 0.099345 0.149865 -0.104573
v 0.099345 0.152582 -0.103042
v 0.099345 0.153707 -0.099345
v 0.103042 0.152582 -0.099345
v 0.104573 0.149865 -0.099345
v 0.103042 0.003842 -0.103042
v 0.104573 0.003842 -0.099345
v 0.103042 0.001125 -0.099345
v 0.099345 0.000000 -0.099345
v 0.099345 0.001125 -0.103042
v 0.099345 0.003842 -0.104573
v -0.103042 0.003842 0.103042
v -0.104573 0.003842 0.099345
v -0.103042 0.001125 0.099345
v -0.099345 0.000000 0.099345
v -0.099345 0.001125 0.103042
v -0.099345 0.003842 0.104573
v -0.103042 0.003842 -0.103042
v -0.099345 0.003842 -0.104573
v -0.099345 0.001125 -0.103042
v -0.099345 0.000000 -0.099345
v -0.103042 0.001125 -0.099345
v -0.104573 0.003842 -0.099345
v -0.103042 0.149865 -0.103042
v -0.104573 0.149865 -0.099345
v -0.103042 0.152582 -0.099345
v -0.099345 0.153707 -0.099345
v -0.099345 0.152582 -0.103042
v -0.099345 0.149865 -0.104573
v -0.103042 0.149865 0.103042
v -0.099345 0.149865 0.104573
v -0.099345 0.152582 0.103042
v -0.099345 0.153707 0.099345
v -0.103042 0.152582 0.099345
v -0.104573 0.149865 0.099345
v 0.102363 0.001625 0.102362
v 0.102363 0.152083 0.102362
v 0.102363 0.152083 -0.102362
v 0.102363 0.001625 -0.102362
v -0.102363 0.001625 0.102362
v -0.102363 0.001625 -0.102362
v -0.102363 0.152083 -0.102362
v -0.102363 0.152083 0.102362
vt 0.738530 0.972017
vt 0.065683 0.020310
vt 0.063433 0.444819
vt 0.487614 0.441220
vt 0.484305 0.022856
vt 0.504524 0.441166
vt 0.738541 0.481658
vt 0.488804 0.444043
vt 0.483501 0.025723
vt 0.248181 0.481632
vt 0.505638 0.443836
vt 0.923147 0.443712
vt 0.929376 0.440239
vt 0.258256 0.487382
vt 0.919441 0.015826
vt 0.500484 0.025514
vt 0.064443 0.026501
vt 0.065096 0.451046
vt 0.748616 0.487422
vt 0.748592 0.977781
vt 0.258232 0.977742
vt 0.501215 0.022802
vt 0.925397 0.019203
vt 0.248171 0.971991
vt 0.738794 0.981889
vt 0.065103 0.459526
vt 0.065616 0.011816
vt 0.748391 0.972282
vt 0.056616 0.451374
vt 0.064309 0.018007
vt 0.054950 0.445081
vt 0.758487 0.487151
vt 0.063373 0.453299
vt 0.496071 0.441020
vt 0.748856 0.987654
vt 0.488357 0.449679
vt 0.758453 0.978046
vt 0.492759 0.023001
vt 0.748412 0.481386
vt 0.485019 0.014409
vt 0.500473 0.014344
vt 0.497222 0.443770
vt 0.238300 0.972263
vt 0.505044 0.452291
vt 0.489616 0.452495
vt 0.247898 0.981852
vt 0.933879 0.018941
vt 0.937852 0.440357
vt 0.247917 0.471760
vt 0.929581 0.448732
vt 0.238320 0.481367
vt 0.927920 0.015406
vt 0.931620 0.443987
vt 0.248361 0.978013
vt 0.919363 0.007345
vt 0.923214 0.452206
vt 0.491991 0.025795
vt 0.257992 0.477511
vt 0.499621 0.017067
vt 0.248395 0.487117
vt 0.746768 0.980258
vt 0.058179 0.458244
vt 0.057416 0.019399
vt 0.496083 0.447765
vt 0.492746 0.016257
vt 0.497305 0.450518
vt 0.239927 0.980232
vt 0.932371 0.012059
vt 0.936468 0.447268
vt 0.926292 0.008557
vt 0.930118 0.450868
vt 0.491909 0.019055
vt 0.484146 0.017271
vt 0.250018 0.479141
vt 0.249987 0.985982
vt 0.257959 0.987604
vt 0.925456 0.010723
vt 0.239943 0.473391
vt 0.746785 0.473417
vt 0.738814 0.471796
vt 0.503810 0.449612
vt 0.756830 0.986023
vt 0.055968 0.026291
vt 0.756860 0.479182
vt 0.056459 0.451962
vt 0.748889 0.477561
vt 0.058712 0.013154
vt 0.057209 0.020035
vn 0.005529 -0.999969 0.005529
vn 0.003462 -0.956773 0.290815
vn -0.003462 -0.956773 0.290815
vn -0.005529 -0.999969 0.005529
vn 0.004679 -0.490395 0.871488
vn 0.007516 -0.010227 0.999919
vn -0.007516 -0.010227 0.999919
vn -0.004679 -0.490395 0.871488
vn 0.999920 -0.010227 0.007516
vn 0.871488 -0.490394 0.004678
vn 0.871488 -0.490394 -0.004678
vn 0.999920 -0.010227 -0.007516
vn 0.290829 -0.956769 0.003462
vn 0.005529 -0.999969 -0.005529
vn 0.290829 -0.956769 -0.003462
vn 0.382220 -0.006230 0.924051
vn 0.382220 0.006230 0.924051
vn 0.007516 0.010227 0.999919
vn 0.924058 -0.006229 0.382201
vn 0.999920 0.010227 0.007516
vn 0.924058 0.006229 0.382201
vn 0.004679 0.490394 0.871488
vn -0.004679 0.490394 0.871488
vn -0.007516 0.010227 0.999919
vn 0.003462 0.956773 0.290814
vn 0.005529 0.999969 0.005529
vn -0.005529 0.999969 0.005529
vn -0.003462 0.956773 0.290814
vn 0.290829 0.956769 0.003462
vn 0.290829 0.956769 -0.003462
vn 0.005529 0.999969 -0.005529
vn 0.871488 0.490394 0.004678
vn 0.999920 0.010227 -0.007516
vn 0.871488 0.490394 -0.004678
vn 0.007515 0.010225 -0.999920
vn 0.382138 0.006230 -0.924084
vn 0.382138 -0.006230 -0.924084
vn 0.007515 -0.010225 -0.999920
vn 0.924072 0.006228 -0.382167
vn 0.924072 -0.006228 -0.382167
vn 0.003462 0.956782 -0.290787
vn -0.003462 0.956782 -0.290787
vn -0.005529 0.999969 -0.005529
vn 0.004679 0.490301 -0.871540
vn -0.007515 0.010225 -0.999920
vn -0.004679 0.490301 -0.871540
vn 0.004679 -0.490302 -0.871540
vn -0.004679 -0.490302 -0.871540
vn -0.007515 -0.010225 -0.999920
vn 0.003462 -0.956782 -0.290787
vn -0.005529 -0.999969 -0.005529
vn -0.003462 -0.956782 -0.290787
vn -0.999920 -0.010227 0.007516
vn -0.924058 -0.006229 0.382201
vn -0.924058 0.006229 0.382201
vn -0.999920 0.010227 0.007516
vn -0.382220 -0.006230 0.924051
vn -0.382220 0.006230 0.924051
vn -0.290829 -0.956769 0.003462
vn -0.290829 -0.956769 -0.003462
vn -0.871488 -0.490394 0.004678
vn -0.999920 -0.010227 -0.007516
vn -0.871488 -0.490394 -0.004678
vn -0.382138 -0.006230 -0.924084
vn -0.382138 0.006230 -0.924084
vn -0.924072 -0.006228 -0.382167
vn -0.999920 0.010227 -0.007516
vn -0.924072 0.006228 -0.382167
vn -0.290829 0.956769 -0.003462
vn -0.290829 0.956769 0.003462
vn -0.871488 0.490394 -0.004678
vn -0.871488 0.490394 0.004678
vn 0.311561 -0.423903 0.850433
vn 0.251614 -0.934552 0.251600
vn 0.850453 -0.423885 0.311530
vn 0.251614 0.934552 0.251602
vn 0.311561 0.423903 0.850433
vn 0.850453 0.423886 0.311530
vn 0.850449 0.423906 -0.311512
vn 0.311560 0.423903 -0.850433
vn 0.251627 0.934551 -0.251590
vn 0.311561 -0.423903 -0.850433
vn 0.850449 -0.423907 -0.311512
vn 0.251628 -0.934552 -0.251588
vn -0.311561 -0.423903 0.850433
vn -0.850453 -0.423886 0.311530
vn -0.251614 -0.934552 0.251600
vn -0.850449 -0.423906 -0.311513
vn -0.311560 -0.423903 -0.850433
vn -0.251628 -0.934552 -0.251587
vn -0.311561 0.423904 -0.850432
vn -0.850449 0.423907 -0.311512
vn -0.251628 0.934551 -0.251589
vn -0.850453 0.423885 0.311530
vn -0.311560 0.423903 0.850433
vn -0.251614 0.934552 0.251602
s 1
g Box
usemtl initialShadingGroup
f 2/1/1 1/25/2 29/46/3 28/24/4
s 2
f 1/26/5 6/18/6 30/8/7 29/45/8
s 3
f 4/2/9 3/27/10 21/40/11 20/5/12
s 1
f 3/28/13 2/1/1 22/7/14 21/39/15
s 2
f 6/18/6 5/29/16 9/83/17 8/17/18
s 3
f 5/88/19 4/2/9 10/3/20 9/31/21
s 2
f 8/17/18 7/30/22 45/73/23 44/9/24
s 4
f 7/86/25 12/19/26 46/14/27 45/58/28
f 12/19/26 11/32/29 17/37/30 16/20/31
s 3
f 11/33/32 10/3/20 18/4/33 17/36/34
s 5
f 14/6/35 13/34/36 19/38/37 24/22/38
s 3
f 13/34/39 18/4/33 20/5/12 19/38/40
s 4
f 16/20/31 15/35/41 41/76/42 40/21/43
s 5
f 15/81/44 14/6/35 42/12/45 41/56/46
f 24/22/38 23/41/47 33/77/48 32/23/49
s 1
f 23/80/50 22/7/14 34/10/51 33/49/52
s 6
f 26/11/53 25/42/54 43/57/55 48/16/56
s 2
f 25/42/57 30/8/7 44/9/24 43/57/58
s 1
f 28/24/4 27/43/59 35/51/60 34/10/51
s 6
f 27/44/61 26/11/53 36/13/62 35/50/63
s 5
f 32/23/49 31/47/64 37/53/65 42/12/45
s 6
f 31/48/66 36/13/62 38/15/67 37/52/68
s 4
f 40/21/43 39/54/69 47/60/70 46/14/27
s 6
f 39/55/71 38/15/67 48/16/56 47/59/72
s 2
f 8/17/18 44/9/24 30/8/7 6/18/6
s 4
f 46/14/27 12/19/26 16/20/31 40/21/43
s 3
f 18/4/33 10/3/20 4/2/9 20/5/12
s 5
f 42/12/45 14/6/35 24/22/38 32/23/49
s 1
f 2/1/1 28/24/4 34/10/51 22/7/14
s 6
f 26/11/53 48/16/56 38/15/67 36/13/62
s 2
f 5/29/16 6/18/6 1/26/5 49/62/73
s 1
f 1/25/2 2/1/1 3/28/13 49/61/74
s 3
f 3/27/10 4/2/9 5/88/19 49/87/75
s 4
f 11/32/29 12/19/26 7/86/25 50/84/76
s 2
f 7/30/22 8/17/18 9/83/17 50/63/77
s 3
f 9/31/21 10/3/20 11/33/32 50/85/78
f 17/36/34 18/4/33 13/34/39 51/64/79
s 5
f 13/34/36 14/6/35 15/81/44 51/64/80
s 4
f 15/35/41 16/20/31 17/37/30 51/82/81
s 5
f 23/41/47 24/22/38 19/38/37 52/65/82
s 3
f 19/38/40 20/5/12 21/40/11 52/65/83
s 1
f 21/39/15 22/7/14 23/80/50 52/79/84
s 2
f 29/45/8 30/8/7 25/42/57 53/66/85
s 6
f 25/42/54 26/11/53 27/44/61 53/66/86
s 1
f 27/43/59 28/24/4 29/46/3 53/67/87
s 6
f 35/50/63 36/13/62 31/48/66 54/69/88
s 5
f 31/47/64 32/23/49 33/77/48 54/68/89
s 1
f 33/49/52 34/10/51 35/51/60 54/78/90
s 5
f 41/56/46 42/12/45 37/53/65 55/71/91
s 6
f 37/52/68 38/15/67 39/55/71 55/70/92
s 4
f 39/54/69 40/21/43 41/76/42 55/75/93
s 6
f 47/59/72 48/16/56 43/57/55 56/72/94
s 2
f 43/57/58 44/9/24 45/73/23 56/72/95
s 4
f 45/58/28 46/14/27 47/60/70 56/74/96
