# This file uses centimeters as units for non-parametric coordinates.

mtllib CouchFrame.mtl
g default
v -0.254992 0.100944 0.400000
v 0.254992 0.000000 0.406518
v -0.254992 0.000000 0.400000
v -0.254992 0.000000 -0.410000
v 0.254992 0.000000 -0.416518
v -0.254992 0.100944 -0.410000
v -0.152996 0.000000 0.500000
v -0.152996 0.000000 -0.500000
v -0.152996 0.100944 -0.500000
v -0.152996 0.107462 -0.410000
v -0.152996 0.100944 0.400000
v -0.152996 0.100944 0.500000
v -0.152996 0.270954 0.500000
v -0.152996 0.286862 0.493411
v -0.152996 0.293452 0.477502
v 0.232495 0.293452 0.477502
v 0.248403 0.286862 0.493411
v 0.232495 0.293452 0.422498
v 0.248403 0.286862 0.406590
v -0.160950 0.293452 0.392046
v -0.180152 0.293452 0.400000
v -0.152996 0.293452 0.419203
v -0.152996 0.287827 0.405624
v -0.152996 0.274249 0.400000
v -0.152996 0.293452 0.372843
v -0.170556 0.282859 0.408489
v -0.157893 0.278677 0.386655
v -0.160950 0.293452 -0.402046
v -0.152996 0.293452 -0.382843
v -0.152996 0.274249 -0.410000
v -0.152996 0.287827 -0.415624
v -0.152996 0.293452 -0.429203
v -0.180152 0.293452 -0.410000
v -0.157893 0.278677 -0.396655
v -0.170556 0.282859 -0.418489
v 0.232495 0.293452 -0.432498
v 0.248403 0.286862 -0.416589
v 0.232495 0.293452 -0.477502
v 0.248403 0.286862 -0.493411
v -0.152996 0.293452 -0.477502
v -0.152996 0.286862 -0.493411
v -0.152996 0.270954 -0.500000
v -0.254992 0.286862 -0.493411
v -0.254992 0.286862 0.493411
v -0.175493 0.420439 0.400000
v -0.159585 0.413850 0.393411
v -0.152996 0.397941 0.377502
v -0.152996 0.397941 -0.387502
v -0.159585 0.413850 -0.403411
v -0.175493 0.420439 -0.410000
v -0.160934 0.285515 0.397789
v -0.160934 0.285515 -0.407789
v -0.254992 0.000000 0.493482
v -0.248475 0.000000 0.500000
v -0.254992 0.100944 0.493482
v -0.248475 0.100944 0.500000
v 0.248475 0.000000 0.500000
v 0.254992 0.000000 0.493482
v 0.248475 0.100944 0.500000
v 0.254992 0.100944 0.493482
v -0.248475 0.100944 -0.500000
v -0.254992 0.100944 -0.493482
v -0.254992 0.000000 -0.493482
v -0.248475 0.000000 -0.500000
v 0.254992 0.100944 -0.493482
v 0.248475 0.100944 -0.500000
v 0.248475 0.000000 -0.500000
v 0.254992 0.000000 -0.493482
v 0.254992 0.100944 0.406518
v 0.248475 0.107462 0.400000
v 0.248475 0.107462 -0.410000
v 0.254992 0.100944 -0.416518
v -0.254992 0.278907 -0.496706
v -0.246384 0.270954 -0.500000
v -0.254992 0.286934 -0.403482
v -0.248475 0.293452 -0.410000
v -0.246384 0.293452 -0.477502
v -0.254992 0.290157 -0.485456
v -0.246384 0.270954 0.500000
v -0.254992 0.278907 0.496706
v -0.248475 0.293452 0.400000
v -0.254992 0.286934 0.393482
v -0.254992 0.413921 0.393482
v -0.248475 0.420439 0.400000
v -0.254992 0.413921 -0.403482
v -0.248475 0.420439 -0.410000
v -0.254992 0.290157 0.485456
v -0.246384 0.293452 0.477502
v 0.254992 0.270954 0.493482
v 0.253345 0.274931 0.498353
v 0.248475 0.270954 0.500000
v 0.248475 0.271007 0.400000
v 0.253345 0.274931 0.401647
v 0.254992 0.270954 0.406518
v 0.254992 0.270954 -0.416518
v 0.253345 0.274931 -0.411647
v 0.248475 0.271007 -0.410000
v 0.248475 0.270954 -0.500000
v 0.253345 0.274931 -0.498353
v 0.254992 0.270954 -0.493482
vt 0.102004 0.686573
vt 0.648102 0.753040
vt 0.189323 0.502800
vt 0.073608 0.207126
vt 0.148125 0.483651
vt 0.042250 0.206731
vt 0.866528 0.183158
vt 0.892491 0.177283
vt 0.772601 0.492513
vt 0.773182 0.566909
vt 0.190997 0.578913
vt 0.152227 0.498332
vt 0.179424 0.490316
vt 0.783225 0.474534
vt 0.812578 0.477277
vt 0.171334 0.503836
vt 0.159417 0.484671
vt 0.792357 0.487444
vt 0.806576 0.460452
vt 0.182073 0.591182
vt 0.782313 0.578526
vt 0.165995 0.495014
vt 0.798479 0.474735
vt 0.807232 0.012580
vt 0.865833 0.448008
vt 0.090875 0.472551
vt 0.080665 0.196302
vt 0.030327 0.190349
vt 0.796149 0.460006
vt 0.903866 0.161838
vt 0.859101 0.170334
vt 0.801915 0.987220
vt 0.711058 0.749478
vt 0.718405 0.867293
vt 0.130450 0.023669
vt 0.112481 0.084162
vt 0.027527 0.180833
vt 0.974866 0.646268
vt 0.987975 0.979550
vt 0.045914 0.754881
vt 0.873318 0.985550
vt 0.805201 0.988331
vt 0.805457 0.994552
vt 0.912984 0.153881
vt 0.907382 0.153446
vt 0.812871 0.072864
vt 0.813691 0.012251
vt 0.174704 0.113310
vt 0.089632 0.193376
vt 0.085514 0.189781
vt 0.761998 0.103261
vt 0.854905 0.162514
vt 0.850392 0.166317
vt 0.051934 0.882538
vt 0.074803 0.518977
vt 0.107151 0.965235
vt 0.800000 0.922760
vt 0.791933 0.651712
vt 0.860084 0.649684
vt 0.220825 0.380433
vt 0.757563 0.110055
vt 0.758432 0.030440
vt 0.181547 0.040982
vt 0.646663 0.684676
vt 0.709162 0.681813
vt 0.102320 0.754684
vt 0.802586 0.923885
vt 0.868152 0.920737
vt 0.648475 0.879158
vt 0.107356 0.880133
vt 0.194041 0.661819
vt 0.858877 0.514907
vt 0.817566 0.459716
vt 0.853433 0.449873
vt 0.880865 0.492553
vt 0.123779 0.606557
vt 0.795202 0.583958
vt 0.103453 0.474833
vt 0.154299 0.509314
vt 0.178629 0.120091
vt 0.170598 0.485007
vt 0.731176 0.392488
vt 0.859783 0.650176
vt 0.877891 0.445601
vt 0.870712 0.921121
vt 0.870069 0.985200
vt 0.078815 0.470235
vt 0.984812 0.980365
vt 0.108391 0.537072
vt 0.179647 0.603404
vt 0.810171 0.490559
vt 0.779688 0.641533
vt 0.894415 0.491846
vt 0.993622 0.985525
vt 0.711195 0.875310
vt 0.061409 0.517762
vt 0.022891 0.181612
vt 0.086437 0.190727
vt 0.853282 0.163935
vt 0.911123 0.153751
vt 0.785188 0.590467
vt 0.842530 0.590769
vt 0.849753 0.588276
vt 0.864385 0.516230
vt 0.888915 0.494369
vt 0.045616 0.686742
vt 0.873582 0.991770
vt 0.044297 0.874972
vt 0.046548 0.880333
vt 0.783980 0.578573
vt 0.649753 0.970591
vt 0.169874 0.597222
vt 0.654221 0.884724
vt 0.706554 0.881820
vt 0.056086 0.514990
vt 0.870251 0.991423
vt 0.802099 0.993443
vt 0.066969 0.520063
vt 0.716439 0.872749
vt 0.180519 0.591054
vt 0.774786 0.648209
vt 0.188627 0.655386
vt 0.643806 0.965571
vt 0.021514 0.181774
vt 0.107320 0.080160
vt 0.124022 0.022154
vt 0.990373 0.986424
vt 0.053054 0.508565
vt 0.982932 0.917316
vt 0.791653 0.652927
vt 0.818642 0.069743
vt 0.974529 0.645548
vt 0.985454 0.916511
vt 0.902412 0.482174
vt 0.899600 0.488845
vn -1.000000 -0.000000 0.000000
vn -1.000000 0.000000 0.000000
vn -1.000000 0.000000 0.000000
vn -1.000000 -0.000000 0.000000
vn 1.000000 0.000871 0.000000
vn 1.000000 0.000871 0.000000
vn 1.000000 0.000871 0.000000
vn 1.000000 0.000954 -0.000352
vn 0.999996 0.000554 -0.002728
vn 0.999996 0.000554 0.002728
vn 1.000000 0.000954 0.000352
vn 1.000000 0.000871 0.000000
vn 0.002760 0.996437 0.084300
vn 0.000000 0.923879 0.382685
vn 0.000000 0.923879 0.382685
vn 0.020907 0.993030 0.115996
vn -0.000000 0.382682 0.923880
vn -0.000000 0.035930 0.999354
vn 0.000000 0.052350 0.998629
vn 0.000000 0.382683 0.923880
vn 0.000000 0.382682 0.923880
vn 0.077346 -0.002921 0.997000
vn 0.380344 -0.014363 0.924734
vn 0.380344 -0.014363 0.924734
vn 0.067365 -0.002544 0.997725
vn 0.924490 -0.004626 0.381179
vn 0.997003 0.076345 0.012512
vn 0.921177 -0.016005 0.388815
vn 0.924490 -0.004626 -0.381179
vn 0.921176 -0.016005 -0.388816
vn 0.997003 0.076345 -0.012512
vn 0.380344 -0.014363 -0.924734
vn 0.077346 -0.002921 -0.997000
vn 0.067365 -0.002544 -0.997725
vn 0.380344 -0.014363 -0.924734
vn 0.003608 0.996597 0.082349
vn -0.011691 0.926998 0.374883
vn 0.003197 0.924484 0.381208
vn 0.021971 0.991959 0.124638
vn 0.003119 0.383270 0.923631
vn 0.000280 0.034442 0.999407
vn 0.000407 0.050011 0.998749
vn 0.003119 0.383270 0.923631
vn 0.003119 0.383270 0.923631
vn 0.022202 0.993803 -0.108915
vn 0.003115 0.997465 -0.071094
vn 0.003171 0.995293 -0.096863
vn 0.020480 0.991000 -0.132286
vn -0.000001 0.382682 0.923880
vn -0.000001 0.382682 0.923880
vn -0.000000 0.053089 0.998590
vn 0.010804 0.996081 0.087781
vn 0.000000 0.923879 0.382684
vn 0.000000 0.923879 0.382684
vn 0.382685 0.923879 0.000000
vn 0.382685 0.923879 0.000000
vn 0.923880 0.382683 0.000000
vn 0.923880 0.382683 0.000000
vn 0.998510 0.054574 0.000000
vn 0.998510 0.054574 0.000000
vn 0.923880 0.382683 0.000000
vn 0.923880 0.382683 0.000000
vn 0.003197 0.924484 -0.381208
vn -0.011691 0.926998 -0.374883
vn 0.003119 0.383270 -0.923631
vn 0.003119 0.383270 -0.923631
vn 0.000400 0.049161 -0.998791
vn 0.000275 0.033831 -0.999428
vn 0.003119 0.383270 -0.923631
vn 0.382685 0.923879 0.000000
vn 0.382685 0.923879 0.000000
vn 0.923880 0.382682 0.000000
vn 0.923880 0.382682 0.000000
vn 0.998492 0.054896 0.000000
vn 0.998492 0.054896 0.000000
vn 0.923880 0.382682 0.000000
vn 0.923880 0.382682 0.000000
vn 0.000000 0.923879 -0.382685
vn 0.000000 0.923879 -0.382685
vn 0.000000 0.382682 -0.923880
vn 0.000000 0.382683 -0.923880
vn 0.000000 0.052350 -0.998629
vn 0.000000 0.035930 -0.999354
vn 0.000000 0.382682 -0.923880
vn 0.000000 0.923879 -0.382684
vn 0.000000 0.923879 -0.382684
vn 0.012011 0.995182 -0.097304
vn -0.000000 0.053089 -0.998590
vn -0.000001 0.382682 -0.923880
vn -0.000001 0.382682 -0.923880
vn 0.058837 0.998268 0.000000
vn 0.382685 0.923879 0.000000
vn 0.382685 0.923879 0.000000
vn 0.058837 0.998268 0.000000
vn 0.923880 0.382682 0.000000
vn 0.923880 0.382682 0.000000
vn 0.942798 0.076674 0.324428
vn 0.354177 0.678229 0.643866
vn 0.354177 0.678229 0.643866
vn 0.354177 0.678229 0.643866
vn 0.354177 0.678229 0.643866
vn 0.008108 0.999661 -0.024756
vn -0.299679 0.925422 -0.231918
vn 0.777202 0.464356 -0.424654
vn 0.777202 0.464356 -0.424654
vn 0.777202 0.464356 -0.424654
vn 0.777202 0.464356 -0.424654
vn 0.354180 0.678228 -0.643866
vn 0.354180 0.678228 -0.643866
vn 0.354180 0.678228 -0.643866
vn 0.354180 0.678228 -0.643866
vn 0.942798 0.076674 -0.324428
vn 0.777201 0.464356 0.424655
vn 0.777201 0.464356 0.424655
vn 0.777201 0.464356 0.424655
vn 0.777201 0.464356 0.424655
vn 0.009337 0.999550 0.028508
vn -0.299679 0.925422 0.231918
vn -0.707093 0.000000 0.707121
vn -0.707093 0.000000 0.707121
vn -0.608586 -0.002838 0.793483
vn -0.609115 -0.002823 0.793077
vn -0.545863 -0.004482 0.837862
vn -0.545863 -0.004482 0.837862
vn 0.707093 0.000000 0.707121
vn 0.707093 0.000000 0.707121
vn 0.707093 0.000000 0.707120
vn 0.707093 0.000000 0.707120
vn 0.707090 -0.003321 0.707116
vn 0.707090 -0.003321 0.707116
vn -0.608586 -0.002838 -0.793483
vn -0.609115 -0.002823 -0.793077
vn -0.545863 -0.004482 -0.837862
vn -0.545863 -0.004482 -0.837862
vn -0.707093 0.000000 -0.707121
vn -0.707093 0.000000 -0.707121
vn 0.707093 0.000000 -0.707120
vn 0.707093 0.000000 -0.707120
vn 0.707090 -0.003321 -0.707116
vn 0.707090 -0.003321 -0.707116
vn 0.707093 0.000000 -0.707121
vn 0.707093 0.000000 -0.707121
vn 0.707096 0.000000 -0.707118
vn 0.707096 0.000000 -0.707118
vn 0.707078 -0.003397 -0.707128
vn 0.707078 -0.003352 -0.707128
vn 0.707097 0.707116 0.000000
vn 0.707097 0.707116 0.000000
vn 0.707097 0.707116 0.000000
vn 0.707097 0.707116 0.000000
vn 0.707093 0.000000 0.707121
vn 0.707093 0.000000 0.707121
vn 0.707076 -0.003352 0.707130
vn 0.707075 -0.003397 0.707130
vn -0.544878 0.838450 0.010461
vn -0.544878 0.838450 0.010461
vn -0.544878 0.838450 0.010461
vn -0.544878 0.838450 0.010461
vn -0.707094 0.000000 -0.707120
vn -0.707094 0.000000 -0.707120
vn -0.707094 0.000000 -0.707120
vn -0.707094 0.000000 -0.707120
vn -0.544802 0.838514 -0.009228
vn -0.544802 0.838514 -0.009228
vn -0.544802 0.838514 -0.009228
vn -0.544802 0.838514 -0.009228
vn -0.707093 0.000000 0.707121
vn -0.707092 0.000000 0.707121
vn -0.707093 0.000000 0.707121
vn -0.707092 0.000000 0.707121
vn -0.707098 0.707116 0.000000
vn -0.707098 0.707116 0.000000
vn -0.707098 0.707116 0.000000
vn -0.707098 0.707116 0.000000
vn 0.000000 0.000000 1.000000
vn 0.000000 0.000000 1.000000
vn 0.000000 0.000000 1.000000
vn 0.000000 0.000000 1.000000
vn -0.008117 0.999959 0.004023
vn -0.008117 0.999959 0.004023
vn -0.008117 0.999959 0.004023
vn -0.008117 0.999959 0.004023
vn 0.000000 0.000000 -1.000000
vn 0.000000 0.000000 -1.000000
vn 0.000000 0.000000 -1.000000
vn 0.000000 0.000000 -1.000000
vn 1.000000 0.000000 0.000000
vn 1.000000 0.000000 0.000000
vn 1.000000 0.000000 0.000000
vn 1.000000 0.000000 0.000000
vn 1.000000 0.000000 0.000000
vn 1.000000 0.000000 0.000000
vn -1.000000 0.000000 0.000000
vn -1.000000 -0.000000 0.000000
vn 1.000000 0.000000 0.000000
vn 1.000000 0.000000 0.000000
vn -1.000000 -0.000000 0.000000
vn -1.000000 0.000000 0.000000
vn 0.000000 0.000000 -1.000000
vn 0.000000 0.000000 -1.000000
vn 0.000000 0.000000 1.000000
vn 0.000000 0.000000 1.000000
vn -1.000000 -0.000000 0.000000
vn -1.000000 -0.000000 0.000000
vn -1.000000 0.000000 0.000000
vn -1.000000 0.000000 0.000000
vn 0.016692 0.999582 0.023606
vn 0.016692 0.999582 0.023606
vn 0.000000 1.000000 0.000000
vn 0.000000 1.000000 0.000000
vn 0.014453 0.999687 -0.020440
vn 0.014453 0.999687 -0.020440
vn 0.000000 0.000000 -1.000000
vn 0.000000 0.000000 -1.000000
vn 0.000000 0.000000 1.000000
vn 0.000000 0.000000 1.000000
vn 0.000000 0.000000 1.000000
vn 0.000000 0.000000 1.000000
vn 0.000000 0.000000 -1.000000
vn 0.000000 0.000000 -1.000000
vn -1.000000 -0.000000 0.000000
vn -1.000000 -0.000000 0.000000
vn -1.000000 -0.000000 0.000000
vn -1.000000 -0.000000 0.000000
vn -1.000000 -0.000000 0.000000
vn -1.000000 -0.000000 0.000000
vn 0.613466 -0.497292 0.613482
vn 0.610429 -0.499776 -0.614492
vn 0.610429 -0.499776 0.614492
vn 0.613466 -0.497292 -0.613482
s 1
g Couch1Frame
usemtl initialShadingGroup
f 6/66/1 4/1/2 3/64/3 1/2/4
s 2
f 11/60/5 10/82/6 30/29/7 34/14/8 29/9/9 25/3/10 27/13/11 24/81/12
s 3
f 15/78/13 14/26/14 17/28/15 16/6/16
s 4
f 14/26/17 13/87/18 91/124/19 90/97/20 17/28/21
s 5
f 21/79/22 20/16/23 46/120/24 45/112/25
s 2
f 20/16/26 25/3/10 47/11/27 46/120/28
f 29/9/9 28/18/29 49/110/30 48/10/31
s 6
f 28/18/32 33/91/33 50/77/34 49/110/35
s 7
f 32/73/36 31/19/37 37/31/38 36/7/39
s 8
f 31/19/40 30/29/41 97/53/42 96/99/43 37/31/44
s 3
f 18/4/45 22/5/46 15/78/13 16/6/16
s 7
f 40/74/47 32/73/36 36/7/39 38/8/48
s 2
f 47/11/27 25/3/10 29/9/9 48/10/31
s 4
f 13/87/18 14/26/17 44/96/49 80/115/50 79/128/51
s 3
f 14/26/14 15/78/13 88/55/52 87/118/53 44/96/54
f 16/6/16 17/28/55 19/27/56 18/4/45
s 9
f 17/28/57 90/97/58 89/37/59 94/50/60 93/98/61 19/27/62
s 3
f 18/4/45 19/27/63 23/17/64 22/5/46
s 10
f 19/27/65 93/98/66 92/49/67 24/81/68 23/17/69
s 7
f 36/7/39 37/31/70 39/30/71 38/8/48
s 9
f 37/31/72 96/99/73 95/52/74 100/45/75 99/100/76 39/30/77
s 7
f 38/8/48 39/30/78 41/25/79 40/74/47
s 12
f 39/30/80 99/100/81 98/44/82 42/84/83 41/25/84
s 7
f 40/74/47 41/25/79 43/93/85 78/105/86 77/75/87
s 12
f 41/25/84 42/84/83 74/134/88 73/135/89 43/93/90
s 13
f 45/90/91 46/20/92 49/21/93 50/101/94
s 2
f 46/20/95 47/11/27 48/10/31 49/21/96
f 27/13/11 25/3/10 20/16/26 51/22/97
s off
f 20/16/98 21/79/99 26/12/100 51/22/101
s 3
f 26/12/102 22/5/46 23/17/64 51/22/103
s off
f 23/17/104 24/81/105 27/13/106 51/22/107
f 35/15/108 33/91/109 28/18/110 52/23/111
s 2
f 28/18/29 29/9/9 34/14/8 52/23/112
s off
f 34/14/113 30/29/114 31/19/115 52/23/116
s 7
f 31/19/37 32/73/36 35/15/117 52/23/118
s 14
f 53/117/119 54/32/120 56/86/121 55/116/122
f 55/116/122 56/86/121 79/88/123 80/127/124
s 15
f 57/126/125 58/35/126 60/36/127 59/125/128
f 59/125/128 60/36/127 89/37/129 91/124/130
s 16
f 61/41/131 62/107/132 73/94/133 74/39/134
f 62/107/132 61/41/131 64/42/135 63/43/136
s 17
f 65/46/137 66/131/138 98/44/139 100/45/140
f 66/131/138 65/46/137 68/24/141 67/47/142
s 18
f 69/48/143 70/80/144 92/49/145 94/50/146
s off
f 70/80/147 69/48/148 72/51/149 71/61/150
s 19
f 71/61/151 72/51/152 95/52/153 97/53/154
s off
f 75/104/155 76/72/156 77/75/157 78/105/158
f 76/72/159 75/104/160 85/103/161 86/102/162
f 81/113/163 82/69/164 87/95/165 88/114/166
f 82/69/167 81/113/168 84/111/169 83/123/170
f 83/71/171 84/122/172 86/92/173 85/121/174
s 4
f 12/68/175 7/57/176 57/58/177 59/59/178
s off
f 10/82/179 11/60/180 70/80/181 71/61/182
s 12
f 8/67/183 9/85/184 66/83/185 67/130/186
s 9
f 69/48/187 2/63/188 5/62/189 72/51/190
f 60/36/191 58/35/192 2/63/188 69/48/187
s 1
f 1/2/4 3/64/3 53/65/193 55/33/194
s 9
f 72/51/190 5/62/189 68/24/195 65/46/196
s 1
f 62/40/197 63/106/198 4/1/2 6/66/1
s 12
f 61/41/199 9/85/184 8/67/183 64/42/200
s 4
f 56/86/201 54/32/202 7/57/176 12/68/175
s 1
f 6/66/1 1/2/4 82/69/203 75/70/204
f 75/70/204 82/69/203 83/123/205 85/56/206
s 7
f 76/72/207 33/91/208 35/15/117 32/73/36 40/74/47 77/75/87
s 13
f 84/122/209 45/90/91 50/101/94 86/92/210
s 3
f 81/89/211 88/55/52 15/78/13 22/5/46 26/12/102 21/79/212
s 4
f 12/68/175 59/59/178 91/38/19 13/129/18
s 9
f 60/36/191 69/48/187 94/50/60 89/37/59
s 10
f 70/80/213 11/60/214 24/81/68 92/49/67
s 8
f 10/82/215 71/61/216 97/53/42 30/29/41
s 9
f 72/51/190 65/46/196 100/45/75 95/52/74
s 12
f 66/83/185 9/85/184 42/133/83 98/132/82
f 9/85/184 61/41/199 74/39/88 42/133/83
s 4
f 56/86/201 12/68/175 13/129/18 79/88/51
s 5
f 81/89/217 21/79/22 45/112/25 84/76/218
s 6
f 50/77/34 33/91/33 76/72/219 86/102/220
s 1
f 62/40/197 6/66/1 75/70/204 78/54/221 43/109/222 73/108/223
f 87/95/224 82/69/203 1/2/4 55/33/194 80/34/225 44/119/226
s 15
f 89/37/129 90/97/227 91/124/130
s 18
f 92/49/145 93/98/228 94/50/146
s 19
f 95/52/153 96/99/229 97/53/154
s 17
f 98/44/139 99/100/230 100/45/140
