# This file uses centimeters as units for non-parametric coordinates.

mtllib Keypad.mtl
g default
v -0.058870 0.000000 0.000000
v 0.000000 0.000000 0.000000
v -0.058870 0.089684 0.000000
v 0.000000 0.089684 0.000000
v -0.058870 0.089684 -0.021826
v 0.000000 0.089684 -0.021826
v -0.058870 -0.000000 -0.021826
v 0.000000 -0.000000 -0.021826
v -0.058870 0.066272 -0.021826
v -0.058870 0.066272 0.000000
v 0.000000 0.066272 0.000000
v 0.000000 0.066272 -0.021826
v -0.058870 0.084332 -0.021826
v -0.058870 0.084332 0.000000
v 0.000000 0.084332 0.000000
v 0.000000 0.084332 -0.021826
v -0.058870 0.056980 -0.021826
v -0.058870 0.056980 0.000000
v 0.000000 0.056980 0.000000
v 0.000000 0.056980 -0.021826
v -0.041209 0.089684 -0.021826
v -0.041209 0.089684 0.000000
v -0.041209 0.084332 0.000000
v -0.041209 0.066272 0.000000
v -0.041209 0.056980 0.000001
v -0.041209 -0.000000 0.000001
v -0.041209 -0.000000 -0.021826
v -0.020604 0.089684 -0.021826
v -0.020604 0.089684 0.000000
v -0.020604 0.084332 0.000000
v -0.020604 0.066272 0.000000
v -0.020604 0.056980 0.000001
v -0.020604 -0.000000 0.000001
v -0.020604 -0.000000 -0.021826
v -0.058870 0.028490 -0.021826
v -0.058870 0.028490 0.000001
v -0.041209 0.028490 0.000001
v -0.020604 0.028490 0.000001
v 0.000000 0.028490 0.000001
v -0.000000 0.028490 -0.021826
v -0.058870 0.042735 -0.021826
v -0.058870 0.042735 0.000001
v -0.041209 0.042735 0.000001
v -0.020605 0.042735 0.000001
v 0.000000 0.042735 0.000001
v -0.000000 0.042735 -0.021826
v -0.058870 0.014245 -0.021826
v -0.058870 0.014245 0.000001
v -0.041209 0.014245 0.000001
v -0.020605 0.014245 0.000001
v 0.000000 0.014245 0.000001
v 0.000000 0.014245 -0.021826
vt 0.847020 0.000977
vt 0.000977 0.000977
vt 0.847020 0.754629
vt 0.184429 0.991403
vt 0.000977 0.496703
vt 0.663400 0.754629
vt 0.663603 0.000977
vt 0.184596 0.496690
vt 0.663603 0.557891
vt 0.847020 0.557891
vt 0.998989 0.495700
vt 0.663400 0.557891
vt 0.663603 0.709657
vt 0.847257 0.000977
vt 0.892242 0.991406
vt 0.663400 0.709657
vt 0.663603 0.479808
vt 0.847020 0.479808
vt 0.479808 0.000977
vt 0.663400 0.479808
vt 0.000987 0.645117
vt 0.847237 0.645111
vt 0.847247 0.149390
vt 0.446299 0.842989
vt 0.479808 0.347276
vt 0.000977 0.347276
vt 0.184596 0.842989
vt 0.001000 0.818267
vt 0.847254 0.818261
vt 0.847235 0.322540
vt 0.446299 0.669839
vt 0.479808 0.174126
vt 0.000977 0.174126
vt 0.184596 0.669839
vt 0.663603 0.240392
vt 0.847020 0.240392
vt 0.240392 0.347276
vt 0.240392 0.174126
vt 0.240392 0.000977
vt 0.663401 0.240392
vt 0.663603 0.360100
vt 0.360100 0.495690
vt 0.360100 0.347276
vt 0.360100 0.174126
vt 0.479984 0.360100
vt 0.663401 0.360100
vt 0.663603 0.120684
vt 0.120684 0.495690
vt 0.120684 0.347276
vt 0.120684 0.174126
vt 0.479984 0.120684
vt 0.663401 0.120684
vt 0.120684 0.000977
vt 0.479984 0.240392
vt 0.847020 0.120684
vt 0.240392 0.495690
vt 0.360100 0.000977
vt 0.479984 0.479808
vt 0.847020 0.360100
vt 0.368216 0.991403
vt 0.368013 0.669839
vt 0.479984 0.000977
vt 0.368013 0.842989
vt 0.479984 0.557891
vt 0.999023 0.000987
vt 0.479984 0.709657
vt 0.479984 0.754629
vt 0.847020 0.709657
vt 0.184393 0.496690
vt 0.001013 0.991416
vt 0.663603 0.754629
vt 0.000977 0.495690
vt 0.184417 0.818253
vt 0.847271 0.991410
vt 0.184404 0.645104
vt 0.663401 0.000977
vt 0.368013 0.496690
vt 0.184596 0.991403
vt 0.368013 0.991403
vt 0.847223 0.496697
vt 0.999001 0.322551
vt 0.446299 0.496689
vt 0.892226 0.818256
vt 0.847223 0.495690
vt 0.999013 0.149401
vt 0.892209 0.645107
vt 0.892194 0.496693
vt 0.446299 0.991403
vt 0.368216 0.669839
vt 0.368215 0.496690
vt 0.368216 0.842989
vt 0.479808 0.495690
vn 0.000000 0.000000 1.000000
vn 0.000000 0.000000 1.000000
vn 0.000000 0.000000 1.000000
vn 0.000000 0.000000 1.000000
vn 0.000000 1.000000 0.000000
vn 0.000000 1.000000 0.000000
vn 0.000000 1.000000 0.000000
vn 0.000000 1.000000 0.000000
vn 0.000004 -1.000000 0.000004
vn 0.000004 -1.000000 0.000004
vn 0.000008 -1.000000 0.000008
vn 0.000008 -1.000000 0.000008
vn 1.000000 0.000000 0.000000
vn 1.000000 0.000000 0.000000
vn 1.000000 0.000000 0.000000
vn 1.000000 0.000000 0.000000
vn -1.000000 0.000000 0.000000
vn -1.000000 0.000000 0.000000
vn -1.000000 0.000000 0.000000
vn -1.000000 0.000000 0.000000
vn -1.000000 -0.000000 0.000000
vn -1.000000 -0.000000 0.000000
vn -1.000000 0.000000 0.000000
vn -1.000000 0.000000 0.000000
vn 0.000004 0.000026 1.000000
vn 0.000012 0.000041 1.000000
vn 0.000023 0.000041 1.000000
vn 0.000008 0.000017 1.000000
vn 1.000000 -0.000002 -0.000001
vn 1.000000 -0.000002 -0.000001
vn 1.000000 0.000000 0.000000
vn 1.000000 0.000000 0.000000
vn -1.000000 0.000000 0.000001
vn -1.000000 0.000000 0.000001
vn 0.000006 0.000008 1.000000
vn 0.000012 0.000017 1.000000
vn 1.000000 -0.000001 -0.000003
vn 1.000000 -0.000001 -0.000003
vn 0.000000 1.000000 0.000000
vn 0.000000 1.000000 0.000000
vn 0.000000 1.000000 0.000000
vn 0.000000 1.000000 0.000000
vn 0.000000 0.000000 1.000000
vn 0.000000 0.000000 1.000000
vn 0.000000 0.000000 1.000000
vn 0.000000 0.000000 1.000000
vn -0.000009 0.000017 1.000000
vn -0.000004 0.000027 1.000000
vn -0.000027 0.000041 1.000000
vn -0.000012 0.000041 1.000000
vn -0.000013 0.000017 1.000000
vn -0.000006 0.000008 1.000000
vn -0.000009 -1.000000 0.000008
vn -0.000004 -1.000000 0.000003
vn -0.000004 -1.000000 0.000003
vn -0.000009 -1.000000 0.000008
vn -1.000000 -0.000000 0.000001
vn -1.000000 -0.000000 0.000001
vn -1.000000 0.000000 0.000001
vn -1.000000 0.000000 0.000001
vn -0.000013 -0.000017 1.000000
vn -0.000006 -0.000008 1.000000
vn 0.000000 0.000000 1.000000
vn 0.000000 0.000000 1.000000
vn 0.000000 0.000000 1.000000
vn 0.000003 -0.000004 1.000000
vn 0.000000 0.000000 1.000000
vn 0.000006 -0.000008 1.000000
vn 1.000000 0.000001 0.000001
vn 1.000000 0.000001 0.000001
vn 1.000000 0.000003 -0.000003
vn 1.000000 0.000003 -0.000003
vn -1.000000 0.000001 0.000001
vn -1.000000 0.000001 0.000001
vn -0.000027 -0.000033 1.000000
vn -0.000012 -0.000015 1.000000
vn 0.000006 -0.000008 1.000000
vn 0.000012 -0.000017 1.000000
vn 1.000000 -0.000003 0.000002
vn 1.000000 -0.000003 0.000002
s 1
g pCube1
usemtl initialShadingGroup
f 29/29/1 30/83/2 15/15/3 4/74/4
s 2
f 28/28/5 29/73/6 4/4/7 6/70/8
s 3
f 33/61/9 34/34/10 8/8/11 2/77/12
s 4
f 15/66/13 16/16/14 6/6/15 4/67/16
s 5
f 13/13/17 14/68/18 3/3/19 5/71/20
f 17/17/21 18/18/22 10/10/23 9/9/24
s 1
f 31/31/25 32/89/26 19/90/27 11/82/28
s 4
f 19/58/29 20/20/30 12/12/31 11/64/32
s 5
f 9/9/24 10/10/23 14/68/18 13/13/17
s 1
f 30/30/2 31/81/25 11/11/28 15/84/3
s 4
f 11/64/32 12/12/31 16/16/14 15/66/13
s 5
f 41/41/33 42/59/34 18/18/22 17/17/21
s 1
f 32/32/26 44/44/35 45/57/36 19/19/27
s 4
f 45/45/37 46/46/38 20/20/30 19/58/29
s 2
f 3/69/39 22/75/40 21/21/41 5/5/42
s 1
f 14/87/43 23/86/44 22/22/45 3/80/46
f 10/65/47 24/85/48 23/23/44 14/14/43
f 18/60/49 25/91/50 24/24/48 10/88/47
f 42/42/51 43/43/52 25/25/50 18/92/49
s 3
f 7/78/53 27/27/54 26/63/55 1/79/56
s 2
f 21/21/41 22/75/40 29/73/6 28/28/5
s 1
f 22/22/45 23/86/44 30/83/2 29/29/1
f 23/23/44 24/85/48 31/81/25 30/30/2
f 24/24/48 25/91/50 32/89/26 31/31/25
f 25/25/50 43/43/52 44/44/35 32/32/26
s 3
f 26/63/55 27/27/54 34/34/10 33/61/9
s 5
f 47/47/57 48/55/58 36/36/59 35/35/60
s 1
f 48/48/61 49/49/62 37/37/63 36/56/64
f 38/38/65 37/37/63 49/49/62 50/50/66
f 39/39/67 38/38/65 50/50/66 51/53/68
s 4
f 51/51/69 52/52/70 40/40/71 39/54/72
s 5
f 35/35/60 36/36/59 42/59/34 41/41/33
s 1
f 36/56/64 37/37/63 43/43/52 42/42/51
f 44/44/35 43/43/52 37/37/63 38/38/65
f 45/57/36 44/44/35 38/38/65 39/39/67
s 4
f 39/54/72 40/40/71 46/46/38 45/45/37
s 5
f 7/7/73 1/1/74 48/55/58 47/47/57
s 1
f 1/72/75 26/26/76 49/49/62 48/48/61
f 50/50/66 49/49/62 26/26/76 33/33/77
f 51/53/68 50/50/66 33/33/77 2/2/78
s 4
f 2/62/79 8/76/80 52/52/70 51/51/69
