# This file uses centimeters as units for non-parametric coordinates.

mtllib BathroomShell.mtl
g default
v -649.907776 -359.780731 -378.000000
v -626.802307 -359.780731 -378.000000
v -649.907776 -6.958920 180.454803
v -649.907776 286.151215 180.454803
v -649.907837 -6.958920 -595.220154
v -649.907776 -6.958920 -377.275360
v -626.802368 -6.958920 -377.275330
v -649.907776 286.151215 -77.443687
v -626.802307 -359.780731 -77.443687
v -649.907776 -359.780731 -77.443687
v -649.907776 -6.958920 -77.443687
v -649.907776 -224.702606 180.454803
v -649.907776 -224.702606 -77.443687
v -649.907776 -224.702606 -377.275330
v -626.802307 -224.702606 -77.443687
v -626.802307 -224.702606 -377.275330
v -626.802307 -224.702606 164.447235
v -649.907776 -224.702606 164.447052
v -649.907776 -6.958920 164.447052
v -649.907776 286.151215 164.447052
v -649.907776 -359.418365 180.454803
v -626.802307 -359.418365 164.447235
v -649.907776 -359.418365 164.447052
v -626.802368 -359.780731 -595.220093
v -649.907837 -359.780731 -595.220093
v -626.802307 -6.958920 -595.220154
v -649.907837 286.151215 -595.220093
v -649.907837 286.151215 -377.275330
v -649.907837 -6.958920 -640.141113
v -649.907837 286.151215 -640.141052
v -649.907837 -359.780731 -640.141052
vt 0.637686 0.664856
vt 0.900353 0.664856
vt 0.637686 0.860164
vt 0.900353 0.860165
vt 0.637686 0.179398
vt 0.900353 0.179398
vt 0.637686 0.396166
vt 0.900353 0.396166
vt 0.442557 0.179398
vt 0.442557 0.396166
vt 0.442557 0.664856
vt 0.321509 0.396166
vt 0.321509 0.665505
vt 0.900462 0.165053
vt 0.921168 0.165053
vt 0.900462 0.360181
vt 0.921168 0.360181
vt 0.360983 0.179398
vt 0.381689 0.179398
vt 0.360983 0.374706
vt 0.381688 0.374707
vt 0.900462 0.481231
vt 0.921168 0.481231
vt 0.382035 0.179398
vt 0.402741 0.179398
vt 0.382035 0.300447
vt 0.402741 0.300447
vt 0.942567 0.165053
vt 0.963273 0.165053
vt 0.942568 0.381821
vt 0.963274 0.381821
vt 0.442557 0.165053
vt 0.637686 0.165053
vt 0.900353 0.165053
vt 0.321833 0.165053
vt 0.321833 0.179398
vt 0.321509 0.185754
vt 0.341213 0.179392
vt 0.358600 0.300638
vt 0.273585 0.224929
vt 0.215631 0.212324
vt 0.274029 0.214913
vt 0.942220 0.481230
vt 0.921515 0.481230
vt 0.942220 0.165053
vt 0.921515 0.165053
vt 0.900353 0.900420
vt 0.637686 0.900420
vt 0.321509 0.860165
vt 0.321509 0.900420
vn -1.000000 0.000000 -0.000000
vn -1.000000 0.000000 -0.000000
vn -1.000000 0.000000 -0.000000
vn -1.000000 0.000000 -0.000000
vn -1.000000 0.000000 -0.000000
vn -1.000000 0.000000 -0.000000
vn -1.000000 0.000000 0.000000
vn -1.000000 0.000000 0.000000
vn -1.000000 0.000000 -0.000000
vn -1.000000 0.000000 -0.000000
vn -1.000000 0.000000 0.000000
vn -1.000000 0.000000 -0.000000
vn -1.000000 0.000000 -0.000000
vn -1.000000 0.000000 -0.000000
vn -1.000000 0.000000 -0.000000
vn -1.000000 0.000000 -0.000000
vn -1.000000 0.000000 -0.000000
vn -1.000000 0.000000 -0.000000
vn -1.000000 0.000000 0.000000
vn -1.000000 0.000000 0.000000
vn -1.000000 0.000000 -0.000000
vn -1.000000 0.000000 -0.000000
vn -1.000000 0.000000 0.000000
vn -1.000000 0.000000 -0.000000
vn -1.000000 0.000000 -0.000000
vn -1.000000 0.000000 -0.000000
vn -1.000000 0.000000 -0.000000
vn -1.000000 0.000000 -0.000000
vn -1.000000 0.000000 -0.000000
vn -1.000000 0.000000 -0.000000
vn -1.000000 0.000000 -0.000000
vn -1.000000 0.000000 -0.000000
vn -1.000000 0.000000 -0.000000
vn -1.000000 0.000000 -0.000000
vn -1.000000 0.000000 -0.000000
vn -1.000000 0.000000 -0.000000
vn 0.000000 0.000000 -1.000000
vn 0.000000 0.000000 -1.000000
vn 0.000000 0.000000 -1.000000
vn 0.000000 0.000000 -1.000000
vn 0.000000 0.000000 -1.000000
vn 0.000000 0.000000 -1.000000
vn 0.000000 -1.000000 0.000000
vn 0.000000 -1.000000 0.000000
vn 0.000000 -1.000000 0.000000
vn 0.000000 -1.000000 0.000000
vn 0.000000 -1.000000 0.000000
vn 0.000000 -1.000000 0.000000
vn 0.000000 0.000000 -1.000000
vn 0.000000 0.000000 -1.000000
vn 0.000000 0.000000 -1.000000
vn 0.000000 0.000000 -1.000000
vn 0.000000 0.000000 -1.000000
vn 0.000000 0.000000 -1.000000
vn 0.000000 0.000000 1.000000
vn 0.000000 0.000000 1.000000
vn 0.000000 0.000000 1.000000
vn 0.000000 0.000000 1.000000
vn 0.000000 0.000000 1.000000
vn 0.000000 0.000000 1.000000
vn 0.000000 -1.000000 0.000000
vn 0.000000 -1.000000 0.000000
vn 0.000000 -1.000000 0.000000
vn 0.000000 -1.000000 0.000000
vn 0.000000 -1.000000 0.000000
vn 0.000000 -1.000000 0.000000
vn -1.000000 0.000000 -0.000000
vn -1.000000 0.000000 -0.000000
vn -1.000000 0.000000 0.000000
vn -1.000000 0.000000 0.000000
vn -1.000000 0.000000 -0.000000
vn -1.000000 0.000000 0.000000
vn -1.000000 0.000000 -0.000000
vn -1.000000 0.000000 -0.000000
vn -1.000000 0.000000 0.000000
vn -1.000000 0.000000 0.000000
vn -1.000000 0.000000 -0.000000
vn -1.000000 0.000000 0.000000
vn -1.000000 0.000000 0.000000
vn -1.000000 0.000000 0.000000
vn -1.000000 0.000000 0.000000
vn -1.000000 0.000000 0.000000
vn -1.000000 0.000000 0.000000
vn -1.000000 0.000000 0.000000
vn 0.000005 0.000000 -1.000000
vn 0.000006 0.000000 -1.000000
vn 0.000009 0.000000 -1.000000
vn 0.000009 0.000000 -1.000000
vn 0.000006 0.000000 -1.000000
vn 0.000010 0.000000 -1.000000
vn 0.000000 0.000000 1.000000
vn 0.000000 0.000000 1.000000
vn 0.000000 0.000000 1.000000
vn 0.000000 0.000000 1.000000
vn 0.000000 0.000000 1.000000
vn 0.000000 0.000000 1.000000
vn -1.000000 0.000000 0.000000
vn -1.000000 0.000000 0.000000
vn -1.000000 0.000000 0.000000
vn -1.000000 0.000000 0.000000
vn -1.000000 0.000000 0.000000
vn -1.000000 0.000000 0.000000
vn -1.000000 0.000000 0.000000
vn -1.000000 0.000000 0.000000
s off
g BathroomShell:BigRoomWall BathroomShell:null1
usemtl initialShadingGroup
f 6/1/1 28/2/2 5/3/3
f 5/3/4 28/2/5 27/4/6
f 19/5/7 20/6/8 11/7/9
f 11/7/10 20/6/11 8/8/12
f 11/7/13 8/8/14 6/1/15
f 6/1/16 8/8/17 28/2/18
f 18/9/19 19/5/20 13/10/21
f 13/10/22 19/5/23 11/7/24
f 13/10/25 14/11/26 10/12/27
f 10/12/28 14/11/29 1/13/30
f 13/10/31 11/7/32 14/11/33
f 14/11/34 11/7/35 6/1/36
f 6/14/37 7/15/38 14/16/39
f 14/16/40 7/15/41 16/17/42
f 5/18/43 26/19/44 6/20/45
f 6/20/46 26/19/47 7/21/48
f 14/16/49 16/17/50 1/22/51
f 1/22/52 16/17/53 2/23/54
f 10/24/55 9/25/56 13/26/57
f 13/26/58 9/25/59 15/27/60
f 13/28/61 15/29/62 18/30/63
f 18/30/64 15/29/65 17/31/66
f 12/32/67 3/33/68 18/9/69
f 18/9/70 3/33/71 19/5/72
f 3/33/73 4/34/74 19/5/75
f 19/5/76 4/34/77 20/6/78
f 12/32/79 18/9/80 21/35/81
f 21/35/82 18/9/83 23/36/84
f 18/37/85 17/38/86 23/39/87
f 23/40/88 17/41/89 22/42/90
f 26/43/91 5/44/92 24/45/93
f 24/45/94 5/44/95 25/46/96
f 5/3/97 27/4/98 30/47/99 29/48/100
f 25/49/101 5/3/102 29/48/103 31/50/104
g default
v -626.802368 286.151215 -377.275330
v -626.802368 286.151215 -77.443687
v -626.802368 -6.958920 -77.443687
v -626.802368 286.151215 164.447235
v -626.802368 -6.958920 164.447235
v 605.904358 -6.958920 164.447235
v 605.904358 286.151215 164.447235
v 605.904419 -224.702606 164.447235
v 605.904358 -359.418365 164.447235
v 605.904358 -224.702606 -640.140991
v 605.904358 -359.599518 -640.140991
v -626.802307 -6.958920 -640.141052
v -626.802307 286.151215 -640.141052
v -626.802307 286.151215 -595.220093
v 605.904358 286.151215 -640.140991
v 605.904358 -6.958920 -640.141052
v -626.802307 -359.780731 -640.141052
v -626.802368 -6.958920 -377.275330
v -626.802307 -6.958920 -595.220154
v -626.802368 -359.780731 -595.220093
v -626.802307 -224.702606 164.447235
v -626.802307 -224.702606 -77.443687
v -626.802307 -359.418365 164.447235
v -626.802307 -224.702606 -377.275330
v -626.802307 -359.780731 -77.443687
v -626.802307 -359.780731 -378.000000
v 605.904358 -359.599518 -640.140991
vt 0.086597 0.564513
vt 0.086603 0.511025
vt 0.158532 0.564521
vt 0.158538 0.511033
vt 0.158517 0.697470
vt 0.086583 0.697462
vt 0.158524 0.638106
vt 0.086589 0.638098
vt 0.033144 0.697456
vt 0.033151 0.638092
vt 0.000000 0.638088
vt 0.033159 0.564507
vt 0.000008 0.564326
vt 0.086549 0.999992
vt 0.158484 1.000000
vt 0.033110 0.999986
vt 0.000082 0.697453
vt 0.000049 0.999982
vt 0.158595 0.000018
vt 0.158573 0.197479
vt 0.086660 0.000010
vt 0.086638 0.197471
vt 0.033222 0.000004
vt 0.033200 0.197465
vt 0.000160 0.000000
vt 0.000094 0.197461
vt 0.158539 0.500009
vt 0.086605 0.500001
vt 0.000015 0.499991
vt 0.000094 0.197461
vt 0.000014 0.511016
vn 1.000000 0.000000 0.000000
vn 1.000000 0.000000 0.000000
vn 1.000000 0.000000 0.000000
vn 1.000000 0.000000 0.000000
vn 1.000000 0.000000 0.000000
vn 1.000000 0.000000 0.000000
vn 1.000000 0.000000 0.000000
vn 1.000000 0.000000 0.000000
vn 1.000000 0.000000 0.000000
vn 1.000000 0.000000 0.000000
vn 1.000000 0.000000 0.000000
vn 1.000000 0.000000 0.000000
vn 1.000000 0.000000 0.000000
vn 1.000000 0.000000 0.000000
vn 1.000000 0.000000 0.000000
vn 1.000000 0.000000 0.000000
vn 1.000000 0.000000 0.000000
vn 1.000000 0.000000 0.000000
vn 1.000000 0.000000 0.000000
vn 1.000000 0.000000 0.000000
vn 1.000000 0.000000 0.000000
vn 1.000000 0.000000 0.000000
vn 1.000000 0.000000 0.000000
vn 1.000000 0.000000 0.000000
vn 1.000000 0.000000 0.000000
vn 1.000000 0.000000 0.000000
vn 1.000000 0.000000 0.000000
vn 1.000000 0.000000 0.000000
vn 1.000000 0.000000 0.000000
vn 1.000000 0.000000 0.000000
vn 1.000000 0.000000 0.000000
vn 1.000000 0.000000 0.000000
vn 1.000000 0.000000 0.000000
vn 1.000000 0.000000 0.000000
vn 1.000000 0.000000 0.000000
vn 1.000000 0.000000 0.000000
vn 0.000000 0.000000 -1.000000
vn 0.000000 0.000000 -1.000000
vn 0.000000 0.000000 -1.000000
vn 0.000000 0.000000 -1.000000
vn 0.000000 0.000000 -1.000000
vn 0.000000 0.000000 -1.000000
vn 0.000000 0.000000 -1.000000
vn 0.000000 0.000000 -1.000000
vn 0.000000 0.000000 -1.000000
vn 0.000000 0.000000 -1.000000
vn 0.000000 0.000000 -1.000000
vn 0.000000 0.000000 -1.000000
vn 0.000000 0.000000 -1.000000
vn 0.000000 0.000000 -1.000000
vn 0.000000 0.000000 -1.000000
vn 0.000000 0.000000 -1.000000
vn 0.000000 0.000000 -1.000000
vn 0.000000 0.000000 -1.000000
vn -1.000000 0.000000 0.000000
vn -1.000000 0.000000 0.000000
vn -1.000000 0.000000 0.000000
vn -1.000000 0.000000 0.000000
vn -1.000000 0.000000 0.000000
vn -1.000000 0.000000 0.000000
vn -1.000000 0.000000 0.000000
vn -1.000000 0.000000 0.000000
vn -1.000000 0.000000 0.000000
vn -1.000000 0.000000 0.000000
vn -1.000000 0.000000 0.000000
vn -1.000000 0.000000 0.000000
vn -1.000000 0.000000 0.000000
vn -1.000000 0.000000 0.000000
vn -1.000000 0.000000 0.000000
vn -1.000000 0.000000 0.000000
vn -1.000000 0.000000 0.000000
vn -1.000000 0.000000 0.000000
vn 0.000000 0.000000 1.000000
vn 0.000000 0.000000 1.000000
vn 0.000000 0.000000 1.000000
vn 0.000000 0.000000 1.000000
vn 0.000000 0.000000 1.000000
vn 0.000000 0.000000 1.000000
vn 0.000000 0.000000 1.000000
vn 0.000000 0.000000 1.000000
vn 0.000000 0.000000 1.000000
vn 0.000000 0.000000 1.000000
vn 0.000000 0.000000 1.000000
vn 0.000000 0.000000 1.000000
vn 1.000000 -0.000000 0.000000
vn 1.000000 -0.000000 0.000000
vn 1.000000 -0.000000 0.000000
vn 1.000000 -0.000000 0.000000
vn 1.000000 -0.000000 0.000001
vn 1.000000 -0.000000 0.000001
vn 1.000000 -0.000000 0.000001
vn 1.000000 -0.000000 0.000001
s off
g BathroomShell:null1 BathroomShell:Bathroom
usemtl initialShadingGroup
f 49/51/105 50/52/106 32/53/107
f 32/53/108 50/52/109 45/54/110
f 35/55/111 36/56/112 33/57/113
f 33/57/114 36/56/115 34/58/116
f 34/58/117 49/51/118 33/57/119
f 33/57/120 49/51/121 32/53/122
f 36/56/123 52/59/124 34/58/125
f 34/58/126 52/59/127 53/60/128
f 53/60/129 56/61/130 55/62/131
f 55/62/132 56/61/133 57/63/134
f 34/58/135 53/60/136 49/51/137
f 49/51/138 53/60/139 55/62/140
f 36/56/141 35/55/142 37/64/143
f 37/64/144 35/55/145 38/65/146
f 52/59/147 36/56/148 39/66/149
f 39/66/150 36/56/151 37/64/152
f 54/67/153 52/59/154 40/68/155
f 40/68/156 52/59/157 39/66/158
f 38/69/159 46/70/160 37/71/161
f 37/71/162 46/70/163 47/72/164
f 37/71/165 47/72/166 39/73/167
f 39/73/168 47/72/169 41/74/170
f 39/73/171 41/74/172 40/75/173
f 40/75/174 41/74/175 58/76/176
f 44/77/177 43/78/178 46/70/179
f 46/70/180 43/78/181 47/72/182
f 43/78/183 48/79/184 47/72/185
f 47/72/186 48/79/187 42/80/188
f 43/78/189 44/77/190 45/54/191 50/52/192
f 48/79/193 43/78/194 50/52/195 51/81/196
